<svg width="18" height="18" viewBox="0 0 18 18" fill="none" xmlns="http://www.w3.org/2000/svg">
<path d="M9 4.68C8.14559 4.68 7.31036 4.93336 6.59994 5.40805C5.88952 5.88274 5.33581 6.55743 5.00884 7.34681C4.68187 8.13618 4.59632 9.00479 4.76301 9.84279C4.9297 10.6808 5.34114 11.4505 5.9453 12.0547C6.54946 12.6589 7.31921 13.0703 8.15721 13.237C8.99521 13.4037 9.86382 13.3181 10.6532 12.9912C11.4426 12.6642 12.1173 12.1105 12.5919 11.4001C13.0666 10.6896 13.32 9.85442 13.32 9C13.32 7.85427 12.8649 6.75546 12.0547 5.9453C11.2445 5.13514 10.1457 4.68 9 4.68ZM9 11.88C8.43039 11.88 7.87357 11.7111 7.39996 11.3946C6.92634 11.0782 6.55721 10.6284 6.33923 10.1021C6.12125 9.57588 6.06421 8.99681 6.17534 8.43814C6.28646 7.87948 6.56076 7.36631 6.96353 6.96353C7.36631 6.56076 7.87948 6.28646 8.43814 6.17534C8.99681 6.06421 9.57588 6.12125 10.1021 6.33923C10.6284 6.55721 11.0782 6.92634 11.3946 7.39996C11.7111 7.87357 11.88 8.43039 11.88 9C11.8776 9.76309 11.5734 10.4943 11.0338 11.0338C10.4943 11.5734 9.76309 11.8776 9 11.88ZM12.96 0H5.04C3.70331 0 2.42137 0.530998 1.47618 1.47618C0.530998 2.42137 0 3.70331 0 5.04V12.96C0 14.2967 0.530998 15.5786 1.47618 16.5238C2.42137 17.469 3.70331 18 5.04 18H12.96C14.2967 18 15.5786 17.469 16.5238 16.5238C17.469 15.5786 18 14.2967 18 12.96V5.04C18 3.70331 17.469 2.42137 16.5238 1.47618C15.5786 0.530998 14.2967 0 12.96 0ZM16.56 12.96C16.56 13.4328 16.4669 13.9009 16.286 14.3377C16.1051 14.7744 15.8399 15.1713 15.5056 15.5056C15.1713 15.8399 14.7744 16.1051 14.3377 16.286C13.9009 16.4669 13.4328 16.56 12.96 16.56H5.04C4.56724 16.56 4.09911 16.4669 3.66234 16.286C3.22557 16.1051 2.82871 15.8399 2.49442 15.5056C2.16012 15.1713 1.89495 14.7744 1.71403 14.3377C1.53312 13.9009 1.44 13.4328 1.44 12.96V5.04C1.44 4.08522 1.81928 3.16955 2.49442 2.49442C3.16955 1.81928 4.08522 1.44 5.04 1.44H12.96C13.4328 1.44 13.9009 1.53312 14.3377 1.71403C14.7744 1.89495 15.1713 2.16012 15.5056 2.49442C15.8399 2.82871 16.1051 3.22557 16.286 3.66234C16.4669 4.09911 16.56 4.56724 16.56 5.04V12.96ZM14.76 4.32C14.76 4.5336 14.6967 4.74241 14.578 4.92002C14.4593 5.09762 14.2906 5.23605 14.0933 5.31779C13.896 5.39953 13.6788 5.42092 13.4693 5.37925C13.2598 5.33758 13.0674 5.23472 12.9163 5.08368C12.7653 4.93263 12.6624 4.7402 12.6208 4.5307C12.5791 4.3212 12.6005 4.10405 12.6822 3.9067C12.764 3.70936 12.9024 3.54068 13.08 3.42201C13.2576 3.30334 13.4664 3.24 13.68 3.24C13.9664 3.24 14.2411 3.35379 14.4437 3.55632C14.6462 3.75886 14.76 4.03357 14.76 4.32Z" fill="#D99938"/>
</svg>
