<svg width="157" height="227" viewBox="0 0 157 227" fill="none" xmlns="http://www.w3.org/2000/svg">
<path d="M69.0623 29.0537C68.727 29.3115 68.4002 29.5823 68.0519 29.823C61.9894 34.0349 55.9227 38.2382 49.8688 42.4544C46.1453 45.0461 42.5336 47.7752 39.2659 50.9342C38.9649 51.2264 38.6726 51.5316 38.3759 51.8324C38.4275 51.9055 38.4748 51.9785 38.5264 52.0516C38.8574 51.8367 39.1928 51.6347 39.511 51.4069C48.1876 45.2781 56.8514 39.1322 65.5366 33.0163C68.4432 30.9705 71.4013 29.0021 74.3122 26.9649C77.5627 24.6913 79.777 21.6527 80.8433 17.8147C81.3593 15.9666 81.5226 14.1271 80.5337 12.3564C80.4606 12.2232 80.3703 12.0555 80.3875 11.918C80.4305 11.5097 80.3961 10.9983 80.6283 10.7318C80.9852 10.3235 81.4453 10.7103 81.7591 10.9596C83.0963 12.0212 84.0078 13.3621 84.0938 15.1113C84.1411 16.0655 84.3776 16.9336 84.6786 17.8319C85.8223 21.2702 85.1601 24.3733 82.7222 27.0551C82.1547 27.6783 81.8881 28.3316 81.9182 29.1654C81.9526 30.1023 81.9913 31.0479 81.8881 31.9719C81.7161 33.5449 80.9723 34.8773 79.8114 35.9346C78.8956 36.7683 78.3667 37.7225 78.3194 38.9775C78.2764 40.0863 78.1302 41.1952 78.0098 42.5318C78.5516 42.2138 78.887 42.0418 79.2009 41.8355C80.078 41.251 80.9336 40.6321 81.8236 40.0691C82.7265 39.4975 83.7154 39.1537 84.8033 39.1494C85.4224 39.1494 85.9556 39.3342 86.4027 39.7597C86.7639 40.1035 86.9918 40.5118 86.7983 41.019C86.6005 41.539 86.1619 41.6636 85.6546 41.6164C85.4654 41.5992 85.2805 41.5734 84.958 41.5347C84.4507 42.8971 83.8659 44.2166 83.4704 45.5919C82.5847 48.7036 81.6172 51.8195 81.4281 55.073C81.2733 57.7592 81.2905 60.4539 81.2518 63.1487C81.2389 64.1243 81.2862 65.1 81.3034 66.0799C81.3077 66.3549 81.2776 66.63 81.3077 66.9008C81.3507 67.2962 81.0755 67.2016 80.8648 67.2575C80.8218 67.2704 80.8261 67.554 80.8562 67.7002C81.2131 69.415 81.5269 71.1428 81.9741 72.8361C82.159 73.541 82.1203 74.0309 81.557 74.4908C81.226 74.7616 80.9465 75.0968 80.6154 75.3719C77.8293 77.6884 76.0492 80.7872 74.1101 83.7613C74.0327 83.8817 74.0112 84.045 73.9252 84.3115C75.5204 84.8315 77.0983 85.3086 78.7279 84.9991C80.0952 84.737 81.4238 84.247 82.7351 83.757C84.0422 83.2671 85.302 82.6525 86.6607 82.0594C86.7424 81.4835 86.3855 81.333 85.8223 81.4835C84.9194 81.7199 84.0035 81.939 83.1221 82.2485C82.0945 82.6095 81.1099 83.1124 80.078 83.4562C79.2739 83.727 78.4269 83.8946 77.5842 84.0192C77.1929 84.0751 76.7716 83.9247 76.3631 83.8645C76.3717 83.7914 76.376 83.7141 76.3846 83.641C76.5695 83.641 76.7587 83.6582 76.9435 83.6367C77.6358 83.5593 78.3495 83.555 79.0074 83.3659C80.0178 83.0737 80.9809 82.631 81.9741 82.2786C83.4016 81.7714 84.8377 81.2858 86.3984 80.7485C86.3984 80.4348 86.4113 80.0523 86.3941 79.6698C86.2909 77.2587 86.9703 75.0238 88.0409 72.9178C89.8897 69.2732 92.9295 67.1243 96.868 66.1916C97.1346 66.1272 97.3969 66.0756 97.6634 66.0111C97.6978 66.0025 97.7236 65.9638 97.8655 65.8435C97.8913 65.4911 97.9558 65.0355 97.9558 64.5799C97.9644 50.1648 97.9644 35.7498 97.973 21.3347C97.973 20.0281 97.7666 18.7688 97.298 17.5525C96.7089 16.0225 96.1414 14.4838 95.4706 12.9925C95.0106 11.9696 95.0149 11.0541 95.5996 10.1043C97.1647 7.56427 97.6505 4.74056 97.7408 1.8137C97.758 1.19051 97.5732 0.472767 98.231 0C98.7942 0.159021 98.7899 0.627491 98.863 1.03149C99.0866 2.21771 99.293 3.41252 99.5166 4.59873C99.8992 6.64452 100.501 8.61725 101.434 10.4782C101.864 11.3335 101.967 12.163 101.598 13.0655C101.318 13.7489 101.172 14.4924 100.88 15.1672C99.8906 17.4408 99.723 19.8175 99.723 22.2673C99.7316 36.0592 99.6714 49.8468 99.6327 63.6387C99.6327 64.4166 99.6327 65.1945 99.6327 65.9939C100.024 66.1357 100.303 66.269 100.596 66.342C105.932 67.6572 108.821 71.3147 110.085 76.4249C111.685 82.8846 107.402 88.3515 102.943 90.4016C101.886 90.8872 100.785 91.2912 99.6972 91.7382C99.6972 94.953 99.6972 98.1334 99.6972 101.464C100.041 101.279 100.282 101.189 100.475 101.039C101.06 100.579 101.658 100.136 102.187 99.6162C104.031 97.8111 106.28 97.1063 108.804 97.1363C113.331 97.1922 117.863 97.2739 122.391 97.3211C125.59 97.3555 128.797 97.4845 131.987 97.3168C134.903 97.1664 137.805 96.6979 140.703 96.3197C141.223 96.251 141.791 96.0275 142.195 95.7008C143.072 94.996 143.992 94.2825 144.658 93.3972C146.851 90.5004 148.403 87.277 149.074 83.6754C149.207 82.949 149.285 82.2055 149.306 81.4706C149.371 79.3001 148.218 77.9291 146.06 77.624C144.426 77.3919 142.934 77.6541 141.902 79.1368C141.838 79.2271 141.73 79.2915 141.636 79.3603C141.606 79.3818 141.567 79.3904 141.442 79.4377C140.875 79.1411 140.991 78.6984 141.249 78.2171C142.113 76.6054 143.945 75.6985 145.802 76.0252C147.161 76.2658 148.296 76.8632 149.031 78.1139C149.384 78.7113 149.844 79.2572 150.299 79.7858C151.069 80.6755 151.503 81.6898 151.607 82.8545C151.847 85.6309 151.237 88.2053 149.792 90.5864C148.666 92.443 147.242 94.0376 145.561 95.4086C144.805 96.0232 144.018 96.6034 143.265 97.2266C142.887 97.5403 142.56 97.9142 142.139 98.3354C144.13 99.1735 145.462 100.463 146.211 102.302C146.155 102.384 146.094 102.466 146.039 102.547C145.634 102.354 145.222 102.178 144.83 101.963C144.117 101.567 143.36 101.447 142.564 101.576C141.838 101.692 141.24 102.027 140.849 102.676C139.572 104.778 138.669 107.017 138.669 109.51C138.669 112.828 138.751 116.15 138.815 119.468C138.862 122.043 139.103 124.63 138.45 127.161C138.209 128.103 137.895 129.035 137.512 129.929C136.773 131.644 135.565 132.933 133.819 133.668C132.895 134.059 132.155 134.665 131.549 135.461C130.139 137.321 128.419 138.847 126.368 139.96C125.59 140.382 125.194 140.936 125.198 141.804C125.203 143.167 125.198 144.529 125.198 146.008C127.649 146.644 129.726 147.954 131.347 150.052C131.553 149.803 131.699 149.678 131.785 149.515C132.899 147.452 134.593 145.969 136.584 144.826C138.553 143.695 140.406 142.419 142.186 141C145.14 138.645 149.435 138.809 152.363 141.224C153.64 142.277 153.881 143.717 154.07 145.191C154.13 145.655 153.709 146.046 153.283 146.038C152.815 146.029 152.591 145.732 152.527 145.298C152.505 145.144 152.501 144.989 152.497 144.83C152.432 142.625 151.146 141.095 148.893 140.575C148.678 141.091 148.988 141.903 148.038 142.101C147.939 142.019 147.806 141.894 147.66 141.783C147.07 141.327 146.731 141.297 146.258 141.86C145.811 142.393 145.428 142.995 145.101 143.609C144.155 145.406 143.876 147.391 143.669 149.368C143.493 151.032 143.351 152.712 143.356 154.384C143.399 166.573 143.48 178.762 143.571 190.95C143.579 192.038 143.682 193.134 143.82 194.213C144.009 195.674 144.585 196.985 145.553 198.119C145.793 198.403 145.97 198.738 146.137 198.987C145.832 199.563 145.458 199.348 145.136 199.293C144.486 199.177 143.923 199.28 143.364 199.662C139.056 202.598 135.38 206.156 132.426 210.467C130.986 212.569 130.435 214.851 130.723 217.352C130.771 217.773 130.869 218.199 131.003 218.603C131.201 219.205 131.609 219.587 132.263 219.677C132.568 219.72 132.873 219.806 133.17 219.897C133.664 220.047 133.957 220.378 134.017 220.907C134.081 221.465 133.797 221.788 133.32 221.99C133.213 222.033 133.11 222.093 132.895 222.2C133.118 222.45 133.282 222.712 133.514 222.875C135.539 224.323 137.753 225.067 140.238 224.422C141.666 224.053 143.055 223.52 144.452 223.043C144.968 222.866 145.458 222.617 145.97 222.424C146.658 222.17 147.363 222.119 147.999 222.536C148.442 222.828 148.795 222.738 149.173 222.467C151.959 220.468 154.315 218.139 155.253 214.7C155.407 214.137 155.489 213.557 155.571 212.981C155.751 211.722 155.39 210.678 154.345 209.883C154.006 209.625 153.739 209.277 153.447 208.963C153.193 208.688 153.017 208.374 153.262 208.017C153.546 207.6 153.924 207.725 154.307 207.884C155.592 208.417 156.379 209.375 156.732 210.703C157.144 212.255 157.063 213.794 156.611 215.324C156.194 216.725 155.532 217.997 154.651 219.162C151.748 223.008 147.905 225.398 143.218 226.361C142.023 226.606 140.69 226.61 139.503 226.352C137.723 225.961 135.965 225.364 134.292 224.637C131.183 223.279 129.012 220.92 127.739 217.782C126.394 214.456 125.74 210.996 125.757 207.385C125.77 204.42 125.645 201.454 125.499 198.493C125.344 195.373 125.078 192.261 124.876 189.145C124.553 184.121 124.244 179.093 123.93 174.068C123.874 173.174 123.809 172.276 123.732 171.382C123.719 171.215 123.62 171.051 123.44 170.901C123.07 173.247 123.496 175.581 123.504 177.911C123.513 180.33 123.551 182.754 123.637 185.174C123.719 187.555 123.857 189.932 124.007 192.309C124.158 194.668 124.433 197.023 124.205 199.409C124.05 198.102 123.874 196.8 123.749 195.493C123.358 191.415 122.928 187.344 122.919 183.231C122.911 179.29 122.623 175.349 122.502 171.408C122.477 170.626 122.201 170.174 121.458 169.938C118.388 168.962 115.352 168.64 112.39 170.299C111.998 170.518 111.577 170.686 111.108 170.759C112.248 169.384 113.589 168.283 115.412 168.111C116.638 168 117.897 168.124 119.131 168.245C120.09 168.339 121.032 168.597 122.146 168.812C122.365 166.693 122.038 164.695 122.017 162.7C121.995 160.711 121.879 158.721 121.784 156.731C121.685 154.711 121.561 152.691 121.44 150.628C120.284 150.464 119.42 150.877 118.628 151.453C116.754 152.811 115.928 154.728 115.761 156.98C115.67 158.188 115.589 159.395 115.49 160.599C115.46 160.986 115.412 161.377 115.335 161.755C114.742 164.544 112.433 165.705 109.831 164.531C109.479 164.372 109.139 164.179 108.623 163.912C108.572 164.334 108.507 164.647 108.499 164.965C108.443 167.583 108.361 170.2 108.365 172.818C108.365 174.064 107.927 174.954 106.886 175.667C105.575 176.565 104.354 177.597 103.068 178.585C103.421 179.08 103.842 178.895 104.195 178.895C107.084 178.895 109.978 178.848 112.867 178.869C113.718 178.878 114.587 178.985 115.412 179.191C117.502 179.711 118.405 181.233 117.682 183.274C117.231 184.542 116.582 185.797 115.773 186.872C114.062 189.145 112.192 191.303 110.369 193.495C110.132 193.778 109.81 193.993 109.371 194.376C109.182 193.899 109.045 193.607 108.946 193.301C108.658 192.403 108.284 192.068 107.346 192.059C105.042 192.038 102.737 192.055 100.437 192.059C99.9809 192.059 99.5596 192.124 99.6284 192.919C100.815 193.039 102.019 193.164 103.223 193.284C102.075 193.778 100.871 193.469 99.6327 193.688C99.5897 193.972 99.5037 194.565 99.5037 194.565H97.9601C97.9601 194.565 97.9601 194.29 97.9601 193.714C97.4442 193.619 97.0013 193.473 96.5584 193.473C92.577 193.49 88.5955 193.529 84.6141 193.568C83.5994 193.576 82.5804 193.637 81.5699 193.606C80.7487 193.581 79.9705 193.387 79.3556 192.459C79.7727 192.584 80.0135 192.682 80.2586 192.725C81.0583 192.863 81.8666 193.095 82.6663 193.091C87.3916 193.052 92.1126 192.958 96.8379 192.872C97.1862 192.863 97.5345 192.751 97.9601 192.674C97.6978 191.969 97.2292 192.059 96.8293 192.055C95.1482 192.025 93.4713 192.008 91.7901 191.982C88.4321 191.93 85.0741 191.866 81.7161 191.827C80.8949 191.819 80.1898 191.561 79.5534 191.062C79.2825 190.852 79.0031 190.65 78.629 190.37C78.0013 191.677 78.2463 192.872 78.7666 194.01C79.1836 194.93 79.7426 195.79 80.2199 196.684C80.4391 197.096 80.6885 197.513 80.7917 197.96C80.8605 198.252 80.796 198.734 80.5982 198.889C80.3918 199.048 79.8888 199.026 79.6437 198.876C79.2653 198.644 78.8526 198.291 78.6978 197.896C78.0442 196.228 77.4294 194.539 76.9134 192.824C76.7415 192.257 76.7888 191.556 76.9521 190.976C77.2445 189.932 77.5627 188.853 78.1216 187.938C79.4588 185.737 80.9207 183.614 82.3654 181.478C84.7302 177.988 87.1896 174.558 89.4899 171.025C92.0008 167.179 93.4928 162.915 94.0819 158.36C94.4258 155.686 94.1377 153.052 93.1273 150.533C91.975 147.658 90.2122 145.2 87.8861 143.149C87.6324 142.926 87.34 142.75 86.9574 142.475C86.9445 143.459 87.3959 144.091 87.8302 144.727C88.6643 145.947 89.4985 147.168 90.3326 148.389C90.4444 148.548 90.5347 148.737 90.6808 148.857C91.8933 149.863 92.1857 151.281 92.4179 152.716C92.5727 153.675 92.2416 154.569 91.8117 155.411C91.7343 155.562 91.4419 155.6 91.2527 155.691C91.171 155.502 90.9775 155.274 91.0248 155.128C91.5838 153.417 91.0463 151.848 90.2681 150.4C88.372 146.871 86.1662 143.571 82.8211 141.194C81.3249 140.132 79.906 138.963 78.4011 137.906C76.4749 136.556 74.4498 135.43 72.0807 134.971C69.1956 134.412 66.5728 134.897 64.1736 136.569C63.4384 137.081 62.7462 137.657 62.0539 138.228C61.0908 139.028 60.6523 140.076 60.6867 141.327C60.6996 141.783 60.6867 142.243 60.6867 142.668C59.9084 142.922 59.6075 142.599 59.4355 142.032C59.1689 141.147 59.3882 140.321 59.7923 139.548C60.1191 138.925 60.4975 138.374 60.3341 137.584C60.218 137.042 60.6867 136.677 61.0865 136.346C63.6835 134.206 66.6373 133.058 70.0297 133.144C70.3264 133.153 70.6274 133.144 70.9413 133.062C70.3307 132.602 69.5998 132.551 68.8903 132.482C65.2744 132.138 61.9077 132.929 58.769 134.726C56.1119 136.243 53.9706 138.327 52.1476 140.76C49.9419 143.704 47.9985 146.811 46.356 150.108C44.8554 153.129 42.7615 155.678 40.1602 157.805C39.167 158.617 38.0878 159.288 36.7936 159.615C36.9828 159.468 37.1677 159.318 37.3655 159.18C40.9643 156.744 43.7934 153.645 45.7068 149.712C47.4395 146.154 49.5248 142.814 51.9885 139.711C54.7532 136.23 58.1155 133.582 62.4667 132.396C63.7351 132.052 65.068 131.936 66.3751 131.721C66.7792 131.657 67.1834 131.614 67.5747 131.451C63.404 130.475 59.2893 130.496 55.2605 132.044C54.0437 132.512 53.2053 133.342 52.5991 134.532C50.187 139.286 47.2718 143.717 43.7633 147.744C40.5042 151.492 36.5615 154.169 31.7287 155.48C29.2306 156.155 26.7884 156.047 24.3849 155.085C23.4132 154.694 23.0434 154.857 22.5748 155.845C22.1276 156.787 22.2953 157.724 23.095 158.085C23.7615 158.385 24.5053 158.523 25.219 158.712C25.8984 158.893 26.5906 159.009 27.2571 159.223C27.6182 159.34 27.9751 159.554 28.2546 159.817C28.8995 160.418 28.6931 161.467 27.8418 161.682C27.2614 161.828 26.582 161.837 26.0016 161.69C24.4709 161.299 23.095 160.56 21.9169 159.49C20.4121 158.123 20.425 156.301 21.9298 154.904C22.1835 154.668 22.4415 154.436 22.7296 154.173C21.7105 153.125 20.756 152.196 19.277 151.827C16.7273 151.186 14.599 149.721 12.7157 147.899C9.45661 144.744 7.11331 141.005 5.63424 136.724C5.50525 136.354 5.36766 135.989 5.25587 135.615C4.66682 133.664 3.84989 131.837 2.73199 130.11C1.34751 127.969 0.380096 125.627 0.0877211 123.044C-0.12726 121.149 0.061925 119.296 0.556382 117.478C2.45252 110.503 6.48127 104.984 12.1826 100.639C14.3324 98.9973 16.5983 97.5403 19.3157 96.9945C21.7277 96.5088 24.1312 96.0017 26.6207 96.3455C29.8755 96.7925 32.4811 98.387 34.6008 100.828C34.9018 101.176 35.1684 101.598 35.306 102.032C35.6112 103.003 36.1831 103.729 36.9527 104.383C38.449 105.65 39.2143 107.365 39.4938 109.265C39.7862 111.251 39.7733 113.236 38.952 115.136C38.6124 115.922 38.1437 116.58 37.2881 116.829C36.8882 116.945 36.4368 117.027 36.0283 116.975C34.6567 116.803 34.1322 115.458 34.9878 114.358C35.1555 114.143 35.349 113.941 35.5725 113.786C36.3895 113.228 36.4626 112.454 36.2218 111.603C35.7875 110.069 34.919 108.852 33.4958 108.096C30.2926 106.398 26.9733 106.033 23.5551 107.365C20.3089 108.629 17.8194 110.743 16.1382 113.846C13.0726 119.511 11.873 125.545 12.4277 131.936C12.7071 135.155 13.6014 138.22 15.102 141.095C15.7642 142.359 16.6112 143.463 17.7721 144.31C18.9072 145.135 19.9821 146.059 21.186 146.777C23.4003 148.096 25.8038 148.947 28.4223 148.681C29.5273 148.569 30.6452 148.238 31.6685 147.791C34.4331 146.583 36.5271 144.559 38.1308 142.028C40.3752 138.478 41.6694 134.575 42.396 130.458C42.8948 127.625 42.6884 124.767 42.7873 121.926C43.0152 115.329 43.1184 108.728 43.2646 102.13C43.3119 100.098 43.3506 98.069 43.3764 96.0361C43.3893 95.1421 43.3592 95.1249 42.2929 94.996C42.2542 95.3226 42.1854 95.6536 42.1811 95.9845C42.0951 105.281 42.022 114.577 41.9317 123.878C41.9274 124.338 42.1338 124.914 41.4716 125.21C41.0245 124.918 41.1062 124.471 41.1105 124.063C41.1921 117.422 41.2824 110.782 41.3684 104.142C41.4071 101.133 41.4286 98.1248 41.4544 95.1163C41.4544 94.8842 41.4329 94.6522 41.4157 94.3384C40.4225 93.7668 39.3992 93.2081 38.406 92.5935C36.8452 91.6308 35.2372 90.7239 33.7796 89.6236C30.7312 87.32 28.5856 84.3201 27.644 80.5895C26.496 76.0467 27.4376 71.8347 30.0432 67.9967C30.7054 67.0211 31.0536 66.0541 31.1396 64.8679C31.3331 62.1387 32.4209 59.6889 33.6248 57.2477C36.0713 52.2794 40.1172 48.811 44.3094 45.4587C45.7712 44.2896 47.289 43.1765 48.8369 42.1235C54.4866 38.2855 60.1578 34.4733 65.8333 30.6697C66.8222 30.0035 67.867 29.4147 68.8817 28.7915C68.9247 28.8774 68.9935 28.9634 69.0623 29.0537ZM92.9253 112.05C92.6974 112.368 92.5039 112.596 92.3577 112.849C90.9861 115.243 90.0144 117.775 89.6231 120.521C89.262 123.04 89.8123 125.33 91.1925 127.436C91.4075 127.763 91.7343 128.017 92.0911 128.391C92.3491 127.961 92.5039 127.699 92.6587 127.436C92.835 127.131 92.9553 126.779 93.1918 126.534C93.381 126.336 93.7379 126.126 93.9529 126.181C94.1764 126.242 94.3484 126.594 94.4774 126.856C94.5548 127.015 94.5333 127.243 94.5032 127.428C94.3742 128.343 93.94 129.082 93.037 129.375C92.0739 129.684 91.1409 129.504 90.4874 128.687C89.3738 127.299 88.4923 125.76 88.3333 123.955C88.0237 120.375 88.6127 116.958 90.3713 113.773C92.2287 110.408 94.3441 107.228 97.0744 104.499C97.7365 103.837 97.9945 103.119 97.9816 102.199C97.9429 99.152 97.9644 96.1048 97.9515 93.0576C97.9515 92.6322 97.9085 92.2067 97.8827 91.8113C97.715 91.7253 97.6204 91.6522 97.5129 91.6222C97.2894 91.5577 97.0615 91.5018 96.8293 91.4631C92.5942 90.797 89.6532 88.4202 87.7829 84.6295C87.6152 84.29 87.4346 83.959 87.2841 83.6754C86.3726 83.6668 85.8997 84.0708 85.7406 84.81C85.4783 86.022 85.0784 87.2426 85.0397 88.4675C84.9323 91.7468 84.9838 95.0304 84.9838 98.3097C84.9838 98.6879 85.0354 99.0704 85.0655 99.4959C86.2866 99.7065 87.4303 99.9171 88.574 100.102C89.8725 100.312 90.9302 100.953 91.7214 101.976C92.5555 103.055 93.3079 104.198 94.0819 105.324C94.2366 105.547 94.357 105.801 94.4387 106.059C94.6064 106.596 94.3355 107.013 93.7809 107.039C93.1918 107.069 92.7017 106.837 92.4308 106.291C92.2244 105.874 92.0696 105.427 91.8761 105.001C90.7367 102.483 87.6883 100.79 85.0483 101.249C85.0096 101.49 84.9409 101.752 84.9323 102.019C84.885 103.308 84.842 104.597 84.8119 105.883C84.6184 114.122 84.4464 122.365 84.2142 130.604C84.1626 132.379 84.6098 133.896 85.7578 135.25C87.5722 137.395 89.3394 139.586 91.1538 141.735C92.749 143.622 94.1764 145.616 95.247 147.851C95.3717 148.113 95.548 148.35 95.8275 148.805C95.9135 148.264 95.9909 147.976 95.9995 147.679C96.0296 146.39 96.0382 145.101 96.0511 143.811C96.15 135.216 96.2532 126.624 96.3478 118.028C96.3564 117.28 96.5283 116.644 97.2206 116.232C97.8268 115.871 97.9859 115.299 97.9687 114.624C97.9386 113.533 97.9644 112.437 97.9472 111.345C97.9429 111.061 97.8612 110.778 97.8096 110.438C95.8963 110.975 94.8472 112.235 94.3183 113.971C93.2133 113.743 93.4068 112.716 92.9253 112.05ZM120.198 136.668C119.893 133.995 119.514 131.3 118.835 128.648C118.366 126.817 117.897 124.991 116.074 123.899C116.492 123.955 116.84 124.08 117.132 124.29C118.1 124.978 118.594 125.988 118.951 127.088C119.798 129.697 120.236 132.392 120.615 135.099C120.658 135.405 120.731 135.714 120.843 135.998C120.881 136.101 121.088 136.204 121.2 136.191C121.32 136.174 121.488 136.036 121.518 135.92C121.578 135.701 121.574 135.456 121.561 135.224C121.492 134.055 121.479 132.877 121.329 131.721C120.95 128.764 119.888 126.057 118.087 123.671C117.111 122.373 115.868 121.359 114.402 120.663C113.172 120.083 111.9 120.637 111.538 121.875C111.831 122.043 112.162 122.18 112.433 122.386C113.146 122.937 113.211 124.17 112.592 124.793C112.003 125.382 111.259 125.292 110.554 124.54C109.823 123.757 109.483 122.842 109.586 121.759C109.874 118.785 113.172 117.13 115.632 118.755C116.337 119.219 117.059 119.584 117.915 119.511C119.381 119.382 120.443 120.057 121.096 121.269C121.681 122.356 122.176 123.525 122.524 124.707C123.358 127.552 124.08 130.428 124.859 133.286C124.936 133.565 125.069 133.832 125.194 134.158C125.779 133.784 125.899 133.239 126.05 132.723C126.544 131.017 126.652 129.259 126.544 127.501C126.385 124.892 126.144 122.288 125.921 119.683C125.667 116.73 125.258 113.773 126.037 110.834C126.075 110.692 126.041 110.533 126.041 110.391C123.569 109.721 110.489 109.596 108.911 110.21C108.649 112.175 108.692 144.808 108.941 145.573C110.666 143.979 112.308 142.264 114.157 140.803C116.014 139.316 118.074 138.099 120.198 136.668ZM63.3825 53.2808C62.3936 53.7965 62.3334 53.8266 61.8046 54.8796C59.8611 58.7219 58.8249 62.8436 58.3348 67.0856C57.9607 70.2961 57.8532 73.541 57.6769 76.773C57.5866 78.4492 57.5909 80.1296 57.5823 81.8058C57.578 82.8244 57.7801 83.0307 58.7776 83.151C59.1259 83.194 59.4785 83.1983 59.831 83.1897C61.8218 83.1639 63.6663 82.5536 65.4549 81.7456C67.2393 80.9419 68.5206 79.6225 69.2988 77.826C70.0813 76.0252 70.6231 74.1513 70.7435 72.1871C71.109 66.226 71.2766 60.2562 71.0574 54.2822C71.0015 52.8037 71.1219 51.321 71.1433 49.8382C71.1519 49.1333 71.3798 48.5058 71.9001 48.0589C73.233 46.9113 73.8392 45.4758 73.8392 43.7309C73.8392 43.1894 73.9811 42.6478 74.037 42.1063C74.0628 41.857 74.0413 41.6035 74.0413 41.1006C70.4597 43.5375 67.0759 45.8412 63.5588 48.2351C63.9759 48.4801 64.1951 48.6305 64.4316 48.7465C65.5323 49.2924 66.2504 50.1949 66.7663 51.278C67.1361 52.0516 67.1791 52.8639 66.9598 53.6762C66.7534 54.424 66.2074 54.8409 65.4549 54.9742C64.7799 55.0945 64.3456 54.7249 64.0017 54.2091C63.8039 53.9341 63.6147 53.6375 63.3825 53.2808ZM50.1354 57.1059C50.0752 57.0586 50.0193 57.0071 49.9591 56.9598C49.5807 57.2048 49.1981 57.4411 48.8283 57.6947C46.7129 59.1689 44.5502 60.5786 42.4992 62.1387C39.7346 64.2404 37.0086 66.3979 34.3471 68.6285C30.2625 72.0496 29.7723 78.8918 33.8828 82.9447C34.1021 83.1596 34.2354 83.4605 34.5105 83.8731C32.8767 84.1997 31.6986 83.7613 30.8816 82.6697C30.2367 81.8101 29.8196 80.7743 29.3252 79.8073C29.1575 79.4764 29.05 79.1153 28.9167 78.7715C28.7705 79.2744 28.7834 79.7342 28.8823 80.1769C29.6004 83.4949 31.2686 86.2541 33.7796 88.5191C35.8305 90.3672 38.2125 91.7038 40.6633 92.9287C40.8568 93.0276 41.0976 93.0362 41.4587 93.1221C41.4587 92.615 41.4544 92.1938 41.4587 91.7769C41.5275 87.0105 41.5963 82.2485 41.6737 77.4821C41.6823 76.9965 41.7769 76.5151 41.8285 76.0338C41.9317 76.0338 42.0306 76.0338 42.1338 76.0338C42.1811 76.5925 42.2671 77.1512 42.2628 77.7099C42.237 82.3989 42.194 87.0836 42.1596 91.7726C42.1553 92.2024 42.1424 92.6365 42.1811 93.062C42.2542 93.827 42.4046 93.9301 43.428 93.943C43.4494 93.5734 43.4881 93.1952 43.4967 92.8127C43.6386 87.8916 43.7848 82.9748 43.9095 78.0538C43.9525 76.3733 43.974 74.6928 43.9181 73.0167C43.8622 71.1815 43.802 69.3377 42.7099 67.7217C42.5852 67.5369 42.654 67.12 42.7744 66.8922C42.9335 66.5956 43.2173 66.3506 43.4881 66.1314C46.2141 63.9266 48.1575 61.1158 49.7441 58.0299C49.9204 57.7334 50.015 57.4153 50.1354 57.1059ZM57.1524 99.9514C57.0836 100.48 56.9632 101.009 56.9546 101.542C56.8987 104.352 56.8385 107.163 56.8428 109.978C56.8471 112.832 56.9761 115.677 57.5436 118.488C57.7758 119.636 57.7672 119.636 58.9539 119.803C59.7665 119.919 60.5749 120.044 61.3789 120.194C64.6681 120.8 67.7552 121.991 70.765 123.409C71.1691 123.598 71.5819 123.762 72.0764 123.972C72.674 121.131 73.1599 118.445 73.1513 115.703C73.1341 111.405 73.0825 107.112 73.0309 102.814C73.0266 102.449 72.9191 102.083 72.8417 101.602C72.1065 101.881 71.3497 101.615 70.9069 102.264C70.3866 103.024 69.6428 103.128 68.8387 103.067C68.2583 103.024 67.665 102.96 67.1017 102.81C64.8014 102.199 62.514 101.55 60.218 100.923C59.7063 100.781 59.1818 100.678 58.5411 100.527C58.3391 102.556 58.3606 104.464 58.3606 106.364C58.3606 108.276 58.3864 110.193 58.5024 112.102C58.6185 113.963 58.8636 115.815 59.07 117.835C58.8335 117.642 58.7561 117.607 58.726 117.547C58.6443 117.371 58.5712 117.19 58.511 117.005C57.9005 115.136 57.621 113.202 57.6167 111.242C57.6124 108.861 57.6812 106.476 57.7242 104.095C57.7457 103.003 57.7801 101.907 57.8016 100.815C57.8102 100.429 57.8317 100.007 57.1524 99.9514ZM97.9472 66.9738C97.1561 67.1071 96.6057 67.1286 96.107 67.3005C90.5218 69.2259 87.224 75.2 87.555 79.6698C87.6066 80.3703 87.727 80.9548 88.4149 81.2041C88.1957 81.4276 88.0108 81.6081 87.6539 81.9691C88.3848 82.1153 88.8664 82.2227 89.3523 82.3001C90.1606 82.4333 90.9775 82.5236 91.7773 82.6912C92.104 82.7599 92.4781 82.9147 92.6802 83.1553C93.0241 83.5636 93.2735 84.0665 93.5143 84.5479C93.5788 84.6768 93.5229 84.9132 93.4369 85.0507C93.3982 85.1152 93.1187 85.1152 93.0241 85.0421C92.6845 84.7842 92.3749 84.4834 92.0524 84.1997C90.999 83.2757 89.7736 82.9662 88.3762 83.0823C89.3652 87.5392 94.6838 90.956 97.8913 90.4188C97.9773 82.6998 98.1622 74.955 97.9472 66.9738ZM99.8132 90.5133C100.11 90.4918 100.346 90.5219 100.557 90.4531C103.799 89.4045 106.435 87.5908 107.991 84.4533C109.169 82.0766 109.629 79.5623 109.148 76.9492C108.309 72.3849 105.824 69.1185 101.396 67.4767C100.905 67.2962 100.364 67.2489 99.8648 67.1414C99.4564 68.4695 99.422 88.6394 99.8132 90.5133ZM59.1001 89.3701C59.0743 89.7655 59.0571 89.9847 59.0442 90.2039C58.8894 92.658 58.726 95.112 58.5798 97.5661C58.5583 97.9529 58.6099 98.344 58.6185 98.7351C58.6271 99.1907 58.8636 99.4529 59.2979 99.5518C59.9815 99.7108 60.6609 99.8913 61.3488 100.029C64.0576 100.588 66.7577 101.267 69.5697 100.824C70.6704 100.652 71.7797 100.527 72.9406 100.373C72.9879 98.7695 72.9535 97.3211 73.0911 95.8899C73.2244 94.5232 72.7643 93.4316 71.8657 92.4903C71.3325 91.9316 70.7521 91.3944 70.1157 90.956C66.5642 88.5105 62.6129 87.8185 58.395 88.3687C57.4146 88.4976 57.3888 88.5191 57.3544 89.5377C57.2642 92.1895 57.1868 94.8456 57.1094 97.4974C57.1008 97.8111 57.0664 98.1334 57.1395 98.43C57.1868 98.632 57.4017 98.791 57.5436 98.9672C57.6253 98.9414 57.7027 98.9157 57.7844 98.8899C57.8704 97.9701 57.9736 97.0504 58.0338 96.1263C58.1456 94.4502 58.223 92.774 58.3348 91.0978C58.3692 90.5133 58.3606 89.8772 59.1001 89.3701ZM33.814 101.778C33.6076 101.456 33.5259 101.279 33.4012 101.142C30.8343 98.2753 27.4763 97.1191 23.8131 97.4888C19.7499 97.8971 15.9748 99.2681 12.6426 101.873C7.60347 105.814 3.95309 110.675 1.94946 116.743C0.500486 121.131 0.874552 125.36 3.35544 129.327C3.60911 129.736 3.92729 130.11 4.21536 130.496C4.30565 130.462 4.40025 130.432 4.49054 130.398C4.43895 129.8 4.39595 129.199 4.33145 128.601C3.8456 124.196 4.20676 119.864 5.66864 115.673C7.81845 109.506 11.5849 104.739 17.7291 102.096C21.7363 100.373 25.8855 99.7323 30.1894 100.6C31.3417 100.841 32.4553 101.331 33.814 101.778ZM128.604 208.757C128.69 208.761 128.771 208.765 128.857 208.774C128.926 208.327 129.008 207.875 129.064 207.428C129.201 206.384 129.309 205.335 129.463 204.295C129.911 201.278 130.16 198.248 130.194 195.201C130.22 192.704 130.293 190.207 130.388 187.71C130.607 181.933 130.9 176.161 130.491 170.385C130.474 170.17 130.418 169.96 130.379 169.736C129.154 170.398 128.01 171.017 126.768 171.692C127.421 183.975 128.457 196.344 128.604 208.757ZM102.63 119.649C101.963 120.521 102.062 121.282 102.062 122.012C102.088 129.701 102.118 137.395 102.157 145.083C102.161 145.887 102.101 146.622 101.464 147.228C101.056 147.619 101.004 148.161 101.318 148.629C101.86 149.429 101.86 150.314 101.864 151.217C101.903 157.345 101.946 163.474 101.993 169.603C101.997 170.187 102.023 170.776 102.075 171.356C102.092 171.533 102.23 171.7 102.311 171.872C102.402 171.855 102.492 171.838 102.582 171.821C102.582 171.326 102.582 170.832 102.582 170.338C102.582 164.011 102.587 157.689 102.569 151.363C102.569 150.482 102.668 149.661 103.197 148.917C103.502 148.487 103.722 147.924 103.399 147.49C102.758 146.635 102.969 145.737 103.021 144.804C103.485 136.767 103.563 128.734 102.832 120.706C102.814 120.431 102.728 120.147 102.63 119.649ZM95.806 164.596C95.7243 164.583 95.6426 164.574 95.5609 164.561C95.3975 164.953 95.2299 165.344 95.0665 165.735C93.8669 168.67 92.3835 171.455 90.5605 174.051C89.9327 174.945 89.2964 175.835 88.7073 176.755C88.4278 177.193 87.8345 177.614 88.1484 178.19C88.4622 178.762 89.1545 178.714 89.7349 178.714C91.2183 178.71 92.7017 178.684 94.1807 178.641C95.5781 178.603 95.7114 178.465 95.7286 177.068C95.7802 173.166 95.8189 169.263 95.8576 165.361C95.8662 165.107 95.8275 164.849 95.806 164.596ZM126.359 166.56C126.484 166.624 126.604 166.689 126.729 166.753C126.961 166.444 127.193 166.139 127.421 165.825C130.745 161.295 129.915 155.583 126.94 152.072C126.69 151.78 126.385 151.526 126.071 151.294C125.878 151.152 125.628 151.096 125.258 150.941C125.633 156.258 125.994 161.411 126.359 166.56ZM51.1673 69.6643C51.0899 69.6557 51.0125 69.6471 50.9351 69.6385C50.8964 70.0812 50.8448 70.5196 50.8276 70.9623C50.6427 75.647 50.4707 80.3273 50.2816 85.012C50.1741 87.7455 50.0408 90.4746 49.9247 93.2038C49.8946 93.9688 49.6667 94.6393 49.1981 95.2625C48.4714 96.2209 48.4757 96.857 49.2926 97.7595C49.7527 98.2667 49.8989 98.7781 49.8817 99.4443C49.7312 105.496 49.6065 111.551 49.4775 117.603C49.4345 119.593 49.3872 121.587 49.3614 123.577C49.3571 123.994 49.4259 124.415 49.4646 124.836C49.5764 124.832 49.6882 124.828 49.8 124.823C49.8344 124.419 49.8817 124.02 49.8946 123.616C50.0623 117.994 50.2214 112.372 50.3934 106.751C50.4621 104.486 50.5481 102.221 50.6341 99.96C50.6642 99.1348 50.776 98.3569 51.3995 97.6951C52.2336 96.8011 52.225 95.5762 51.3135 94.794C50.6556 94.231 50.5223 93.6293 50.5524 92.8428C50.776 86.873 50.9867 80.8989 51.1716 74.9249C51.2146 73.1757 51.1673 71.4178 51.1673 69.6643ZM37.0172 60.4325C37.8384 59.5772 38.5307 58.7305 39.3562 58.0385C40.6375 56.9598 41.9747 55.9369 43.3463 54.9742C47.5255 52.0344 51.7305 49.1333 55.9227 46.2065C56.5762 45.7509 57.247 45.42 58.0768 45.4329C58.8679 45.4415 59.5602 45.1363 59.8912 44.3756C60.2223 43.6192 60.7769 43.112 61.4348 42.6693C64.3155 40.7353 67.1963 38.7969 70.077 36.8629C70.9972 36.244 71.9216 35.6251 72.8417 35.0062C71.8614 35.32 70.9714 35.7798 70.1329 36.3128C67.1103 38.2425 64.0963 40.1895 61.0908 42.145C60.4502 42.5619 59.8439 42.8928 59.027 42.6736C58.1456 42.4372 57.6769 42.6049 57.3028 43.4043C56.86 44.3498 56.1162 44.9214 55.2906 45.4544C49.8387 48.9614 44.6963 52.8983 39.5497 56.8265C38.8403 57.3681 38.2039 58.0128 37.5719 58.6446C37.1118 59.0958 36.8194 59.6417 37.0172 60.4325ZM137.349 156.116C137.242 156.116 137.138 156.116 137.031 156.116C136.962 156.795 136.833 157.47 136.833 158.149C136.829 163.732 136.846 169.319 136.863 174.902C136.867 175.654 136.859 176.376 136.283 176.978C135.952 177.326 135.939 177.799 136.261 178.156C136.992 178.964 136.958 179.944 136.962 180.919C136.988 185.995 137.009 191.071 137.039 196.151C137.039 196.482 137.078 196.813 137.1 197.144C137.177 197.152 137.259 197.157 137.336 197.165C137.375 196.727 137.439 196.288 137.444 195.85C137.487 190.813 137.525 185.776 137.56 180.734C137.564 179.862 137.611 179.05 138.364 178.396C138.867 177.958 138.88 177.154 138.394 176.849C137.684 176.406 137.714 175.796 137.706 175.13C137.624 169.195 137.534 163.259 137.444 157.324C137.431 156.92 137.379 156.52 137.349 156.116ZM110.807 156.752C112.059 150.89 115.012 147.009 120.993 146.171C121.187 144.976 121.092 143.919 120.705 142.801C120.37 142.926 120.077 143.008 119.811 143.145C118.143 144.009 116.586 145.04 115.227 146.351C112.949 148.543 111.457 151.191 110.7 154.251C110.519 154.99 110.463 155.742 110.807 156.752ZM9.15993 120.139C8.44619 122.21 8.03773 124.342 7.92164 126.53C7.75395 129.727 8.29141 132.839 9.18143 135.89C10.093 139.015 11.2882 142.01 13.3306 144.615C14.8268 146.523 16.7789 147.886 18.6664 149.338C18.8169 149.454 19.0233 149.588 19.1867 149.57C19.4618 149.545 19.7241 149.403 19.995 149.308C19.9004 149.076 19.866 148.762 19.694 148.629C19.1394 148.199 18.5503 147.808 17.9484 147.452C15.5707 146.046 13.7433 144.108 12.346 141.744C9.78338 137.412 8.57088 132.693 8.3946 127.69C8.30431 125.141 8.69127 122.64 9.15993 120.139ZM45.7713 137.111C45.6896 137.068 45.6122 137.029 45.5305 136.986C45.2467 137.442 44.9543 137.893 44.6748 138.357C42.6368 141.744 40.3408 144.942 37.5418 147.752C35.5639 149.734 33.2292 151.105 30.4474 151.582C28.504 151.917 26.5562 152.046 24.7805 150.89C24.6859 150.825 24.5612 150.739 24.4666 150.752C24.2172 150.787 23.869 150.8 23.7572 150.963C23.6583 151.1 23.7486 151.526 23.8991 151.651C24.2473 151.943 24.6644 152.27 25.09 152.338C26.3154 152.536 27.5709 152.785 28.792 152.704C32.4123 152.459 35.4521 150.864 37.933 148.247C40.3795 145.659 42.5465 142.849 44.3352 139.763C44.8425 138.895 45.294 137.996 45.7713 137.111ZM79.6222 90.7239C79.476 90.7196 79.3298 90.7153 79.1836 90.7153C79.1535 91.2783 79.102 91.8457 79.0934 92.4087C79.0117 97.4802 78.9343 102.552 78.8698 107.623C78.8612 108.148 78.7924 108.569 78.3882 108.986C77.6874 109.699 77.6444 110.198 78.2592 110.937C78.6806 111.444 78.7365 111.96 78.7408 112.553C78.7709 115.364 78.8096 118.17 78.8612 120.977C78.8784 121.948 78.9386 122.924 78.9773 123.895C79.1364 120.263 79.2094 116.64 79.2696 113.013C79.2825 112.183 79.3427 111.431 80.0135 110.778C80.538 110.271 80.538 109.647 79.9963 109.231C79.1321 108.564 79.1922 107.726 79.2223 106.815C79.3685 101.903 79.4932 96.9902 79.6265 92.0734C79.6308 91.6264 79.6222 91.1752 79.6222 90.7239ZM99.7058 114.225C100.712 113.842 104.977 110.563 105.687 109.613C103.73 109.437 101.894 109.321 100.071 109.806C99.8906 109.854 99.6542 110.103 99.637 110.279C99.5123 111.586 99.465 112.892 99.7058 114.225ZM74.9442 52.8983C74.8797 52.8983 74.8195 52.8983 74.755 52.894C74.7378 53.2636 74.7077 53.6289 74.7077 53.9985C74.6948 55.7951 74.6905 57.5916 74.6733 59.3881C74.6647 60.3766 74.5229 61.3307 73.8779 62.1473C73.4006 62.7533 73.4222 63.4195 73.9123 63.9739C74.4885 64.6229 74.5444 65.3664 74.5315 66.1572C74.4885 68.6586 74.4584 71.1557 74.4326 73.657C74.4283 73.9364 74.4713 74.2157 74.4928 74.4951C74.7765 73.5754 74.884 72.6556 74.9012 71.7316C74.9399 69.7803 74.9485 67.8248 74.9442 65.8736C74.9442 65.2934 75.0732 64.8765 75.5978 64.4983C76.4878 63.8622 76.6598 62.6931 75.8686 61.9539C75.0044 61.1502 74.9141 60.2434 74.9399 59.2033C74.97 58.0342 74.9442 56.8609 74.9442 55.6876C74.9442 54.7636 74.9442 53.8309 74.9442 52.8983ZM132.757 128.219C132.83 128.21 132.899 128.206 132.972 128.197C132.989 127.866 133.015 127.535 133.019 127.2C133.036 125.562 133.036 123.925 133.067 122.288C133.075 121.785 133.075 121.252 133.23 120.783C133.535 119.859 133.643 118.991 133.196 118.071C133.036 117.745 133.067 117.311 133.054 116.919C133.036 116.111 133.049 115.299 133.049 114.491C132.873 114.796 132.869 115.11 132.817 115.411C132.611 116.666 132.899 117.998 132.22 119.184C132.134 119.335 132.271 119.619 132.318 119.838C132.443 120.439 132.671 121.033 132.684 121.634C132.727 123.465 132.684 125.3 132.688 127.136C132.684 127.501 132.731 127.858 132.757 128.219ZM122.421 151.058C122.219 152.119 122.821 167.157 123.061 168.176C123.091 168.301 123.212 168.408 123.289 168.52C123.367 168.503 123.444 168.485 123.517 168.468C123.263 162.666 122.821 156.873 122.421 151.058ZM34.6739 106.158C34.9663 106.407 35.263 106.652 35.5553 106.901C36.8882 108.036 37.5848 109.454 37.3999 111.225C37.2795 112.385 37.1935 113.563 36.4368 114.543C36.2261 114.818 36.11 115.166 36.4755 115.329C36.6861 115.424 37.1333 115.342 37.2666 115.175C37.5461 114.826 37.7954 114.384 37.8599 113.95C37.9889 113.069 38.0319 112.166 38.0276 111.272C38.0104 108.891 36.9613 107.12 34.6739 106.158ZM98.0676 186.008C97.8053 185.767 97.7107 185.604 97.5989 185.591C94.1592 185.26 90.7109 185.071 87.1208 185.256C87.8302 185.587 96.4466 186.163 98.0676 186.008ZM112.377 102.874C108.752 101.907 103.67 102.543 101.911 104.89C102.2 104.739 102.367 104.671 102.518 104.567C104.418 103.261 106.508 102.715 108.812 102.861C109.99 102.934 111.186 102.874 112.377 102.874ZM109.217 186.292C106.835 185.883 100.931 185.643 99.968 185.913C101.292 186.42 107.97 186.691 109.217 186.292ZM133.746 102.04C133.707 101.963 133.669 101.885 133.626 101.804C133.221 102.006 132.809 102.199 132.409 102.406C131.527 102.865 130.59 103.11 129.601 103.097C126.682 103.059 123.766 103.003 120.847 102.951C120.632 102.947 120.421 102.951 120.206 102.951C120.559 103.183 120.929 103.287 121.303 103.299C124.145 103.381 126.983 103.476 129.825 103.497C131.304 103.51 132.611 102.96 133.746 102.04ZM122.511 146.042C122.575 144.765 122.55 143.532 122.141 142.281C121.492 142.737 121.492 142.737 121.78 145.169C121.832 145.548 121.716 146.068 122.511 146.042ZM63.3739 126.28C61.8175 125.605 58.7819 125.764 57.8575 126.581C59.6934 126.478 61.4778 126.383 63.3739 126.28ZM118.869 103.08C118.895 102.668 118.521 102.32 118.048 102.307C117.528 102.294 117.115 102.646 117.111 103.102C117.106 103.553 117.446 103.884 117.915 103.888C118.405 103.897 118.843 103.523 118.869 103.08ZM58.4079 121.028C58.3305 121.626 58.4681 121.901 58.9109 121.926C60.0589 121.995 61.2112 122.047 62.3635 122.107C62.3764 122.034 62.3893 121.957 62.4065 121.884C61.1037 121.604 59.8052 121.325 58.4079 121.028ZM28.663 103.97C27.0593 103.807 25.3308 104.107 24.0495 104.834C25.6705 104.529 27.1496 104.249 28.663 103.97ZM78.6247 127.2C78.7709 127.2 78.9171 127.2 79.0676 127.2C79.0332 126.603 78.9988 126.001 78.9644 125.403C78.8956 125.408 78.8311 125.408 78.7623 125.412C78.715 126.009 78.672 126.607 78.6247 127.2Z" fill="white"/>
</svg>
