<svg width="105" height="138" viewBox="0 0 105 138" fill="none" xmlns="http://www.w3.org/2000/svg">
<path d="M46.1882 17.6529C45.9639 17.8095 45.7453 17.9741 45.5124 18.1203C41.4579 20.6794 37.4005 23.2334 33.3517 25.7951C30.8615 27.3698 28.4461 29.028 26.2606 30.9473C26.0594 31.1249 25.8638 31.3103 25.6654 31.4931C25.6999 31.5375 25.7315 31.5819 25.7661 31.6263C25.9875 31.4957 26.2118 31.373 26.4245 31.2346C32.2274 27.5108 38.0216 23.7765 43.8302 20.0605C45.7741 18.8175 47.7525 17.6215 49.6992 16.3837C51.8731 15.0023 53.354 13.1561 54.0672 10.8241C54.4122 9.70124 54.5215 8.58357 53.8601 7.50769C53.8112 7.42673 53.7509 7.32489 53.7624 7.24133C53.7911 6.99325 53.7681 6.68249 53.9234 6.52059C54.1621 6.27251 54.4698 6.50753 54.6797 6.65899C55.574 7.304 56.1836 8.11875 56.2411 9.18157C56.2727 9.7613 56.4309 10.2888 56.6322 10.8346C57.3971 12.9237 56.9542 14.8091 55.3238 16.4386C54.9442 16.8172 54.7659 17.2141 54.7861 17.7208C54.8091 18.29 54.8349 18.8645 54.7659 19.426C54.6509 20.3817 54.1534 21.1913 53.377 21.8337C52.7646 22.3403 52.4109 22.92 52.3792 23.6825C52.3505 24.3562 52.2527 25.03 52.1722 25.8421C52.5345 25.6489 52.7588 25.5444 52.9687 25.4191C53.5553 25.0639 54.1276 24.6879 54.7228 24.3458C55.3267 23.9985 55.988 23.7896 56.7155 23.787C57.1296 23.787 57.4862 23.8992 57.7853 24.1578C58.0268 24.3667 58.1792 24.6148 58.0498 24.9229C57.9175 25.2389 57.6242 25.3146 57.2849 25.2859C57.1584 25.2754 57.0347 25.2598 56.8191 25.2363C56.4798 26.0641 56.0887 26.8658 55.8241 27.7014C55.2318 29.592 54.5848 31.4853 54.4583 33.4621C54.3547 35.0942 54.3662 36.7315 54.3404 38.3688C54.3317 38.9616 54.3634 39.5544 54.3749 40.1498C54.3777 40.3169 54.3576 40.4841 54.3777 40.6486C54.4065 40.8888 54.2225 40.8314 54.0816 40.8653C54.0528 40.8731 54.0557 41.0455 54.0758 41.1343C54.3145 42.1762 54.5244 43.226 54.8234 44.2549C54.9471 44.6831 54.9212 44.9808 54.5445 45.2602C54.3231 45.4248 54.1362 45.6284 53.9148 45.7956C52.0514 47.2031 50.8609 49.0859 49.5641 50.893C49.5123 50.9661 49.4979 51.0653 49.4404 51.2272C50.5072 51.5432 51.5626 51.8331 52.6524 51.645C53.5668 51.4857 54.4554 51.1881 55.3324 50.8904C56.2066 50.5927 57.0491 50.2192 57.9578 49.8589C58.0124 49.5089 57.7738 49.4175 57.3971 49.5089C56.7932 49.6526 56.1807 49.7857 55.5912 49.9738C54.904 50.1931 54.2455 50.4986 53.5553 50.7076C53.0176 50.8721 52.4511 50.9739 51.8875 51.0496C51.6258 51.0836 51.344 50.9922 51.0709 50.9556C51.0766 50.9112 51.0795 50.8642 51.0852 50.8198C51.2089 50.8198 51.3354 50.8303 51.4591 50.8172C51.922 50.7702 52.3994 50.7676 52.8393 50.6527C53.5151 50.4751 54.1592 50.2062 54.8234 49.992C55.7781 49.6839 56.7386 49.3888 57.7824 49.0624C57.7824 48.8718 57.791 48.6394 57.7795 48.4069C57.7105 46.942 58.1648 45.5841 58.8808 44.3045C60.1173 42.09 62.1503 40.7844 64.7843 40.2177C64.9626 40.1785 65.138 40.1472 65.3163 40.108C65.3393 40.1028 65.3566 40.0793 65.4515 40.0062C65.4687 39.792 65.5118 39.5152 65.5118 39.2384C65.5176 30.4799 65.5176 21.7214 65.5234 12.9628C65.5234 12.169 65.3853 11.4038 65.0719 10.6648C64.6779 9.73518 64.2984 8.80031 63.8498 7.89417C63.5421 7.27266 63.545 6.71644 63.9361 6.13933C64.9827 4.59601 65.3077 2.88034 65.3681 1.102C65.3796 0.723349 65.2559 0.287251 65.6959 0C66.0726 0.0966206 66.0697 0.38126 66.1186 0.626729C66.2681 1.34747 66.4061 2.07343 66.5557 2.79417C66.8116 4.03718 67.2142 5.2358 67.8382 6.36652C68.1257 6.88618 68.1947 7.39017 67.9474 7.93856C67.7605 8.35377 67.6628 8.80554 67.4672 9.21552C66.8058 10.5969 66.6937 12.041 66.6937 13.5295C66.6995 21.9094 66.6592 30.2867 66.6333 38.6665C66.6333 39.1392 66.6333 39.6119 66.6333 40.0976C66.895 40.1837 67.0819 40.2647 67.2774 40.3091C70.846 41.1082 72.7784 43.3304 73.6238 46.4354C74.6935 50.3603 71.8294 53.6819 68.8475 54.9275C68.1401 55.2226 67.404 55.4681 66.6764 55.7397C66.6764 57.693 66.6764 59.6254 66.6764 61.6492C66.9065 61.5369 67.0675 61.4821 67.1969 61.3907C67.588 61.1113 67.9877 60.8423 68.3414 60.5263C69.575 59.4295 71.0789 59.0013 72.7669 59.0196C75.7948 59.0535 78.8256 59.1031 81.8536 59.1318C83.993 59.1527 86.1381 59.2311 88.2718 59.1292C90.2214 59.0378 92.1624 58.7532 94.1005 58.5234C94.4485 58.4816 94.828 58.3458 95.0983 58.1473C95.685 57.7191 96.3003 57.2856 96.746 56.7477C98.2126 54.9876 99.2506 53.0291 99.6992 50.8407C99.7884 50.3994 99.8401 49.9477 99.8545 49.5011C99.8976 48.1824 99.127 47.3493 97.6835 47.1639C96.5907 47.0229 95.5929 47.1822 94.9028 48.0831C94.8597 48.138 94.7878 48.1771 94.7245 48.2189C94.7044 48.232 94.6785 48.2372 94.5951 48.2659C94.2156 48.0857 94.2932 47.8168 94.4657 47.5243C95.0437 46.545 96.2687 45.994 97.5109 46.1925C98.4196 46.3387 99.1787 46.7017 99.6705 47.4616C99.9063 47.8246 100.214 48.1562 100.519 48.4774C101.033 49.018 101.324 49.6343 101.393 50.342C101.554 52.0289 101.146 53.5931 100.179 55.0398C99.426 56.1679 98.4742 57.1367 97.3499 57.9698C96.8438 58.3432 96.3176 58.6957 95.8144 59.0744C95.5613 59.265 95.3428 59.4922 95.061 59.7481C96.3923 60.2573 97.2838 61.0407 97.7841 62.1584C97.7467 62.208 97.7065 62.2576 97.6691 62.3073C97.3988 62.1898 97.1227 62.0827 96.8611 61.9521C96.3837 61.7119 95.8776 61.6387 95.3456 61.7171C94.8597 61.7876 94.46 61.9913 94.1983 62.3856C93.3443 63.6626 92.7404 65.0231 92.7404 66.5377C92.7404 68.5537 92.795 70.5722 92.8382 72.5882C92.8698 74.1524 93.0308 75.7245 92.5938 77.2626C92.4327 77.8345 92.2228 78.4011 91.9669 78.9443C91.4723 79.9862 90.6643 80.7696 89.4968 81.2162C88.8785 81.4538 88.3839 81.822 87.9785 82.3051C87.0353 83.4358 85.8851 84.3629 84.5135 85.0392C83.993 85.2951 83.7284 85.632 83.7313 86.1595C83.7342 86.9873 83.7313 87.8151 83.7313 88.7134C85.3704 89.0999 86.7593 89.8964 87.8433 91.1707C87.9814 91.0193 88.0791 90.9435 88.1367 90.8443C88.8814 89.5908 90.0144 88.6899 91.3458 87.9953C92.6628 87.3085 93.9021 86.5329 95.0926 85.6712C97.0681 84.2402 99.9408 84.3394 101.899 85.807C102.753 86.4468 102.914 87.3216 103.041 88.2173C103.081 88.4993 102.799 88.7369 102.514 88.7317C102.201 88.7265 102.051 88.5463 102.008 88.2825C101.994 88.1885 101.991 88.0945 101.988 87.9979C101.945 86.6583 101.085 85.7286 99.5784 85.4127C99.4347 85.726 99.6417 86.2196 99.0062 86.3397C98.9401 86.2901 98.8509 86.2143 98.7532 86.1464C98.3592 85.8696 98.1321 85.8514 97.8157 86.1935C97.5167 86.5173 97.2608 86.8829 97.0422 87.2563C96.4096 88.3478 96.2227 89.5543 96.0847 90.7555C95.9668 91.7661 95.8719 92.7872 95.8747 93.803C95.9035 101.209 95.9581 108.615 96.0185 116.021C96.0243 116.681 96.0933 117.347 96.1853 118.003C96.3118 118.89 96.6971 119.687 97.3441 120.376C97.5052 120.549 97.6231 120.752 97.7352 120.904C97.5311 121.254 97.2809 121.123 97.0652 121.089C96.631 121.019 96.2543 121.081 95.8805 121.314C92.9992 123.097 90.5406 125.26 88.5651 127.879C87.6018 129.156 87.2337 130.542 87.4264 132.062C87.458 132.318 87.5242 132.577 87.6133 132.822C87.7456 133.188 88.0188 133.42 88.4558 133.475C88.66 133.501 88.8642 133.553 89.0626 133.608C89.3933 133.699 89.5888 133.901 89.6291 134.222C89.6722 134.561 89.4824 134.757 89.1632 134.88C89.0913 134.906 89.0223 134.942 88.8785 135.008C89.0281 135.159 89.1373 135.319 89.2926 135.418C90.647 136.298 92.1279 136.75 93.79 136.358C94.7447 136.133 95.6735 135.809 96.608 135.52C96.9531 135.413 97.2809 135.261 97.6231 135.144C98.0832 134.989 98.5548 134.958 98.9803 135.211C99.2765 135.389 99.5123 135.334 99.7654 135.17C101.629 133.955 103.205 132.54 103.831 130.451C103.935 130.109 103.99 129.756 104.044 129.406C104.165 128.641 103.923 128.007 103.225 127.524C102.997 127.367 102.819 127.155 102.624 126.965C102.454 126.798 102.336 126.607 102.5 126.39C102.69 126.137 102.943 126.213 103.199 126.309C104.059 126.633 104.585 127.215 104.821 128.022C105.097 128.965 105.042 129.9 104.74 130.83C104.461 131.681 104.018 132.454 103.429 133.162C101.488 135.499 98.9171 136.951 95.7827 137.536C94.9833 137.684 94.0919 137.687 93.2982 137.53C92.1078 137.293 90.9317 136.93 89.8131 136.488C87.7341 135.663 86.2819 134.23 85.4308 132.323C84.5307 130.302 84.0936 128.2 84.1051 126.006C84.1138 124.205 84.0304 122.403 83.9326 120.603C83.8291 118.708 83.6508 116.817 83.5156 114.924C83.3 111.871 83.0929 108.816 82.883 105.763C82.8456 105.22 82.8025 104.674 82.7507 104.131C82.7421 104.029 82.676 103.93 82.5552 103.838C82.3079 105.264 82.5926 106.682 82.5983 108.098C82.6041 109.568 82.63 111.041 82.6875 112.511C82.7421 113.958 82.8341 115.402 82.9348 116.846C83.0354 118.279 83.2195 119.71 83.0671 121.16C82.9635 120.366 82.8456 119.575 82.7623 118.781C82.5006 116.303 82.213 113.83 82.2073 111.33C82.2015 108.936 82.0089 106.541 81.9283 104.147C81.9111 103.671 81.7271 103.397 81.2296 103.254C79.1764 102.661 77.1463 102.465 75.1651 103.473C74.9034 103.606 74.6216 103.708 74.3082 103.752C75.0702 102.917 75.9673 102.248 77.1866 102.144C78.0061 102.076 78.8486 102.152 79.6739 102.225C80.3152 102.282 80.9449 102.439 81.6897 102.569C81.8363 101.282 81.6178 100.068 81.6034 98.856C81.589 97.6469 81.5114 96.4378 81.4481 95.2288C81.382 94.0014 81.2986 92.7741 81.2181 91.5206C80.4446 91.4214 79.8666 91.6721 79.3375 92.022C78.0837 92.8472 77.5316 94.0119 77.4195 95.3802C77.3591 96.114 77.3045 96.8478 77.2383 97.579C77.2182 97.814 77.1866 98.0517 77.1348 98.2815C76.738 99.9763 75.1938 100.681 73.4541 99.9684C73.2183 99.8718 72.9912 99.7543 72.6461 99.5924C72.6116 99.8483 72.5684 100.039 72.5627 100.232C72.5253 101.822 72.4707 103.413 72.4735 105.003C72.4735 105.76 72.1802 106.301 71.4844 106.734C70.6073 107.28 69.7907 107.907 68.9309 108.508C69.1667 108.808 69.4485 108.696 69.6843 108.696C71.6166 108.696 73.5519 108.667 75.4842 108.68C76.0536 108.685 76.6345 108.75 77.1866 108.876C78.5841 109.192 79.1879 110.116 78.7048 111.357C78.4029 112.127 77.9687 112.889 77.4281 113.542C76.2836 114.924 75.0328 116.235 73.8136 117.566C73.6554 117.739 73.4397 117.869 73.1464 118.102C73.0199 117.812 72.9279 117.634 72.8617 117.449C72.6691 116.903 72.4189 116.699 71.792 116.694C70.2508 116.681 68.7095 116.692 67.171 116.694C66.8662 116.694 66.5844 116.733 66.6304 117.217C67.4241 117.29 68.2292 117.365 69.0344 117.438C68.2666 117.739 67.4586 117.566 66.6304 117.7C66.6304 117.519 66.6017 117.872 66.6304 117.7H65.5147C65.5147 118.05 65.5147 117.418 65.5147 117.7C65.1697 117.642 64.8735 117.553 64.5773 117.553C61.9145 117.564 59.2518 117.587 56.589 117.611C55.9104 117.616 55.2289 117.653 54.5531 117.634C54.0039 117.619 53.4834 117.501 53.0722 116.937C53.3512 117.013 53.5122 117.073 53.6761 117.099C54.211 117.183 54.7516 117.324 55.2864 117.321C58.4466 117.297 61.604 117.24 64.7642 117.188C64.9971 117.183 65.23 117.115 65.5147 117.068C65.3393 116.639 65.0259 116.694 64.7585 116.692C63.6341 116.673 62.5127 116.663 61.3883 116.647C59.1425 116.616 56.8967 116.577 54.6509 116.553C54.1017 116.548 53.6301 116.391 53.2045 116.088C53.0234 115.96 52.8364 115.838 52.5863 115.668C52.1664 116.462 52.3303 117.188 52.6783 117.88C52.9572 118.439 53.331 118.961 53.6502 119.504C53.7969 119.755 53.9637 120.008 54.0327 120.28C54.0787 120.457 54.0355 120.75 53.9033 120.844C53.7652 120.94 53.4288 120.927 53.2649 120.836C53.0119 120.695 52.7358 120.481 52.6323 120.24C52.1952 119.227 51.784 118.201 51.4389 117.159C51.3239 116.814 51.3555 116.389 51.4648 116.036C51.6603 115.402 51.8731 114.746 52.247 114.19C53.1412 112.853 54.1189 111.563 55.0851 110.265C56.6667 108.145 58.3115 106.061 59.8499 103.914C61.5292 101.577 62.527 98.9865 62.921 96.2185C63.151 94.5942 62.9584 92.9935 62.2826 91.4632C61.512 89.7162 60.333 88.2225 58.7773 86.9769C58.6077 86.8411 58.4121 86.734 58.1562 86.5669C58.1476 87.1649 58.4495 87.5488 58.7399 87.9352C59.2978 88.6769 59.8557 89.4185 60.4135 90.1601C60.4883 90.2567 60.5487 90.3716 60.6464 90.4448C61.4573 91.0558 61.6529 91.9176 61.8082 92.7898C61.9117 93.3721 61.6902 93.9153 61.4027 94.4271C61.3509 94.5185 61.1554 94.542 61.0289 94.5968C60.9742 94.4819 60.8448 94.3435 60.8765 94.2548C61.2503 93.2154 60.8909 92.2623 60.3704 91.3822C59.1023 89.2383 57.6271 87.2328 55.3899 85.7887C54.3892 85.1437 53.4403 84.4334 52.4339 83.791C51.1456 82.971 49.7912 82.2868 48.2068 82.0074C46.2773 81.668 44.5232 81.963 42.9187 82.9789C42.427 83.2896 41.964 83.6395 41.501 83.9868C40.8569 84.4726 40.5636 85.1097 40.5866 85.8696C40.5952 86.1464 40.5866 86.4259 40.5866 86.6844C40.0661 86.8385 39.8649 86.6426 39.7498 86.2979C39.5715 85.76 39.7182 85.2586 39.9885 84.7885C40.207 84.4099 40.4601 84.0756 40.3508 83.5951C40.2732 83.2661 40.5866 83.0441 40.854 82.8431C42.5909 81.5426 44.5664 80.8454 46.8352 80.8976C47.0336 80.9028 47.2349 80.8976 47.4448 80.848C47.0365 80.5686 46.5476 80.5372 46.0732 80.4954C43.6548 80.2865 41.4033 80.767 39.3041 81.8586C37.527 82.7804 36.095 84.0469 34.8758 85.5249C33.4006 87.3137 32.1009 89.2018 31.0024 91.2047C29.9989 93.0405 28.5985 94.589 26.8588 95.8816C26.1945 96.3752 25.4727 96.7826 24.6072 96.981C24.7337 96.8922 24.8574 96.8008 24.9897 96.7173C27.3965 95.2366 29.2886 93.3538 30.5682 90.9644C31.7271 88.8022 33.1217 86.7732 34.7694 84.8878C36.6184 82.7726 38.867 81.164 41.7771 80.4432C42.6254 80.2343 43.5168 80.1638 44.391 80.0332C44.6613 79.9941 44.9316 79.968 45.1932 79.8687C42.404 79.2759 39.6521 79.289 36.9577 80.2291C36.1439 80.5137 35.5832 81.0177 35.1777 81.7411C33.5645 84.6292 31.6149 87.3216 29.2685 89.7684C27.0888 92.0455 24.4519 93.6724 21.2198 94.4689C19.5491 94.8789 17.9158 94.8136 16.3084 94.2286C15.6585 93.991 15.4112 94.0902 15.0978 94.6908C14.7987 95.2627 14.9109 95.832 15.4457 96.0514C15.8914 96.2342 16.3889 96.3177 16.8662 96.4326C17.3206 96.5423 17.7835 96.6128 18.2292 96.7434C18.4708 96.8139 18.7095 96.9445 18.8964 97.1038C19.3277 97.4693 19.1897 98.1065 18.6203 98.2371C18.2321 98.3259 17.7778 98.3311 17.3896 98.2423C16.3659 98.0047 15.4457 97.5555 14.6578 96.9053C13.6514 96.0749 13.66 94.9676 14.6664 94.1189C14.8361 93.9753 15.0086 93.8343 15.2013 93.675C14.5198 93.0379 13.8814 92.4738 12.8922 92.2492C11.187 91.8601 9.76364 90.9696 8.50415 89.8624C6.32448 87.9457 4.75731 85.6738 3.76812 83.0729C3.68186 82.8483 3.58984 82.6263 3.51507 82.3991C3.12112 81.2136 2.57477 80.1037 1.82713 79.054C0.901202 77.7535 0.254204 76.3303 0.0586669 74.7609C-0.0851104 73.6093 0.0414148 72.4838 0.372103 71.3792C1.64022 67.1409 4.33461 63.7879 8.14758 61.1478C9.58535 60.1503 11.1008 59.265 12.9181 58.9334C14.5313 58.6383 16.1387 58.3301 17.8037 58.5391C19.9805 58.8106 21.723 59.7795 23.1407 61.2627C23.342 61.4742 23.5202 61.7301 23.6123 61.9939C23.8164 62.5841 24.1989 63.0254 24.7136 63.4223C25.7143 64.1927 26.2261 65.2346 26.413 66.3888C26.6086 67.5953 26.6 68.8017 26.0507 69.956C25.8236 70.4338 25.5101 70.8334 24.9379 70.9848C24.6705 71.0553 24.3685 71.105 24.0954 71.0736C23.1781 70.9692 22.8272 70.1518 23.3995 69.4833C23.5116 69.3527 23.641 69.23 23.7906 69.136C24.3369 68.7965 24.3858 68.3265 24.2248 67.8094C23.9343 66.8772 23.3535 66.1381 22.4017 65.6785C20.2594 64.6471 18.0395 64.4251 15.7534 65.2346C13.5824 66.0023 11.9174 67.2871 10.7931 69.1725C8.74282 72.6143 7.94054 76.2807 8.31149 80.1638C8.4984 82.1197 9.09651 83.9816 10.1001 85.7286C10.5429 86.4964 11.1094 87.1675 11.8858 87.6819C12.6449 88.1833 13.3638 88.7448 14.169 89.1809C15.6499 89.9826 17.2573 90.4996 19.0085 90.3377C19.7475 90.2698 20.4952 90.0687 21.1796 89.7971C23.0285 89.0633 24.4289 87.8334 25.5015 86.2953C27.0025 84.1383 27.8681 81.7672 28.354 79.2655C28.6876 77.5446 28.5496 75.808 28.6157 74.0819C28.7681 70.0735 28.8371 66.0624 28.9349 62.054C28.9665 60.8188 28.9924 59.5862 29.0097 58.351C29.0183 57.8079 28.9982 57.7974 28.285 57.7191C28.2591 57.9175 28.2131 58.1186 28.2103 58.3197C28.1528 63.9681 28.1039 69.6165 28.0435 75.2675C28.0406 75.5469 28.1786 75.8968 27.7358 76.077C27.4367 75.8994 27.4914 75.6279 27.4943 75.3798C27.5489 71.3452 27.6093 67.3106 27.6668 63.2761C27.6927 61.4481 27.707 59.6202 27.7243 57.7922C27.7243 57.6512 27.7099 57.5102 27.6984 57.3195C27.0342 56.9722 26.3498 56.6328 25.6855 56.2593C24.6417 55.6744 23.5663 55.1234 22.5914 54.4549C20.5527 53.0552 19.1178 51.2325 18.488 48.9658C17.7203 46.2056 18.35 43.6464 20.0926 41.3145C20.5354 40.7217 20.7684 40.1341 20.8259 39.4134C20.9553 37.7552 21.6828 36.2667 22.4879 34.7834C24.1241 31.7647 26.83 29.6573 29.6337 27.6204C30.6113 26.9102 31.6264 26.2338 32.6616 25.594C36.4401 23.2621 40.2329 20.9458 44.0286 18.6347C44.69 18.23 45.3888 17.8722 46.0674 17.4936C46.0962 17.5458 46.1422 17.598 46.1882 17.6529ZM62.1475 68.081C61.9951 68.2742 61.8657 68.4126 61.7679 68.5667C60.8506 70.0212 60.2007 71.5593 59.939 73.228C59.6975 74.7583 60.0656 76.1501 60.9886 77.4297C61.1324 77.6282 61.3509 77.7822 61.5896 78.0094C61.7621 77.7483 61.8657 77.589 61.9692 77.4297C62.0871 77.2443 62.1676 77.0302 62.3257 76.8813C62.4523 76.7612 62.6909 76.6332 62.8347 76.6672C62.9842 76.7037 63.0993 76.9179 63.1855 77.0772C63.2373 77.1738 63.2229 77.3122 63.2028 77.4245C63.1165 77.9807 62.8261 78.4298 62.2222 78.6074C61.5781 78.7954 60.9541 78.6858 60.517 78.1896C59.7723 77.3461 59.1828 76.4113 59.0764 75.3145C58.8693 73.1392 59.2633 71.0632 60.4394 69.1282C61.6816 67.0835 63.0964 65.151 64.9224 63.4928C65.3652 63.0907 65.5377 62.6546 65.5291 62.0957C65.5032 60.2443 65.5176 58.3928 65.509 56.5414C65.509 56.2828 65.4802 56.0243 65.463 55.7841C65.3508 55.7318 65.2876 55.6874 65.2157 55.6692C65.0661 55.63 64.9137 55.596 64.7585 55.5725C61.926 55.1678 59.9592 53.7237 58.7083 51.4205C58.5962 51.2142 58.4754 51.0131 58.3747 50.8407C57.7651 50.8355 57.4488 51.081 57.3424 51.5301C57.167 52.2665 56.8996 53.0082 56.8737 53.7524C56.8018 55.7449 56.8363 57.74 56.8363 59.7324C56.8363 59.9622 56.8708 60.1947 56.891 60.4532C57.7076 60.5811 58.4725 60.7091 59.2374 60.8214C60.1058 60.9493 60.8132 61.3384 61.3423 61.9599C61.9002 62.6154 62.4034 63.31 62.921 63.9942C63.0245 64.13 63.105 64.2841 63.1597 64.4408C63.2718 64.7672 63.0906 65.0205 62.7197 65.0361C62.3257 65.0544 61.9979 64.9134 61.8168 64.5818C61.6788 64.3285 61.5752 64.0569 61.4458 63.7984C60.6838 62.2681 58.645 61.2392 56.8795 61.5186C56.8536 61.6649 56.8076 61.8242 56.8018 61.9861C56.7702 62.7695 56.7414 63.5529 56.7213 64.3337C56.5919 69.3397 56.4769 74.3483 56.3216 79.3543C56.2871 80.4328 56.5862 81.3546 57.3539 82.1772C58.5674 83.4802 59.7493 84.812 60.9627 86.1177C62.0296 87.2641 62.9842 88.4758 63.7003 89.8337C63.7836 89.993 63.9015 90.1366 64.0885 90.4134C64.146 90.0844 64.1977 89.9094 64.2035 89.7292C64.2236 88.9458 64.2294 88.1624 64.238 87.379C64.3041 82.1563 64.3731 76.9361 64.4364 71.7134C64.4421 71.259 64.5572 70.8726 65.0201 70.6219C65.4256 70.4025 65.532 70.0552 65.5205 69.6452C65.5003 68.9819 65.5176 68.316 65.5061 67.6527C65.5032 67.4804 65.4486 67.308 65.4141 67.1017C64.1345 67.4282 63.4328 68.1933 63.0791 69.2483C62.3401 69.1099 62.4695 68.4858 62.1475 68.081ZM80.387 83.0389C80.1829 81.4146 79.9298 79.7773 79.4755 78.1661C79.1621 77.0537 78.8486 75.9438 77.6294 75.2805C77.9083 75.3145 78.1412 75.3902 78.3368 75.5182C78.9838 75.936 79.3145 76.5497 79.5531 77.2182C80.1196 78.8033 80.4129 80.4406 80.666 82.0858C80.6947 82.2712 80.7436 82.4592 80.8184 82.6315C80.8443 82.6942 80.9823 82.7569 81.0571 82.7491C81.1376 82.7386 81.2497 82.655 81.2698 82.5845C81.3101 82.4514 81.3072 82.3025 81.2986 82.1615C81.2526 81.4512 81.244 80.7357 81.1433 80.0332C80.8903 78.2366 80.18 76.5915 78.9752 75.1421C78.3224 74.3535 77.4914 73.7372 76.5108 73.3142C75.6884 72.9616 74.8372 73.2985 74.5957 74.0506C74.7912 74.1524 75.0127 74.236 75.1938 74.3613C75.6712 74.6956 75.7143 75.4451 75.3002 75.8237C74.9063 76.1815 74.4088 76.1266 73.9372 75.6696C73.4484 75.1944 73.2212 74.6381 73.2902 73.9801C73.4829 72.173 75.6884 71.1676 77.3332 72.1547C77.8048 72.4368 78.2879 72.6587 78.8601 72.6143C79.8407 72.536 80.551 72.946 80.988 73.6824C81.3791 74.3431 81.7098 75.0534 81.9427 75.7715C82.5006 77.5002 82.9837 79.2472 83.5041 80.9838C83.5559 81.1535 83.645 81.3154 83.7284 81.5139C84.1195 81.2867 84.2 80.955 84.3007 80.6417C84.6314 79.605 84.7032 78.5369 84.6314 77.4689C84.525 75.8838 84.3639 74.3013 84.2144 72.7188C84.0447 70.9248 83.7716 69.1282 84.292 67.342C84.3179 67.2558 84.2949 67.1592 84.2949 67.073C82.6415 66.6656 73.8941 66.5899 72.8387 66.9633C72.6633 68.1567 72.6921 87.9849 72.8589 88.4497C74.012 87.4809 75.1104 86.4389 76.3469 85.5511C77.5891 84.6475 78.9665 83.9085 80.387 83.0389ZM42.3896 32.3731C41.7282 32.6865 41.6879 32.7048 41.3343 33.3446C40.0345 35.6791 39.3415 38.1834 39.0137 40.7609C38.7635 42.7115 38.6916 44.6831 38.5737 46.6469C38.5133 47.6653 38.5162 48.6864 38.5105 49.7048C38.5076 50.3237 38.6427 50.449 39.3099 50.5222C39.5428 50.5483 39.7786 50.5509 40.0144 50.5457C41.3458 50.53 42.5794 50.1592 43.7756 49.6682C44.9689 49.1799 45.8259 48.3782 46.3463 47.2867C46.8697 46.1925 47.232 45.0539 47.3125 43.8605C47.5569 40.2386 47.6691 36.6114 47.5224 32.9816C47.4851 32.0833 47.5656 31.1824 47.5799 30.2814C47.5857 29.8532 47.7381 29.4719 48.086 29.2003C48.9775 28.5031 49.3829 27.6309 49.3829 26.5707C49.3829 26.2416 49.4778 25.9126 49.5152 25.5836C49.5324 25.4321 49.5181 25.2781 49.5181 24.9725C47.1227 26.4532 44.8597 27.8529 42.5075 29.3074C42.7864 29.4562 42.9331 29.5476 43.0912 29.6181C43.8274 29.9498 44.3076 30.4982 44.6526 31.1562C44.8999 31.6263 44.9287 32.1198 44.782 32.6134C44.644 33.0678 44.2788 33.3211 43.7756 33.402C43.3241 33.4751 43.0337 33.2506 42.8037 32.9372C42.6714 32.7701 42.5449 32.5899 42.3896 32.3731ZM33.53 34.6973C33.4898 34.6685 33.4524 34.6372 33.4121 34.6085C33.1591 34.7573 32.9032 34.9009 32.6559 35.055C31.2411 35.9507 29.7947 36.8072 28.4231 37.7552C26.5741 39.0321 24.751 40.343 22.971 41.6983C20.2392 43.777 19.9114 47.9343 22.6605 50.3968C22.8071 50.5274 22.8963 50.7102 23.0803 50.9609C21.9876 51.1593 21.1997 50.893 20.6533 50.2297C20.222 49.7074 19.9431 49.0781 19.6124 48.4905C19.5002 48.2894 19.4283 48.0701 19.3392 47.8612C19.2414 48.1667 19.2501 48.4461 19.3162 48.7151C19.7964 50.7311 20.9121 52.4076 22.5914 53.7838C23.9631 54.9066 25.5561 55.7188 27.1952 56.463C27.3246 56.5231 27.4856 56.5283 27.7272 56.5805C27.7272 56.2724 27.7243 56.0165 27.7272 55.7632C27.7732 52.8672 27.8192 49.9738 27.871 47.0778C27.8767 46.7827 27.94 46.4902 27.9745 46.1977C28.0435 46.1977 28.1096 46.1977 28.1786 46.1977C28.2103 46.5372 28.2678 46.8767 28.2649 47.2162C28.2476 50.0652 28.2189 52.9116 28.1959 55.7606C28.193 56.0217 28.1844 56.2854 28.2103 56.544C28.2591 57.0088 28.3598 57.0715 29.0442 57.0793C29.0585 56.8547 29.0844 56.6249 29.0902 56.3925C29.1851 53.4025 29.2828 50.4151 29.3662 47.4251C29.395 46.404 29.4094 45.383 29.372 44.3646C29.3346 43.2495 29.2943 42.1292 28.564 41.1473C28.4806 41.0351 28.5266 40.7818 28.6071 40.6433C28.7135 40.4632 28.9033 40.3143 29.0844 40.1811C30.9075 38.8415 32.2073 37.1337 33.2683 35.2587C33.3862 35.0785 33.4495 34.8853 33.53 34.6973ZM38.2229 60.73C38.1769 61.0512 38.0964 61.3724 38.0906 61.6962C38.0533 63.404 38.013 65.1119 38.0159 66.8223C38.0188 68.5563 38.105 70.285 38.4846 71.9928C38.6399 72.6901 38.6341 72.6901 39.4278 72.7919C39.9712 72.8624 40.5118 72.9381 41.0496 73.0295C43.2494 73.3977 45.314 74.1211 47.3269 74.9828C47.5972 75.0977 47.8732 75.197 48.2039 75.3249C48.6036 73.5988 48.9286 71.9667 48.9228 70.3007C48.9113 67.6893 48.8768 65.0805 48.8423 62.4692C48.8394 62.2472 48.7675 62.0252 48.7158 61.7328C48.2241 61.9025 47.718 61.7406 47.4218 62.1349C47.0738 62.5971 46.5764 62.6598 46.0387 62.6232C45.6505 62.5971 45.2536 62.558 44.8769 62.4666C43.3385 62.0957 41.8087 61.7014 40.2732 61.3202C39.931 61.234 39.5802 61.1713 39.1517 61.0799C39.0166 62.3125 39.0309 63.4719 39.0309 64.6262C39.0309 65.7882 39.0482 66.9529 39.1258 68.1123C39.2035 69.2431 39.3674 70.3686 39.5054 71.5959C39.3473 71.4784 39.2955 71.4575 39.2754 71.4209C39.2207 71.3139 39.1718 71.2042 39.1316 71.0919C38.7233 69.956 38.5363 68.7808 38.5335 67.5901C38.5306 66.1434 38.5766 64.694 38.6054 63.2473C38.6197 62.5841 38.6427 61.9182 38.6571 61.2549C38.6629 61.0199 38.6773 60.7639 38.2229 60.73ZM65.5061 40.693C64.977 40.7739 64.6089 40.787 64.2754 40.8914C60.54 42.0613 58.3345 45.6911 58.5559 48.4069C58.5904 48.8326 58.6709 49.1877 59.131 49.3392C58.9844 49.475 58.8607 49.5847 58.622 49.804C59.1109 49.8928 59.4329 49.9581 59.7579 50.0051C60.2985 50.0861 60.8448 50.1409 61.3797 50.2427C61.5982 50.2845 61.8484 50.3785 61.9836 50.5248C62.2136 50.7728 62.3804 51.0784 62.5414 51.3708C62.5845 51.4492 62.5472 51.5928 62.4897 51.6764C62.4638 51.7155 62.2769 51.7155 62.2136 51.6712C61.9864 51.5145 61.7794 51.3317 61.5637 51.1593C60.8592 50.5979 60.0397 50.4099 59.1051 50.4804C59.7665 53.1884 63.3236 55.2644 65.4687 54.938C65.5262 50.248 65.6499 45.5423 65.5061 40.693ZM66.7541 54.9954C66.9525 54.9824 67.1107 55.0006 67.2516 54.9589C69.4197 54.3217 71.1824 53.2197 72.2234 51.3134C73.0113 49.8693 73.319 48.3417 72.9969 46.754C72.4362 43.9807 70.7741 41.996 67.8123 40.9985C67.4845 40.8888 67.1222 40.8601 66.7886 40.7948C66.5154 41.6017 66.4924 53.8569 66.7541 54.9954ZM39.5255 54.3008C39.5083 54.5411 39.4968 54.6742 39.4882 54.8074C39.3846 56.2985 39.2754 57.7896 39.1776 59.2807C39.1632 59.5157 39.1977 59.7533 39.2035 59.991C39.2092 60.2678 39.3674 60.4271 39.6578 60.4871C40.115 60.5838 40.5694 60.6934 41.0294 60.777C42.841 61.1165 44.6469 61.5291 46.5275 61.2601C47.2636 61.1556 48.0055 61.0799 48.7819 60.9859C48.8136 60.0119 48.7905 59.1318 48.8826 58.2622C48.9717 57.4318 48.664 56.7685 48.063 56.1967C47.7065 55.8572 47.3183 55.5308 46.8927 55.2644C44.5175 53.7785 41.8749 53.3581 39.054 53.6924C38.3983 53.7707 38.3811 53.7838 38.3581 54.4026C38.2977 56.0139 38.2459 57.6277 38.1942 59.2389C38.1884 59.4295 38.1654 59.6254 38.2143 59.8056C38.2459 59.9283 38.3897 60.0249 38.4846 60.132C38.5392 60.1163 38.591 60.1007 38.6456 60.085C38.7031 59.5262 38.7721 58.9673 38.8124 58.4059C38.8872 57.3874 38.9389 56.369 39.0137 55.3506C39.0367 54.9954 39.0309 54.6089 39.5255 54.3008ZM22.6144 61.8398C22.4764 61.644 22.4218 61.5369 22.3384 61.4533C20.6217 59.7116 18.3759 59.0091 15.9259 59.2337C13.2085 59.4818 10.6838 60.3148 8.45526 61.8973C5.08512 64.2919 2.64378 67.2454 1.30378 70.9326C0.33472 73.5988 0.584891 76.1684 2.24408 78.5787C2.41374 78.8268 2.62653 79.054 2.81919 79.289C2.87958 79.2681 2.94284 79.2498 3.00323 79.2289C2.96872 78.8659 2.93997 78.5004 2.89683 78.1374C2.5719 75.4607 2.81344 72.8285 3.79113 70.2824C5.2289 66.5351 7.74788 63.6391 11.857 62.0331C14.537 60.9859 17.3119 60.5968 20.1904 61.1243C20.961 61.2706 21.7058 61.5682 22.6144 61.8398ZM86.0088 126.839C86.0663 126.842 86.1209 126.845 86.1784 126.85C86.2244 126.578 86.279 126.304 86.3164 126.033C86.4084 125.398 86.4803 124.761 86.5839 124.129C86.8829 122.296 87.0497 120.455 87.0727 118.603C87.0899 117.086 87.1388 115.569 87.2021 114.052C87.3487 110.542 87.5443 107.035 87.2711 103.525C87.2596 103.395 87.2222 103.267 87.1963 103.131C86.3768 103.533 85.6119 103.909 84.7809 104.319C85.218 111.782 85.911 119.298 86.0088 126.839ZM68.6376 72.6979C68.1919 73.228 68.258 73.6902 68.258 74.1341C68.2752 78.8059 68.2954 83.4802 68.3213 88.152C68.3241 88.6403 68.2839 89.0869 67.8583 89.4551C67.5851 89.6927 67.5506 90.0217 67.7605 90.3064C68.1228 90.7921 68.1228 91.33 68.1257 91.8784C68.1516 95.6022 68.1804 99.326 68.212 103.05C68.2149 103.405 68.2321 103.763 68.2666 104.115C68.2781 104.222 68.3701 104.324 68.4248 104.429C68.4852 104.418 68.5455 104.408 68.6059 104.397C68.6059 104.097 68.6059 103.797 68.6059 103.496C68.6059 99.6524 68.6088 95.8111 68.5973 91.9672C68.5973 91.4319 68.6634 90.9331 69.0171 90.4813C69.2213 90.2202 69.368 89.8781 69.1523 89.6143C68.7238 89.0947 68.8647 88.5489 68.8992 87.9822C69.2098 83.099 69.2616 78.2183 68.7727 73.3403C68.7612 73.1732 68.7037 73.0008 68.6376 72.6979ZM64.0741 100.008C64.0194 99.9998 63.9648 99.9945 63.9102 99.9867C63.8009 100.224 63.6888 100.462 63.5795 100.7C62.7772 102.483 61.7851 104.175 60.5659 105.753C60.1461 106.296 59.7205 106.836 59.3266 107.395C59.1396 107.662 58.7428 107.917 58.9527 108.267C59.1626 108.615 59.6256 108.586 60.0138 108.586C61.0059 108.583 61.9979 108.568 62.9871 108.542C63.9217 108.518 64.0108 108.434 64.0223 107.586C64.0568 105.215 64.0827 102.844 64.1086 100.472C64.1143 100.318 64.0885 100.162 64.0741 100.008ZM84.5077 101.201C84.5911 101.24 84.6716 101.279 84.755 101.318C84.9103 101.13 85.0656 100.945 85.218 100.754C87.4408 98.0021 86.8858 94.5316 84.8959 92.3981C84.7291 92.2205 84.525 92.0664 84.315 91.9254C84.1856 91.8392 84.0189 91.8053 83.7716 91.7113C84.0217 94.9415 84.2633 98.0726 84.5077 101.201ZM34.2202 42.3277C34.1684 42.3225 34.1166 42.3172 34.0649 42.312C34.039 42.581 34.0045 42.8473 33.993 43.1163C33.8693 45.9627 33.7543 48.8065 33.6278 51.6529C33.5559 53.3137 33.4668 54.9719 33.3891 56.6301C33.369 57.095 33.2166 57.5023 32.9032 57.881C32.4172 58.4633 32.4201 58.8498 32.9664 59.3982C33.2741 59.7063 33.3719 60.0171 33.3604 60.4219C33.2597 64.0987 33.1763 67.7781 33.0901 71.4549C33.0613 72.664 33.0297 73.8756 33.0124 75.0847C33.0095 75.338 33.0556 75.5939 33.0814 75.8498C33.1562 75.8472 33.231 75.8446 33.3057 75.842C33.3287 75.5965 33.3604 75.3537 33.369 75.1082C33.4811 71.6925 33.5875 68.2769 33.7026 64.8612C33.7486 63.485 33.8061 62.1088 33.8636 60.7352C33.8837 60.2338 33.9585 59.7612 34.3754 59.359C34.9333 58.8159 34.9275 58.0716 34.3179 57.5964C33.878 57.2543 33.7888 56.8887 33.809 56.4108C33.9585 52.7836 34.0994 49.1538 34.223 45.524C34.2518 44.4612 34.2202 43.3931 34.2202 42.3277ZM24.7567 36.7185C25.306 36.1988 25.7689 35.6844 26.321 35.2639C27.1779 34.6085 28.0722 33.987 28.9895 33.402C31.7846 31.6158 34.5969 29.8532 37.4005 28.0748C37.8376 27.798 38.2862 27.5969 38.8412 27.6048C39.3703 27.61 39.8332 27.4246 40.0546 26.9624C40.2761 26.5028 40.647 26.1946 41.087 25.9257C43.0136 24.7506 44.9402 23.5728 46.8668 22.3977C47.4822 22.0217 48.1004 21.6456 48.7158 21.2696C48.0602 21.4602 47.4649 21.7396 46.9042 22.0635C44.8827 23.236 42.8669 24.4189 40.8569 25.6071C40.4285 25.8604 40.023 26.0615 39.4767 25.9283C38.8872 25.7847 38.5737 25.8865 38.3236 26.3722C38.0274 26.9467 37.5299 27.294 36.9778 27.6178C33.3316 29.7487 29.8925 32.1407 26.4504 34.5275C25.976 34.8566 25.5504 35.2483 25.1277 35.6321C24.82 35.9063 24.6245 36.238 24.7567 36.7185ZM91.8576 94.8554C91.7857 94.8554 91.7167 94.8554 91.6448 94.8554C91.5988 95.268 91.5125 95.6779 91.5125 96.0905C91.5097 99.4827 91.5212 102.877 91.5327 106.27C91.5355 106.727 91.5298 107.165 91.1445 107.531C90.9231 107.742 90.9144 108.03 91.1301 108.246C91.6189 108.737 91.5959 109.333 91.5988 109.926C91.6161 113.01 91.6304 116.094 91.6506 119.18C91.6506 119.381 91.6764 119.582 91.6908 119.783C91.7426 119.789 91.7972 119.791 91.849 119.797C91.8749 119.53 91.918 119.264 91.9209 118.997C91.9496 115.937 91.9755 112.876 91.9985 109.813C92.0014 109.283 92.033 108.79 92.5362 108.393C92.8727 108.126 92.8813 107.638 92.5564 107.453C92.0819 107.184 92.102 106.813 92.0963 106.408C92.0416 102.802 91.9813 99.1955 91.9209 95.5892C91.9122 95.3437 91.8777 95.1008 91.8576 94.8554ZM74.1069 95.2418C74.9436 91.6799 76.9191 89.3219 80.919 88.8127C81.0484 88.0867 80.9852 87.4443 80.7264 86.7653C80.5021 86.8411 80.3065 86.8907 80.1283 86.9743C79.0125 87.4991 77.9716 88.1259 77.0629 88.9223C75.5389 90.2541 74.5411 91.8627 74.035 93.722C73.9142 94.1712 73.8768 94.6282 74.1069 95.2418ZM6.12607 72.9956C5.64873 74.2543 5.37555 75.5495 5.29791 76.8787C5.18577 78.8216 5.54521 80.7122 6.14045 82.5663C6.75006 84.4647 7.54947 86.2848 8.91535 87.8673C9.91604 89.0268 11.2215 89.8546 12.4839 90.7372C12.5845 90.8077 12.7226 90.8887 12.8318 90.8783C13.0159 90.8626 13.1913 90.7764 13.3724 90.719C13.3092 90.5779 13.2862 90.3873 13.1712 90.3064C12.8002 90.0452 12.4063 89.8076 12.0037 89.5908C10.4135 88.7369 9.1914 87.5592 8.25685 86.1229C6.54302 83.4907 5.73212 80.6234 5.61422 77.5838C5.55384 76.0352 5.81263 74.5154 6.12607 72.9956ZM30.6113 83.3079C30.5567 83.2818 30.5049 83.2583 30.4503 83.2322C30.2605 83.509 30.065 83.7832 29.8781 84.0652C28.5151 86.1229 26.9795 88.0658 25.1076 89.7736C23.7848 90.9775 22.2234 91.8105 20.3629 92.1004C19.0632 92.3041 17.7605 92.3824 16.5729 91.6799C16.5097 91.6408 16.4263 91.5885 16.363 91.5964C16.1962 91.6173 15.9633 91.6251 15.8885 91.7243C15.8224 91.8079 15.8828 92.0664 15.9834 92.1422C16.2164 92.3197 16.4953 92.5182 16.78 92.56C17.5995 92.6801 18.4392 92.8316 19.2558 92.7819C21.677 92.6331 23.71 91.6643 25.3692 90.0739C27.0054 88.5019 28.4547 86.7941 29.6509 84.9191C29.9902 84.3916 30.2922 83.8458 30.6113 83.3079ZM53.2505 55.1234C53.1528 55.1208 53.055 55.1182 52.9572 55.1182C52.9371 55.4603 52.9026 55.805 52.8968 56.147C52.8422 59.2285 52.7904 62.3099 52.7473 65.3913C52.7415 65.7099 52.6955 65.9658 52.4252 66.2191C51.9565 66.6526 51.9278 66.9555 52.339 67.4047C52.6208 67.7128 52.6582 68.0262 52.661 68.3865C52.6812 70.0944 52.707 71.7996 52.7415 73.5048C52.753 74.095 52.7933 74.6878 52.8192 75.2779C52.9256 73.0713 52.9745 70.8699 53.0147 68.6659C53.0234 68.1619 53.0636 67.705 53.5122 67.308C53.863 66.9999 53.863 66.6212 53.5007 66.3679C52.9227 65.9632 52.963 65.454 52.9831 64.9004C53.0809 61.9156 53.1643 58.9308 53.2534 55.9434C53.2563 55.6718 53.2505 55.3976 53.2505 55.1234ZM66.6822 69.4024C67.3551 69.1699 70.2076 67.1775 70.6821 66.6004C69.3737 66.4933 68.1459 66.4228 66.9266 66.7179C66.8058 66.7466 66.6477 66.898 66.6362 67.0051C66.5528 67.799 66.5212 68.5928 66.6822 69.4024ZM50.1219 32.1407C50.0788 32.1407 50.0385 32.1407 49.9954 32.1381C49.9839 32.3627 49.9638 32.5847 49.9638 32.8092C49.9551 33.9008 49.9523 34.9923 49.9408 36.0839C49.935 36.6845 49.8401 37.2642 49.4088 37.7604C49.0896 38.1286 49.104 38.5334 49.4318 38.8702C49.8171 39.2645 49.8545 39.7163 49.8459 40.1968C49.8171 41.7166 49.797 43.2338 49.7797 44.7536C49.7769 44.9234 49.8056 45.0931 49.82 45.2629C50.0098 44.704 50.0817 44.1452 50.0932 43.5837C50.1191 42.3982 50.1248 41.21 50.1219 40.0244C50.1219 39.6719 50.2082 39.4186 50.559 39.1888C51.1542 38.8023 51.2693 38.092 50.7402 37.6429C50.1622 37.1546 50.1018 36.6036 50.1191 35.9716C50.1392 35.2613 50.1219 34.5484 50.1219 33.8355C50.1219 33.2741 50.1219 32.7074 50.1219 32.1407ZM88.7865 77.905C88.8354 77.8997 88.8814 77.8971 88.9303 77.8919C88.9418 77.6908 88.9591 77.4898 88.9619 77.2861C88.9734 76.2911 88.9734 75.2962 88.9936 74.3013C88.9993 73.9957 88.9993 73.6719 89.1028 73.3873C89.307 72.8259 89.3789 72.2984 89.0798 71.7395C88.9734 71.5411 88.9936 71.2773 88.9849 71.0397C88.9734 70.5487 88.9821 70.0552 88.9821 69.5643C88.8642 69.7497 88.8613 69.9403 88.8268 70.1231C88.6888 70.8856 88.8814 71.6951 88.4271 72.4159C88.3696 72.5073 88.4616 72.6796 88.4932 72.8128C88.5766 73.1784 88.729 73.5388 88.7376 73.9044C88.7664 75.0168 88.7376 76.1318 88.7405 77.2469C88.7376 77.4689 88.7693 77.6856 88.7865 77.905ZM81.8737 91.7818C81.7386 92.4268 82.1411 101.564 82.3022 102.183C82.3223 102.259 82.4028 102.324 82.4546 102.392C82.5063 102.381 82.5581 102.371 82.607 102.36C82.4373 98.8351 82.1411 95.315 81.8737 91.7818ZM23.1896 64.5008C23.3851 64.6523 23.5835 64.8011 23.779 64.9526C24.6705 65.642 25.1363 66.5037 25.0127 67.5796C24.9321 68.2847 24.8746 69.0002 24.3685 69.5956C24.2276 69.7627 24.15 69.9742 24.3944 70.0735C24.5353 70.1309 24.8344 70.0813 24.9235 69.9795C25.1104 69.7679 25.2772 69.499 25.3203 69.2352C25.4066 68.6999 25.4354 68.1515 25.4325 67.6083C25.421 66.1616 24.7193 65.0858 23.1896 64.5008ZM65.5866 113.017C65.4112 112.871 65.3479 112.772 65.2732 112.764C62.9727 112.563 60.6666 112.448 58.2655 112.56C58.7399 112.762 64.5025 113.111 65.5866 113.017ZM75.1564 62.5057C72.7323 61.9182 69.3334 62.3046 68.1573 63.7305C68.35 63.6391 68.4622 63.5973 68.5628 63.5346C69.8338 62.7407 71.2313 62.4091 72.7726 62.4979C73.5605 62.5423 74.3599 62.5057 75.1564 62.5057ZM73.0429 113.19C71.4498 112.942 67.5017 112.795 66.8576 112.96C67.7433 113.268 72.209 113.433 73.0429 113.19ZM89.4479 61.9991C89.422 61.9521 89.3961 61.9051 89.3674 61.8555C89.0971 61.9782 88.821 62.0957 88.5536 62.2211C87.9641 62.5005 87.3372 62.6494 86.6759 62.6415C84.7234 62.618 82.7738 62.5841 80.8213 62.5527C80.6775 62.5501 80.5366 62.5527 80.3928 62.5527C80.6286 62.6937 80.8759 62.7564 81.1261 62.7643C83.0268 62.8139 84.9247 62.8713 86.8254 62.8844C87.8146 62.8922 88.6888 62.5579 89.4479 61.9991ZM81.9341 88.7343C81.9772 87.9587 81.96 87.2093 81.6868 86.4494C81.2526 86.7262 81.2526 86.7262 81.4453 88.2042C81.4798 88.434 81.4021 88.75 81.9341 88.7343ZM42.3838 76.7272C41.3429 76.3173 39.3128 76.4139 38.6945 76.91C39.9224 76.8474 41.1157 76.7899 42.3838 76.7272ZM79.4985 62.6311C79.5158 62.3804 79.2656 62.1689 78.9493 62.161C78.6013 62.1532 78.3253 62.3673 78.3224 62.6441C78.3195 62.9183 78.5467 63.1194 78.8601 63.122C79.188 63.1272 79.4813 62.9 79.4985 62.6311ZM39.0626 73.5361C39.0108 73.8991 39.1028 74.0663 39.399 74.0819C40.1668 74.1237 40.9374 74.155 41.7081 74.1916C41.7167 74.1472 41.7253 74.1002 41.7368 74.0558C40.8655 73.8861 39.9971 73.7163 39.0626 73.5361ZM19.1695 63.1716C18.097 63.0724 16.941 63.2552 16.0841 63.6965C17.1682 63.5111 18.1574 63.3414 19.1695 63.1716ZM52.5834 77.2861C52.6812 77.2861 52.7789 77.2861 52.8796 77.2861C52.8566 76.9231 52.8336 76.5575 52.8106 76.1945C52.7646 76.1971 52.7214 76.1971 52.6754 76.1997C52.6438 76.5627 52.615 76.9257 52.5834 77.2861Z" fill="white"/>
</svg>
