<svg width="105" height="157" viewBox="0 0 105 157" fill="none" xmlns="http://www.w3.org/2000/svg">
<path d="M46.1882 19.2465C45.9639 19.4173 45.7453 19.5967 45.5124 19.7561C41.4579 22.5463 37.4005 25.3308 33.3517 28.1238C30.8615 29.8406 28.4461 31.6486 26.2606 33.7412C26.0594 33.9348 25.8638 34.1369 25.6654 34.3362C25.6999 34.3846 25.7315 34.433 25.7661 34.4814C25.9875 34.3391 26.2118 34.2053 26.4245 34.0544C32.2274 29.9944 38.0216 25.923 43.8302 21.8716C45.7741 20.5163 47.7525 19.2123 49.6992 17.8628C51.8731 16.3567 53.354 14.3438 54.0672 11.8013C54.4122 10.577 54.5215 9.35847 53.8601 8.18546C53.8113 8.0972 53.7509 7.98617 53.7624 7.89506C53.7911 7.62458 53.7681 7.28577 53.9234 7.10925C54.1621 6.83878 54.4698 7.09502 54.6797 7.26015C55.574 7.96339 56.1836 8.85169 56.2411 10.0105C56.2727 10.6425 56.4309 11.2176 56.6322 11.8127C57.3971 14.0904 56.9542 16.146 55.3238 17.9226C54.9442 18.3354 54.7659 18.7682 54.7861 19.3205C54.8091 19.9412 54.8349 20.5676 54.7659 21.1797C54.6509 22.2218 54.1534 23.1044 53.377 23.8048C52.7646 24.3571 52.4109 24.9892 52.3792 25.8205C52.3505 26.5551 52.2527 27.2896 52.1722 28.1751C52.5345 27.9644 52.7588 27.8505 52.9687 27.7138C53.5553 27.3266 54.1276 26.9166 54.7228 26.5437C55.3267 26.165 55.988 25.9372 56.7155 25.9344C57.1296 25.9344 57.4862 26.0568 57.7853 26.3387C58.0268 26.5665 58.1792 26.8369 58.0498 27.1729C57.9175 27.5174 57.6242 27.6 57.2849 27.5686C57.1584 27.5573 57.0347 27.5402 56.8191 27.5145C56.4798 28.4171 56.0887 29.2911 55.8241 30.2022C55.2318 32.2635 54.5848 34.3277 54.4583 36.483C54.3547 38.2624 54.3662 40.0476 54.3404 41.8327C54.3317 42.479 54.3634 43.1253 54.3749 43.7744C54.3777 43.9566 54.3576 44.1389 54.3777 44.3182C54.4065 44.5802 54.2225 44.5175 54.0816 44.5545C54.0528 44.5631 54.0557 44.751 54.0758 44.8478C54.3145 45.9838 54.5244 47.1283 54.8234 48.2501C54.9471 48.717 54.9212 49.0416 54.5445 49.3462C54.3231 49.5256 54.1362 49.7477 53.9148 49.9299C52.0514 51.4645 50.8609 53.5173 49.5641 55.4875C49.5123 55.5672 49.4979 55.6754 49.4404 55.8519C50.5073 56.1964 51.5626 56.5124 52.6524 56.3074C53.5668 56.1338 54.4554 55.8092 55.3324 55.4846C56.2066 55.1601 57.0491 54.7529 57.9578 54.36C58.0124 53.9785 57.7738 53.8788 57.3971 53.9785C56.7932 54.1351 56.1807 54.2803 55.5912 54.4853C54.904 54.7244 54.2455 55.0576 53.5553 55.2853C53.0176 55.4647 52.4511 55.5757 51.8875 55.6583C51.6258 55.6953 51.344 55.5957 51.0709 55.5558C51.0766 55.5074 51.0795 55.4562 51.0852 55.4077C51.2089 55.4077 51.3354 55.4191 51.4591 55.4049C51.922 55.3537 52.3994 55.3508 52.8393 55.2255C53.5151 55.0319 54.1592 54.7387 54.8234 54.5052C55.7781 54.1693 56.7386 53.8475 57.7824 53.4916C57.7824 53.2838 57.791 53.0304 57.7795 52.777C57.7105 51.1798 58.1648 49.6993 58.8808 48.3042C60.1173 45.8898 62.1503 44.4663 64.7843 43.8485C64.9626 43.8058 65.138 43.7716 65.3163 43.7289C65.3393 43.7232 65.3566 43.6976 65.4515 43.6178C65.4687 43.3844 65.5118 43.0826 65.5118 42.7808C65.5176 33.2316 65.5176 23.6823 65.5234 14.1331C65.5234 13.2676 65.3853 12.4334 65.0719 11.6276C64.6779 10.6141 64.2984 9.59479 63.8498 8.60684C63.5421 7.92922 63.545 7.32279 63.9361 6.69357C64.9827 5.01093 65.3077 3.14037 65.3681 1.20148C65.3796 0.788652 65.2559 0.313183 65.6959 0C66.0726 0.105343 66.0697 0.41568 66.1186 0.683309C66.2681 1.46911 66.4061 2.26061 66.5557 3.04642C66.8116 4.40165 67.2142 5.70847 67.8382 6.94127C68.1257 7.50785 68.1947 8.05734 67.9474 8.65524C67.7605 9.10793 67.6628 9.60048 67.4672 10.0475C66.8058 11.5536 66.6937 13.1281 66.6937 14.7509C66.6994 23.8873 66.6592 33.0209 66.6333 42.1573C66.6333 42.6726 66.6333 43.1879 66.6333 43.7175C66.895 43.8114 67.0819 43.8997 67.2774 43.9481C70.846 44.8193 72.7784 47.2422 73.6238 50.6274C74.6935 54.9067 71.8294 58.5282 68.8475 59.8863C68.1401 60.208 67.404 60.4756 66.6764 60.7717C66.6764 62.9014 66.6764 65.0082 66.6764 67.2147C66.9065 67.0923 67.0675 67.0325 67.1969 66.9329C67.588 66.6282 67.9877 66.335 68.3414 65.9905C69.575 64.7947 71.0789 64.3278 72.7669 64.3477C75.7948 64.3847 78.8256 64.4388 81.8536 64.4701C83.993 64.4929 86.1381 64.5783 88.2718 64.4673C90.2214 64.3676 92.1624 64.0573 94.1005 63.8067C94.4485 63.7612 94.828 63.6131 95.0983 63.3968C95.685 62.9298 96.3003 62.4572 96.746 61.8707C98.2126 59.9518 99.2506 57.8164 99.6992 55.4305C99.7884 54.9494 99.8401 54.4568 99.8545 53.97C99.8976 52.5322 99.127 51.6239 97.6835 51.4218C96.5908 51.268 95.5929 51.4417 94.9028 52.424C94.8597 52.4838 94.7878 52.5265 94.7245 52.572C94.7044 52.5863 94.6785 52.5919 94.5951 52.6233C94.2156 52.4268 94.2932 52.1336 94.4657 51.8147C95.0437 50.747 96.2687 50.1463 97.5109 50.3627C98.4196 50.5221 99.1787 50.9179 99.6705 51.7464C99.9063 52.1421 100.214 52.5037 100.519 52.8539C101.033 53.4432 101.324 54.1152 101.393 54.8867C101.554 56.726 101.146 58.4314 100.179 60.0087C99.426 61.2386 98.4742 62.2949 97.3499 63.2032C96.8438 63.6103 96.3176 63.9947 95.8144 64.4075C95.5613 64.6153 95.3428 64.863 95.061 65.142C96.3923 65.6972 97.2838 66.5514 97.7841 67.7699C97.7467 67.824 97.7065 67.8781 97.6691 67.9322C97.3988 67.8041 97.1227 67.6874 96.8611 67.545C96.3837 67.2831 95.8776 67.2034 95.3456 67.2888C94.8597 67.3656 94.46 67.5877 94.1983 68.0176C93.3443 69.4099 92.7404 70.8932 92.7404 72.5445C92.7404 74.7425 92.795 76.9434 92.8382 79.1413C92.8698 80.8467 93.0308 82.5607 92.5938 84.2377C92.4327 84.8612 92.2228 85.479 91.9669 86.0712C91.4723 87.2072 90.6642 88.0613 89.4968 88.5482C88.8785 88.8073 88.3839 89.2087 87.9785 89.7354C87.0353 90.9682 85.8851 91.979 84.5135 92.7164C83.993 92.9954 83.7284 93.3627 83.7313 93.9378C83.7342 94.8403 83.7313 95.7429 83.7313 96.7223C85.3704 97.1436 86.7593 98.012 87.8433 99.4014C87.9814 99.2363 88.0791 99.1537 88.1367 99.0455C88.8814 97.6789 90.0144 96.6967 91.3458 95.9393C92.6628 95.1905 93.9021 94.3449 95.0926 93.4054C97.0681 91.8452 99.9408 91.9534 101.899 93.5534C102.753 94.251 102.914 95.2048 103.041 96.1813C103.081 96.4888 102.799 96.7479 102.514 96.7422C102.201 96.7365 102.051 96.5401 102.008 96.2525C101.994 96.15 101.991 96.0475 101.988 95.9422C101.945 94.4816 101.085 93.468 99.5784 93.1235C99.4347 93.4652 99.6417 94.0033 99.0062 94.1342C98.9401 94.0802 98.8509 93.9976 98.7532 93.9236C98.3592 93.6218 98.132 93.6018 97.8157 93.9748C97.5167 94.3279 97.2608 94.7264 97.0422 95.1336C96.4096 96.3237 96.2227 97.639 96.0847 98.9487C95.9668 100.051 95.8719 101.164 95.8747 102.271C95.9035 110.346 95.9581 118.42 96.0185 126.495C96.0243 127.215 96.0933 127.941 96.1853 128.656C96.3118 129.624 96.6972 130.492 97.3441 131.244C97.5052 131.431 97.6231 131.654 97.7352 131.819C97.5311 132.2 97.2809 132.058 97.0652 132.021C96.631 131.944 96.2543 132.012 95.8805 132.266C92.9992 134.21 90.5406 136.568 88.5651 139.423C87.6018 140.816 87.2337 142.327 87.4264 143.984C87.458 144.263 87.5242 144.545 87.6133 144.813C87.7456 145.212 88.0187 145.465 88.4558 145.525C88.66 145.553 88.8642 145.61 89.0626 145.67C89.3933 145.77 89.5888 145.989 89.6291 146.339C89.6722 146.709 89.4824 146.923 89.1632 147.056C89.0913 147.085 89.0223 147.125 88.8785 147.196C89.0281 147.361 89.1373 147.535 89.2926 147.643C90.647 148.602 92.1279 149.095 93.79 148.668C94.7447 148.423 95.6735 148.07 96.608 147.754C96.9531 147.637 97.2809 147.472 97.6231 147.344C98.0832 147.176 98.5547 147.142 98.9803 147.418C99.2765 147.612 99.5123 147.552 99.7654 147.372C101.629 146.049 103.205 144.505 103.831 142.228C103.935 141.855 103.99 141.47 104.044 141.089C104.165 140.255 103.923 139.563 103.225 139.036C102.997 138.865 102.819 138.635 102.624 138.427C102.454 138.245 102.336 138.037 102.5 137.8C102.69 137.524 102.943 137.607 103.199 137.712C104.059 138.065 104.585 138.7 104.821 139.58C105.097 140.608 105.042 141.627 104.74 142.641C104.461 143.569 104.018 144.411 103.429 145.183C101.488 147.731 98.9171 149.314 95.7827 149.952C94.9833 150.114 94.0919 150.117 93.2982 149.946C92.1078 149.687 90.9317 149.291 89.8131 148.81C87.7341 147.911 86.2819 146.348 85.4308 144.269C84.5307 142.065 84.0936 139.774 84.1051 137.382C84.1138 135.417 84.0304 133.453 83.9326 131.491C83.8291 129.424 83.6508 127.363 83.5156 125.299C83.3 121.971 83.0929 118.639 82.883 115.311C82.8456 114.719 82.8025 114.124 82.7507 113.532C82.7421 113.421 82.676 113.312 82.5552 113.213C82.3079 114.767 82.5926 116.313 82.5983 117.856C82.6041 119.459 82.63 121.065 82.6875 122.668C82.7421 124.245 82.8341 125.82 82.9348 127.394C83.0354 128.957 83.2195 130.518 83.0671 132.098C82.9635 131.232 82.8456 130.37 82.7623 129.504C82.5006 126.802 82.213 124.106 82.2073 121.381C82.2015 118.77 82.0089 116.16 81.9283 113.549C81.9111 113.031 81.7271 112.732 81.2296 112.575C79.1764 111.929 77.1463 111.715 75.1651 112.814C74.9034 112.959 74.6216 113.07 74.3082 113.119C75.0702 112.208 75.9673 111.479 77.1866 111.365C78.0061 111.291 78.8486 111.374 79.6739 111.453C80.3152 111.516 80.9449 111.687 81.6897 111.829C81.8363 110.425 81.6178 109.102 81.6034 107.78C81.589 106.462 81.5114 105.144 81.4481 103.826C81.382 102.488 81.2986 101.15 81.2181 99.7829C80.4446 99.6747 79.8666 99.9481 79.3375 100.33C78.0837 101.229 77.5316 102.499 77.4195 103.991C77.3591 104.791 77.3045 105.591 77.2383 106.388C77.2182 106.644 77.1866 106.904 77.1348 107.154C76.738 109.002 75.1938 109.771 73.4541 108.993C73.2183 108.888 72.9911 108.76 72.6461 108.583C72.6116 108.862 72.5684 109.07 72.5627 109.281C72.5253 111.015 72.4707 112.749 72.4735 114.483C72.4735 115.308 72.1802 115.898 71.4844 116.37C70.6073 116.965 69.7907 117.649 68.9309 118.303C69.1667 118.631 69.4485 118.508 69.6843 118.508C71.6166 118.508 73.5519 118.477 75.4842 118.491C76.0536 118.497 76.6345 118.568 77.1866 118.705C78.5841 119.049 79.1879 120.057 78.7048 121.41C78.4029 122.25 77.9687 123.081 77.4281 123.793C76.2836 125.299 75.0328 126.728 73.8136 128.18C73.6554 128.368 73.4397 128.51 73.1464 128.764C73.0199 128.448 72.9279 128.254 72.8617 128.052C72.6691 127.457 72.4189 127.235 71.792 127.229C70.2508 127.215 68.7095 127.226 67.171 127.229C66.8662 127.229 66.5844 127.272 66.6304 127.799C67.4241 127.878 68.2292 127.961 69.0344 128.041C68.2666 128.368 67.4615 128.163 66.6333 128.308C66.6046 128.496 66.547 128.693 66.547 128.889C66.5557 133.703 66.5557 138.515 66.5959 143.33C66.6074 144.679 66.872 146.006 67.3378 147.279C67.6513 148.138 67.6426 148.967 67.4155 149.858C67.0531 151.284 66.7915 152.736 66.5327 154.186C66.4435 154.69 66.4953 155.216 66.4752 155.732C66.4637 156.042 66.4809 156.361 66.3975 156.651C66.3544 156.802 66.1358 156.967 65.9719 156.999C65.8684 157.019 65.6384 156.822 65.6039 156.688C65.5234 156.367 65.4946 156.025 65.5004 155.695C65.5176 154.322 65.5147 152.95 65.1697 151.609C64.9713 150.832 64.7671 150.057 64.5169 149.294C64.3645 148.833 64.33 148.395 64.4651 147.928C65.2329 145.271 65.5349 142.561 65.5205 139.802C65.5004 136.309 65.5147 132.815 65.5147 129.322C65.5147 129.014 65.5147 128.707 65.5147 128.325C65.1697 128.263 64.8735 128.166 64.5773 128.166C61.9145 128.177 59.2518 128.203 56.589 128.228C55.9104 128.234 55.2289 128.274 54.5531 128.254C54.0039 128.237 53.4834 128.109 53.0722 127.494C53.3512 127.576 53.5122 127.642 53.6761 127.67C54.211 127.762 54.7516 127.915 55.2864 127.912C58.4466 127.887 61.604 127.824 64.7642 127.767C64.9971 127.762 65.23 127.688 65.5147 127.636C65.3393 127.169 65.0259 127.229 64.7585 127.226C63.6341 127.206 62.5127 127.195 61.3883 127.178C59.1425 127.144 56.8967 127.101 54.6509 127.075C54.1017 127.07 53.6301 126.899 53.2045 126.569C53.0234 126.429 52.8364 126.295 52.5863 126.11C52.1664 126.976 52.3303 127.767 52.6783 128.522C52.9572 129.131 53.331 129.7 53.6502 130.293C53.7969 130.566 53.9637 130.842 54.0327 131.138C54.0787 131.332 54.0355 131.651 53.9033 131.753C53.7652 131.859 53.4288 131.844 53.2649 131.745C53.0119 131.591 52.7358 131.357 52.6323 131.096C52.1952 129.991 51.784 128.872 51.4389 127.736C51.3239 127.36 51.3555 126.896 51.4648 126.512C51.6603 125.82 51.8731 125.105 52.247 124.499C53.1413 123.041 54.1189 121.635 55.0851 120.22C56.6667 117.908 58.3115 115.636 59.8499 113.295C61.5292 110.747 62.527 107.923 62.921 104.905C63.151 103.134 62.9584 101.389 62.2826 99.7203C61.512 97.8156 60.333 96.187 58.7773 94.8289C58.6077 94.6809 58.4121 94.5642 58.1562 94.3819C58.1476 95.0339 58.4495 95.4525 58.7399 95.8738C59.2978 96.6824 59.8557 97.491 60.4135 98.2996C60.4883 98.4049 60.5487 98.5302 60.6464 98.6099C61.4573 99.2761 61.6529 100.216 61.8082 101.167C61.9117 101.802 61.6903 102.394 61.4027 102.952C61.3509 103.051 61.1554 103.077 61.0289 103.137C60.9742 103.012 60.8448 102.861 60.8765 102.764C61.2503 101.631 60.8909 100.592 60.3704 99.632C59.1023 97.2945 57.6271 95.108 55.3899 93.5335C54.3892 92.8303 53.4403 92.0558 52.4339 91.3555C51.1456 90.4615 49.7912 89.7155 48.2068 89.4109C46.2773 89.0408 44.5232 89.3625 42.9187 90.47C42.427 90.8088 41.964 91.1903 41.501 91.569C40.8569 92.0986 40.5636 92.7933 40.5866 93.6218C40.5952 93.9236 40.5866 94.2282 40.5866 94.5101C40.0661 94.678 39.8649 94.4645 39.7498 94.0887C39.5715 93.5022 39.7182 92.9555 39.9885 92.4431C40.207 92.0302 40.4601 91.6658 40.3508 91.1419C40.2732 90.7832 40.5866 90.5412 40.854 90.322C42.5909 88.9041 44.5664 88.1439 46.8352 88.2009C47.0336 88.2066 47.2349 88.2009 47.4448 88.1468C47.0365 87.8421 46.5476 87.808 46.0732 87.7624C43.6548 87.5346 41.4033 88.0585 39.3041 89.2486C37.527 90.2536 36.095 91.6345 34.8758 93.2459C33.4006 95.1962 32.1009 97.2547 31.0024 99.4384C29.9989 101.44 28.5985 103.128 26.8588 104.538C26.1945 105.076 25.4727 105.52 24.6072 105.736C24.7337 105.639 24.8574 105.54 24.9897 105.449C27.3965 103.834 29.2886 101.782 30.5682 99.1765C31.7271 96.8191 33.1217 94.6069 34.7694 92.5512C36.6184 90.2451 38.867 88.4913 41.7771 87.7055C42.6254 87.4777 43.5168 87.4008 44.391 87.2585C44.6613 87.2157 44.9316 87.1873 45.1932 87.0791C42.404 86.4328 39.6521 86.447 36.9577 87.472C36.1439 87.7823 35.5832 88.3318 35.1777 89.1205C33.5645 92.2694 31.6149 95.2048 29.2685 97.8725C27.0888 100.355 24.4519 102.129 21.2198 102.997C19.5491 103.444 17.9158 103.373 16.3084 102.735C15.6585 102.476 15.4112 102.584 15.0978 103.239C14.7987 103.863 14.9109 104.484 15.4457 104.723C15.8914 104.922 16.3889 105.013 16.8662 105.138C17.3206 105.258 17.7835 105.335 18.2292 105.477C18.4708 105.554 18.7095 105.696 18.8964 105.87C19.3277 106.269 19.1897 106.963 18.6203 107.106C18.2321 107.203 17.7778 107.208 17.3896 107.111C16.3659 106.852 15.4457 106.363 14.6578 105.654C13.6514 104.748 13.66 103.541 14.6664 102.616C14.8361 102.459 15.0086 102.305 15.2013 102.132C14.5198 101.437 13.8814 100.822 12.8922 100.577C11.187 100.153 9.76364 99.1822 8.50415 97.975C6.32448 95.8852 4.75731 93.4082 3.76812 90.5725C3.68186 90.3276 3.58984 90.0856 3.51507 89.8379C3.12112 88.5454 2.57477 87.3353 1.82713 86.1908C0.901202 84.7729 0.254204 83.2212 0.0586669 81.5101C-0.0851104 80.2545 0.0414148 79.0274 0.372103 77.8231C1.64022 73.2022 4.33461 69.5465 8.14758 66.6681C9.58535 65.5805 11.1008 64.6153 12.9181 64.2537C14.5313 63.932 16.1387 63.5961 17.8037 63.8238C19.9805 64.1199 21.723 65.1762 23.1407 66.7934C23.342 67.024 23.5202 67.303 23.6123 67.5906C23.8164 68.234 24.1989 68.7152 24.7136 69.1479C25.7143 69.9878 26.2261 71.1238 26.413 72.3823C26.6086 73.6976 26.6 75.013 26.0507 76.2714C25.8236 76.7924 25.5101 77.2281 24.9379 77.3932C24.6705 77.4701 24.3685 77.5242 24.0954 77.49C23.1781 77.3761 22.8272 76.485 23.3995 75.7561C23.5116 75.6137 23.641 75.4799 23.7906 75.3774C24.3369 75.0073 24.3858 74.4948 24.2248 73.9311C23.9343 72.9147 23.3535 72.1089 22.4017 71.6079C20.2594 70.4832 18.0395 70.2412 15.7534 71.1238C13.5824 71.9609 11.9174 73.3617 10.7931 75.4173C8.74282 79.1698 7.94054 83.1671 8.31149 87.4008C8.4984 89.5333 9.09651 91.5633 10.1001 93.468C10.5429 94.3051 11.1094 95.0368 11.8858 95.5977C12.6449 96.1443 13.3638 96.7564 14.169 97.2319C15.6499 98.106 17.2573 98.6697 19.0085 98.4932C19.7475 98.4192 20.4952 98.1999 21.1796 97.9038C23.0285 97.1038 24.4289 95.7628 25.5015 94.0858C27.0025 91.7341 27.8681 89.1489 28.354 86.4214C28.6876 84.5452 28.5496 82.6518 28.6157 80.7699C28.7681 76.3996 28.8371 72.0264 28.9349 67.6561C28.9665 66.3094 28.9924 64.9655 29.0097 63.6188C29.0183 63.0266 28.9982 63.0153 28.285 62.9298C28.2591 63.1462 28.2131 63.3654 28.2103 63.5847C28.1528 69.743 28.1039 75.9013 28.0435 82.0625C28.0406 82.3671 28.1786 82.7486 27.7358 82.9451C27.4367 82.7515 27.4914 82.4554 27.4943 82.1849C27.5489 77.7861 27.6093 73.3873 27.6668 68.9885C27.6927 66.9955 27.707 65.0025 27.7243 63.0096C27.7243 62.8558 27.7099 62.7021 27.6984 62.4942C27.0342 62.1156 26.3498 61.7454 25.6855 61.3383C24.6417 60.7005 23.5663 60.0998 22.5914 59.3709C20.5527 57.8449 19.1178 55.8576 18.488 53.3863C17.7203 50.3769 18.35 47.5867 20.0926 45.0442C20.5354 44.3979 20.7684 43.7573 20.8259 42.9715C20.9553 41.1636 21.6828 39.5408 22.4879 37.9236C24.1241 34.6323 26.83 32.3347 29.6337 30.114C30.6113 29.3395 31.6264 28.6021 32.6616 27.9046C36.4401 25.3621 40.2329 22.8367 44.0286 20.317C44.69 19.8757 45.3888 19.4857 46.0674 19.0728C46.0962 19.1298 46.1422 19.1867 46.1882 19.2465ZM62.1475 74.2272C61.9951 74.4379 61.8657 74.5888 61.7679 74.7568C60.8506 76.3426 60.2007 78.0196 59.939 79.8389C59.6975 81.5073 60.0656 83.0248 60.9886 84.4199C61.1324 84.6363 61.3509 84.8042 61.5896 85.0519C61.7621 84.7672 61.8657 84.5936 61.9692 84.4199C62.0871 84.2177 62.1676 83.9843 62.3257 83.822C62.4523 83.691 62.6909 83.5515 62.8347 83.5885C62.9842 83.6284 63.0993 83.8618 63.1855 84.0355C63.2373 84.1409 63.2229 84.2918 63.2028 84.4142C63.1165 85.0206 62.8261 85.5103 62.2222 85.7039C61.5781 85.9089 60.9541 85.7893 60.517 85.2484C59.7723 84.3288 59.1828 83.3095 59.0764 82.1137C58.8693 79.7421 59.2633 77.4786 60.4394 75.3689C61.6816 73.1396 63.0964 71.0327 64.9224 69.2248C65.3652 68.7864 65.5377 68.3109 65.5291 67.7016C65.5032 65.683 65.5176 63.6644 65.509 61.6458C65.509 61.3639 65.4802 61.0821 65.463 60.8201C65.3508 60.7632 65.2876 60.7148 65.2157 60.6948C65.0661 60.6521 64.9137 60.6151 64.7585 60.5895C61.926 60.1482 59.9592 58.5737 58.7083 56.0626C58.5962 55.8377 58.4754 55.6184 58.3747 55.4305C57.7651 55.4248 57.4488 55.6925 57.3424 56.1822C57.167 56.9851 56.8996 57.7936 56.8737 58.6051C56.8018 60.7774 56.8363 62.9526 56.8363 65.125C56.8363 65.3755 56.8708 65.6289 56.891 65.9108C57.7076 66.0503 58.4725 66.1898 59.2374 66.3122C60.1058 66.4517 60.8132 66.8759 61.3423 67.5536C61.9002 68.2682 62.4034 69.0255 62.921 69.7715C63.0245 69.9195 63.105 70.0875 63.1597 70.2583C63.2718 70.6142 63.0906 70.8904 62.7197 70.9075C62.3257 70.9274 61.9979 70.7736 61.8168 70.4121C61.6787 70.1359 61.5752 69.8398 61.4458 69.5579C60.6838 67.8895 58.645 66.7677 56.8795 67.0724C56.8536 67.2318 56.8076 67.4055 56.8018 67.582C56.7702 68.4362 56.7414 69.2903 56.7213 70.1416C56.5919 75.5995 56.4769 81.0603 56.3216 86.5182C56.2871 87.6941 56.5862 88.6991 57.3539 89.5959C58.5674 91.0167 59.7493 92.4687 60.9627 93.8922C62.0296 95.1421 62.9842 96.4632 63.7003 97.9437C63.7836 98.1174 63.9015 98.2739 64.0885 98.5757C64.146 98.217 64.1977 98.0263 64.2035 97.8298C64.2236 96.9757 64.2294 96.1215 64.238 95.2674C64.3041 89.5732 64.3731 83.8818 64.4364 78.1875C64.4421 77.6921 64.5572 77.2708 65.0201 76.9974C65.4256 76.7583 65.532 76.3796 65.5205 75.9326C65.5004 75.2094 65.5176 74.4834 65.5061 73.7603C65.5032 73.5724 65.4486 73.3845 65.4141 73.1595C64.1345 73.5154 63.4328 74.3496 63.0791 75.4999C62.3401 75.349 62.4695 74.6685 62.1475 74.2272ZM80.387 90.5355C80.1829 88.7646 79.9298 86.9794 79.4755 85.2228C79.1621 84.0099 78.8486 82.7999 77.6294 82.0767C77.9083 82.1137 78.1412 82.1963 78.3368 82.3358C78.9838 82.7913 79.3145 83.4604 79.5531 84.1893C80.1196 85.9175 80.4129 87.7026 80.666 89.4963C80.6947 89.6984 80.7436 89.9034 80.8184 90.0913C80.8443 90.1597 80.9823 90.228 81.0571 90.2195C81.1376 90.2081 81.2497 90.117 81.2698 90.0401C81.3101 89.8949 81.3072 89.7326 81.2986 89.5789C81.2526 88.8044 81.244 88.0243 81.1433 87.2585C80.8903 85.2996 80.18 83.506 78.9752 81.9258C78.3224 81.066 77.4914 80.3941 76.5108 79.9328C75.6884 79.5485 74.8372 79.9157 74.5957 80.7357C74.7912 80.8467 75.0127 80.9379 75.1938 81.0745C75.6712 81.4389 75.7143 82.2561 75.3002 82.6689C74.9063 83.059 74.4088 82.9992 73.9372 82.5009C73.4484 81.9827 73.2212 81.3763 73.2902 80.6588C73.4829 78.6886 75.6884 77.5925 77.3332 78.6687C77.8048 78.9762 78.2879 79.2182 78.8601 79.1698C79.8407 79.0844 80.551 79.5314 80.988 80.3343C81.3791 81.0546 81.7098 81.829 81.9427 82.612C82.5006 84.4967 82.9837 86.4015 83.5041 88.2948C83.5559 88.4799 83.645 88.6564 83.7284 88.8728C84.1195 88.6251 84.2 88.2635 84.3007 87.9218C84.6314 86.7915 84.7032 85.6271 84.6314 84.4626C84.525 82.7344 84.3639 81.009 84.2144 79.2837C84.0447 77.3277 83.7716 75.3689 84.292 73.4215C84.3179 73.3275 84.2949 73.2222 84.2949 73.1282C82.6415 72.6841 73.8941 72.6015 72.8387 73.0086C72.6633 74.3098 72.6921 95.9279 72.8589 96.4347C74.012 95.3784 75.1104 94.2424 76.3469 93.2744C77.5891 92.2893 78.9665 91.4836 80.387 90.5355ZM42.3896 35.2957C41.7282 35.6374 41.688 35.6573 41.3343 36.3548C40.0345 38.9002 39.3415 41.6306 39.0137 44.4407C38.7635 46.5675 38.6916 48.717 38.5737 50.8581C38.5133 51.9684 38.5162 53.0817 38.5105 54.192C38.5076 54.8668 38.6427 55.0035 39.3099 55.0832C39.5428 55.1117 39.7786 55.1145 40.0144 55.1088C41.3458 55.0917 42.5794 54.6874 43.7756 54.1522C44.9689 53.6198 45.8259 52.7457 46.3463 51.5556C46.8697 50.3627 47.232 49.1213 47.3125 47.8202C47.5569 43.8712 47.6691 39.9166 47.5224 35.9591C47.4851 34.9797 47.5656 33.9974 47.5799 33.0152C47.5857 32.5482 47.7381 32.1326 48.086 31.8365C48.9775 31.0763 49.3829 30.1254 49.3829 28.9694C49.3829 28.6107 49.4778 28.2519 49.5152 27.8932C49.5324 27.7281 49.5181 27.5601 49.5181 27.227C47.1227 28.8413 44.8597 30.3674 42.5075 31.9532C42.7864 32.1155 42.9331 32.2151 43.0912 32.292C43.8274 32.6536 44.3076 33.2515 44.6526 33.969C44.8999 34.4814 44.9287 35.0195 44.782 35.5577C44.644 36.0531 44.2788 36.3292 43.7756 36.4175C43.3241 36.4972 43.0337 36.2523 42.8037 35.9107C42.6714 35.7285 42.5449 35.532 42.3896 35.2957ZM33.53 37.8296C33.4898 37.7983 33.4524 37.7642 33.4121 37.7328C33.1591 37.8951 32.9032 38.0517 32.6559 38.2197C31.2411 39.1963 29.7947 40.1301 28.4231 41.1636C26.5741 42.5559 24.751 43.9851 22.971 45.4628C20.2393 47.7291 19.9114 52.2617 22.6605 54.9465C22.8071 55.0889 22.8963 55.2882 23.0803 55.5615C21.9876 55.7779 21.1997 55.4875 20.6533 54.7643C20.222 54.1949 19.9431 53.5087 19.6124 52.8681C19.5002 52.6489 19.4283 52.4097 19.3392 52.182C19.2414 52.5151 19.2501 52.8197 19.3162 53.113C19.7964 55.3109 20.9121 57.1388 22.5914 58.6392C23.9631 59.8635 25.5561 60.7489 27.1952 61.5604C27.3246 61.6259 27.4856 61.6315 27.7272 61.6885C27.7272 61.3525 27.7243 61.0735 27.7272 60.7973C27.7732 57.6399 27.8192 54.4853 27.871 51.3278C27.8767 51.0061 27.94 50.6872 27.9745 50.3684C28.0435 50.3684 28.1096 50.3684 28.1786 50.3684C28.2103 50.7385 28.2678 51.1086 28.2649 51.4787C28.2476 54.5849 28.2189 57.6883 28.1959 60.7945C28.193 61.0792 28.1844 61.3668 28.2103 61.6486C28.2591 62.1554 28.3598 62.2237 29.0442 62.2323C29.0585 61.9874 29.0844 61.7369 29.0902 61.4835C29.1851 58.2235 29.2828 54.9664 29.3662 51.7065C29.395 50.5933 29.4094 49.4801 29.372 48.3697C29.3346 47.154 29.2943 45.9325 28.564 44.862C28.4806 44.7396 28.5266 44.4634 28.6071 44.3125C28.7135 44.1161 28.9033 43.9538 29.0844 43.8086C30.9075 42.348 32.2073 40.486 33.2683 38.4418C33.3862 38.2453 33.4495 38.0346 33.53 37.8296ZM38.2229 66.2126C38.1769 66.5628 38.0964 66.913 38.0906 67.266C38.0533 69.128 38.013 70.99 38.0159 72.8549C38.0188 74.7454 38.105 76.6302 38.4846 78.4922C38.6399 79.2524 38.6341 79.2524 39.4278 79.3634C39.9712 79.4403 40.5118 79.5228 41.0496 79.6225C43.2494 80.0239 45.314 80.8126 47.3269 81.7521C47.5972 81.8774 47.8732 81.9856 48.2039 82.1251C48.6036 80.2432 48.9286 78.4637 48.9228 76.6472C48.9113 73.8001 48.8768 70.9559 48.8423 68.1087C48.8394 67.8667 48.7675 67.6247 48.7158 67.3059C48.2241 67.4909 47.718 67.3144 47.4218 67.7443C47.0738 68.2483 46.5764 68.3166 46.0387 68.2767C45.6505 68.2483 45.2536 68.2055 44.8769 68.1059C43.3385 67.7016 41.8087 67.2717 40.2732 66.856C39.931 66.7621 39.5802 66.6937 39.1517 66.5941C39.0166 67.9379 39.0309 69.202 39.0309 70.4605C39.0309 71.7274 39.0482 72.9972 39.1258 74.2614C39.2035 75.4942 39.3674 76.7213 39.5054 78.0594C39.3473 77.9313 39.2955 77.9085 39.2754 77.8687C39.2207 77.7519 39.1718 77.6323 39.1316 77.5099C38.7233 76.2714 38.5364 74.9902 38.5335 73.6919C38.5306 72.1146 38.5766 70.5345 38.6054 68.9572C38.6197 68.234 38.6427 67.508 38.6571 66.7848C38.6629 66.5286 38.6773 66.2496 38.2229 66.2126ZM65.5061 44.3666C64.977 44.4549 64.6089 44.4691 64.2754 44.583C60.54 45.8585 58.3345 49.816 58.5559 52.777C58.5904 53.2411 58.6709 53.6283 59.131 53.7934C58.9844 53.9415 58.8607 54.0611 58.622 54.3002C59.1109 54.397 59.4329 54.4682 59.7579 54.5195C60.2985 54.6077 60.8448 54.6675 61.3797 54.7785C61.5982 54.8241 61.8484 54.9266 61.9836 55.086C62.2136 55.3565 62.3804 55.6896 62.5414 56.0085C62.5845 56.0939 62.5472 56.2505 62.4897 56.3416C62.4638 56.3843 62.2769 56.3843 62.2136 56.3359C61.9864 56.1651 61.7794 55.9658 61.5637 55.7779C60.8592 55.1657 60.0397 54.9608 59.1051 55.0376C59.7665 57.9901 63.3236 60.2535 65.4687 59.8977C65.5262 54.7842 65.6499 49.6537 65.5061 44.3666ZM66.7541 59.9603C66.9525 59.9461 67.1107 59.966 67.2516 59.9204C69.4197 59.2257 71.1824 58.0243 72.2234 55.9459C73.0113 54.3714 73.319 52.7058 72.9969 50.9748C72.4362 47.9512 70.7741 45.7873 67.8123 44.6997C67.4845 44.5802 67.1222 44.5488 66.7886 44.4777C66.5154 45.3574 66.4924 58.719 66.7541 59.9603ZM39.5255 59.203C39.5083 59.4649 39.4968 59.6101 39.4882 59.7553C39.3846 61.381 39.2754 63.0067 39.1776 64.6324C39.1632 64.8887 39.1977 65.1477 39.2035 65.4068C39.2092 65.7086 39.3674 65.8823 39.6578 65.9478C40.115 66.0531 40.5694 66.1727 41.0294 66.2638C42.841 66.6339 44.6469 67.0838 46.5275 66.7905C47.2636 66.6766 48.0055 66.5941 48.7819 66.4916C48.8135 65.4296 48.7905 64.4701 48.8826 63.522C48.9717 62.6166 48.664 61.8935 48.063 61.27C47.7065 60.8998 47.3183 60.544 46.8927 60.2535C44.5175 58.6335 41.8749 58.1751 39.054 58.5396C38.3983 58.625 38.3811 58.6392 38.3581 59.314C38.2977 61.0707 38.2459 62.8302 38.1942 64.5869C38.1884 64.7947 38.1654 65.0082 38.2143 65.2047C38.2459 65.3385 38.3897 65.4438 38.4846 65.5606C38.5392 65.5435 38.591 65.5264 38.6456 65.5093C38.7031 64.9 38.7721 64.2908 38.8124 63.6786C38.8872 62.5683 38.9389 61.4579 39.0137 60.3475C39.0367 59.9603 39.0309 59.5389 39.5255 59.203ZM22.6144 67.4226C22.4764 67.2091 22.4218 67.0923 22.3384 67.0012C20.6217 65.1022 18.3759 64.3363 15.9259 64.5812C13.2085 64.8516 10.6838 65.7599 8.45526 67.4852C5.08512 70.096 2.64378 73.3161 1.30378 77.3363C0.33472 80.2432 0.584891 83.0447 2.24408 85.6726C2.41374 85.9431 2.62653 86.1908 2.81919 86.447C2.87958 86.4243 2.94284 86.4043 3.00323 86.3815C2.96872 85.9858 2.93997 85.5872 2.89683 85.1915C2.5719 82.2732 2.81344 79.4033 3.79113 76.6273C5.2289 72.5417 7.74788 69.3842 11.857 67.6333C14.537 66.4916 17.3119 66.0674 20.1904 66.6425C20.961 66.8019 21.7058 67.1265 22.6144 67.4226ZM86.0088 138.29C86.0663 138.293 86.1209 138.296 86.1784 138.302C86.2244 138.005 86.279 137.707 86.3164 137.41C86.4084 136.719 86.4803 136.024 86.5839 135.335C86.8829 133.336 87.0497 131.329 87.0727 129.31C87.09 127.656 87.1388 126.002 87.2021 124.348C87.3487 120.521 87.5443 116.698 87.2711 112.871C87.2596 112.729 87.2222 112.589 87.1963 112.441C86.3768 112.88 85.6119 113.29 84.7809 113.737C85.218 121.874 85.911 130.068 86.0088 138.29ZM68.6376 79.2609C68.1919 79.8389 68.258 80.3428 68.258 80.8268C68.2753 85.9203 68.2954 91.0167 68.3213 96.1101C68.3241 96.6426 68.2839 97.1294 67.8583 97.5309C67.5851 97.7899 67.5506 98.1487 67.7605 98.459C68.1228 98.9886 68.1228 99.5751 68.1257 100.173C68.1516 104.233 68.1804 108.293 68.212 112.353C68.2149 112.74 68.2321 113.13 68.2666 113.515C68.2781 113.631 68.3701 113.742 68.4248 113.856C68.4852 113.845 68.5455 113.833 68.6059 113.822C68.6059 113.495 68.6059 113.167 68.6059 112.84C68.6059 108.649 68.6088 104.461 68.5973 100.27C68.5973 99.6861 68.6634 99.1423 69.0171 98.6498C69.2213 98.3651 69.368 97.9921 69.1523 97.7045C68.7238 97.1379 68.8647 96.5429 68.8992 95.9251C69.2098 90.601 69.2616 85.2797 68.7727 79.9613C68.7612 79.7791 68.7037 79.5912 68.6376 79.2609ZM64.0741 109.036C64.0194 109.028 63.9648 109.022 63.9102 109.013C63.8009 109.272 63.6888 109.531 63.5795 109.791C62.7772 111.735 61.7851 113.58 60.5659 115.3C60.1461 115.892 59.7205 116.481 59.3266 117.091C59.1396 117.381 58.7428 117.66 58.9527 118.041C59.1626 118.42 59.6256 118.389 60.0138 118.389C61.0059 118.386 61.9979 118.369 62.9871 118.34C63.9217 118.315 64.0108 118.224 64.0223 117.298C64.0568 114.713 64.0827 112.128 64.1086 109.543C64.1143 109.375 64.0884 109.204 64.0741 109.036ZM84.5077 110.337C84.5911 110.38 84.6716 110.423 84.755 110.465C84.9103 110.26 85.0656 110.058 85.218 109.85C87.4408 106.849 86.8858 103.066 84.8959 100.74C84.7291 100.546 84.525 100.378 84.315 100.224C84.1856 100.13 84.0189 100.093 83.7716 99.9908C84.0217 103.513 84.2633 106.926 84.5077 110.337ZM34.2202 46.1489C34.1684 46.1432 34.1166 46.1375 34.0649 46.1318C34.039 46.4251 34.0045 46.7155 33.993 47.0088C33.8693 50.1121 33.7543 53.2126 33.6278 56.316C33.5559 58.1267 33.4668 59.9347 33.3891 61.7426C33.369 62.2494 33.2166 62.6935 32.9032 63.1064C32.4172 63.7413 32.4201 64.1626 32.9664 64.7605C33.2741 65.0965 33.3719 65.4353 33.3604 65.8766C33.2597 69.8853 33.1763 73.8969 33.0901 77.9057C33.0613 79.2239 33.0297 80.545 33.0124 81.8632C33.0095 82.1393 33.0556 82.4184 33.0814 82.6974C33.1562 82.6945 33.231 82.6917 33.3057 82.6888C33.3287 82.4212 33.3604 82.1564 33.369 81.8888C33.4811 78.1648 33.5875 74.4407 33.7026 70.7167C33.7486 69.2163 33.8061 67.7158 33.8636 66.2183C33.8837 65.6716 33.9585 65.1563 34.3754 64.7178C34.9333 64.1256 34.9275 63.3142 34.3179 62.796C33.878 62.423 33.7888 62.0245 33.809 61.5034C33.9585 57.5488 34.0994 53.5913 34.223 49.6338C34.2518 48.475 34.2202 47.3106 34.2202 46.1489ZM24.7567 40.0333C25.306 39.4667 25.7689 38.9059 26.321 38.4475C27.1779 37.7328 28.0722 37.0552 28.9895 36.4175C31.7846 34.4701 34.5969 32.5482 37.4005 30.6094C37.8376 30.3076 38.2862 30.0883 38.8412 30.0969C39.3703 30.1026 39.8332 29.9004 40.0546 29.3965C40.2761 28.8954 40.647 28.5594 41.087 28.2662C43.0136 26.985 44.9402 25.7009 46.8668 24.4197C47.4822 24.0097 48.1004 23.5998 48.7158 23.1898C48.0602 23.3976 47.4649 23.7023 46.9042 24.0553C44.8827 25.3337 42.8669 26.6234 40.8569 27.9188C40.4285 28.195 40.023 28.4142 39.4767 28.269C38.8872 28.1124 38.5737 28.2235 38.3236 28.753C38.0274 29.3794 37.5299 29.7581 36.9778 30.1111C33.3316 32.4344 29.8925 35.0423 26.4504 37.6446C25.976 38.0033 25.5504 38.4304 25.1277 38.8489C24.82 39.1479 24.6245 39.5095 24.7567 40.0333ZM91.8576 103.419C91.7857 103.419 91.7167 103.419 91.6448 103.419C91.5988 103.869 91.5125 104.316 91.5125 104.765C91.5097 108.464 91.5212 112.165 91.5327 115.863C91.5355 116.362 91.5298 116.84 91.1445 117.239C90.923 117.469 90.9144 117.782 91.1301 118.019C91.6189 118.554 91.5959 119.203 91.5988 119.849C91.6161 123.212 91.6304 126.574 91.6506 129.94C91.6506 130.159 91.6764 130.378 91.6908 130.597C91.7426 130.603 91.7972 130.606 91.849 130.612C91.8749 130.321 91.918 130.031 91.9209 129.74C91.9496 126.403 91.9755 123.067 91.9985 119.727C92.0014 119.149 92.033 118.611 92.5362 118.178C92.8727 117.888 92.8813 117.355 92.5564 117.153C92.0819 116.86 92.102 116.456 92.0963 116.014C92.0416 112.082 91.9813 108.151 91.9209 104.219C91.9122 103.951 91.8777 103.686 91.8576 103.419ZM74.1069 103.84C74.9436 99.9566 76.9191 97.3857 80.919 96.8305C81.0484 96.039 80.9852 95.3386 80.7264 94.5983C80.5021 94.6809 80.3065 94.735 80.1283 94.8261C79.0125 95.3984 77.9716 96.0817 77.0629 96.95C75.5389 98.4021 74.5411 100.156 74.035 102.183C73.9142 102.673 73.8768 103.171 74.1069 103.84ZM6.12607 79.5855C5.64873 80.9578 5.37555 82.37 5.29791 83.8191C5.18577 85.9374 5.54521 87.9987 6.14045 90.0202C6.75006 92.09 7.54947 94.0744 8.91535 95.7998C9.91604 97.0639 11.2215 97.9665 12.4839 98.9288C12.5845 99.0057 12.7226 99.0939 12.8318 99.0825C13.0159 99.0655 13.1913 98.9715 13.3724 98.9089C13.3092 98.7551 13.2862 98.5473 13.1712 98.459C12.8002 98.1743 12.4063 97.9152 12.0037 97.6789C10.4135 96.7479 9.1914 95.4638 8.25685 93.8979C6.54302 91.028 5.73212 87.9019 5.61422 84.5879C5.55384 82.8995 5.81263 81.2425 6.12607 79.5855ZM30.6113 90.8287C30.5567 90.8003 30.5049 90.7746 30.4503 90.7462C30.2605 91.048 30.065 91.3469 29.8781 91.6544C28.5151 93.8979 26.9795 96.0162 25.1076 97.8782C23.7848 99.1907 22.2234 100.099 20.3629 100.415C19.0632 100.637 17.7605 100.722 16.5729 99.9566C16.5097 99.9139 16.4263 99.857 16.363 99.8655C16.1962 99.8883 15.9633 99.8968 15.8885 100.005C15.8224 100.096 15.8828 100.378 15.9834 100.461C16.2164 100.654 16.4953 100.871 16.78 100.916C17.5995 101.047 18.4392 101.212 19.2558 101.158C21.677 100.996 23.71 99.9395 25.3692 98.2056C27.0054 96.4917 28.4547 94.6296 29.6509 92.5854C29.9902 92.0103 30.2922 91.4152 30.6113 90.8287ZM53.2505 60.0998C53.1528 60.097 53.055 60.0941 52.9572 60.0941C52.9371 60.4671 52.9026 60.8429 52.8968 61.2159C52.8422 64.5755 52.7904 67.9351 52.7473 71.2947C52.7416 71.642 52.6955 71.921 52.4252 72.1972C51.9565 72.6698 51.9278 73.0001 52.339 73.4898C52.6208 73.8258 52.6582 74.1674 52.661 74.5603C52.6812 76.4223 52.707 78.2815 52.7415 80.1407C52.7531 80.7841 52.7933 81.4304 52.8192 82.0739C52.9256 79.668 52.9745 77.2679 53.0147 74.865C53.0233 74.3155 53.0636 73.8172 53.5122 73.3845C53.863 73.0485 53.863 72.6357 53.5007 72.3595C52.9227 71.9182 52.963 71.363 52.9831 70.7594C53.0809 67.5052 53.1643 64.2509 53.2534 60.9938C53.2563 60.6977 53.2505 60.3988 53.2505 60.0998ZM66.6822 75.6678C67.3551 75.4144 70.2076 73.2421 70.6821 72.6129C69.3737 72.4962 68.1459 72.4193 66.9266 72.741C66.8058 72.7723 66.6477 72.9375 66.6362 73.0542C66.5528 73.9197 66.5212 74.7852 66.6822 75.6678ZM50.1219 35.0423C50.0788 35.0423 50.0385 35.0423 49.9954 35.0395C49.9839 35.2843 49.9638 35.5263 49.9638 35.7712C49.9551 36.9613 49.9523 38.1514 49.9408 39.3415C49.935 39.9963 49.8401 40.6284 49.4088 41.1693C49.0896 41.5708 49.104 42.0121 49.4318 42.3793C49.8171 42.8093 49.8545 43.3018 49.8459 43.8257C49.8171 45.4827 49.797 47.1369 49.7797 48.7939C49.7769 48.979 49.8056 49.164 49.82 49.3491C50.0098 48.7398 50.0817 48.1305 50.0932 47.5184C50.1191 46.2258 50.1248 44.9304 50.1219 43.6378C50.1219 43.2534 50.2082 42.9772 50.559 42.7267C51.1542 42.3053 51.2693 41.5309 50.7402 41.0412C50.1622 40.5088 50.1018 39.908 50.1191 39.219C50.1392 38.4446 50.1219 37.6674 50.1219 36.8901C50.1219 36.278 50.1219 35.6601 50.1219 35.0423ZM88.7865 84.938C88.8354 84.9324 88.8814 84.9295 88.9303 84.9238C88.9418 84.7046 88.9591 84.4854 88.9619 84.2633C88.9734 83.1785 88.9734 82.0938 88.9936 81.009C88.9993 80.6759 88.9993 80.3229 89.1028 80.0125C89.307 79.4004 89.3789 78.8253 89.0798 78.216C88.9734 77.9996 88.9936 77.7121 88.9849 77.453C88.9734 76.9177 88.9821 76.3796 88.9821 75.8444C88.8642 76.0465 88.8613 76.2543 88.8268 76.4536C88.6888 77.285 88.8814 78.1676 88.4271 78.9534C88.3696 79.0531 88.4616 79.241 88.4932 79.3862C88.5766 79.7848 88.729 80.1777 88.7376 80.5763C88.7664 81.7891 88.7376 83.0049 88.7405 84.2206C88.7376 84.4626 88.7693 84.6989 88.7865 84.938ZM81.8737 100.068C81.7386 100.771 82.1411 110.733 82.3022 111.408C82.3223 111.49 82.4028 111.561 82.4546 111.635C82.5063 111.624 82.5581 111.613 82.607 111.601C82.4373 107.758 82.1411 103.92 81.8737 100.068ZM23.1896 70.3238C23.3851 70.4889 23.5835 70.6512 23.779 70.8163C24.6705 71.568 25.1363 72.5075 25.0127 73.6806C24.9321 74.4493 24.8746 75.2294 24.3685 75.8785C24.2276 76.0607 24.15 76.2914 24.3944 76.3996C24.5353 76.4622 24.8344 76.4081 24.9235 76.2971C25.1104 76.0664 25.2772 75.7732 25.3203 75.4856C25.4066 74.902 25.4354 74.3041 25.4325 73.7119C25.421 72.1346 24.7193 70.9616 23.1896 70.3238ZM65.5866 123.22C65.4112 123.061 65.3479 122.953 65.2732 122.944C62.9727 122.725 60.6666 122.6 58.2655 122.722C58.7399 122.941 64.5025 123.323 65.5866 123.22ZM75.1564 68.1486C72.7323 67.508 69.3335 67.9294 68.1573 69.4839C68.35 69.3842 68.4622 69.3387 68.5628 69.2704C69.8338 68.4048 71.2313 68.0433 72.7726 68.1401C73.5605 68.1885 74.3599 68.1486 75.1564 68.1486ZM73.0429 123.408C71.4499 123.138 67.5017 122.978 66.8576 123.158C67.7433 123.494 72.209 123.673 73.0429 123.408ZM89.4479 67.5963C89.422 67.545 89.3961 67.4938 89.3674 67.4397C89.0971 67.5735 88.821 67.7016 88.5536 67.8383C87.9641 68.1429 87.3372 68.3052 86.6759 68.2967C84.7234 68.271 82.7738 68.234 80.8213 68.1999C80.6775 68.197 80.5366 68.1999 80.3928 68.1999C80.6286 68.3536 80.8759 68.4219 81.1261 68.4305C83.0268 68.4846 84.9247 68.5472 86.8254 68.5614C87.8146 68.57 88.6888 68.2055 89.4479 67.5963ZM81.9341 96.745C81.9772 95.8995 81.96 95.0823 81.6868 94.2538C81.2526 94.5556 81.2526 94.5556 81.4453 96.1671C81.4798 96.4176 81.4021 96.7621 81.9341 96.745ZM42.3838 83.654C41.3429 83.207 39.3128 83.3123 38.6945 83.8533C39.9224 83.785 41.1157 83.7223 42.3838 83.654ZM79.4985 68.2853C79.5158 68.0119 79.2656 67.7813 78.9493 67.7728C78.6013 67.7642 78.3253 67.9977 78.3224 68.2995C78.3195 68.5984 78.5467 68.8177 78.8601 68.8205C79.188 68.8262 79.4813 68.5785 79.4985 68.2853ZM39.0626 80.1748C39.0108 80.5706 39.1028 80.7528 39.399 80.7699C40.1668 80.8154 40.9374 80.8496 41.7081 80.8895C41.7167 80.841 41.7253 80.7898 41.7368 80.7414C40.8655 80.5563 39.9971 80.3713 39.0626 80.1748ZM19.1695 68.8746C18.097 68.7664 16.941 68.9657 16.0841 69.4469C17.1682 69.2447 18.1574 69.0597 19.1695 68.8746ZM52.5834 84.2633C52.6812 84.2633 52.7789 84.2633 52.8796 84.2633C52.8566 83.8675 52.8336 83.4689 52.8106 83.0732C52.7646 83.076 52.7214 83.076 52.6754 83.0789C52.6438 83.4746 52.615 83.8704 52.5834 84.2633Z" fill="white"/>
<path d="M97.0483 101.238C97.3215 101.619 97.2985 102.038 97.2985 102.434C97.2956 104.088 97.2697 105.742 97.2525 107.396C97.2295 109.514 97.1748 111.635 97.1892 113.754C97.2093 116.675 97.264 119.596 97.3359 122.517C97.3761 124.197 97.471 125.874 97.5659 127.551C97.6234 128.587 97.9972 129.513 98.6672 130.315C98.7161 130.372 98.7334 130.452 98.811 130.62C98.6126 130.552 98.4573 130.546 98.3768 130.466C97.7183 129.831 97.3617 129.031 97.1921 128.152C97.1001 127.67 97.0339 127.178 97.0224 126.691C96.8901 121.031 96.7176 115.371 96.6716 109.711C96.6486 106.949 96.8671 104.185 96.9764 101.423C96.9793 101.377 97.0138 101.329 97.0483 101.238Z" fill="white"/>
<path d="M93.3903 84.3202C93.3644 85.664 93.1027 86.9566 92.0388 87.9161C91.2882 88.588 90.4687 89.203 89.606 89.7297C88.7434 90.2593 88.0331 90.8885 87.4264 91.6914C86.9807 92.2807 86.4027 92.7847 85.8304 93.263C85.4221 93.6047 85.2036 93.6018 84.5077 93.5676C84.6601 93.4367 84.7521 93.3142 84.8758 93.2602C85.8075 92.8359 86.5235 92.1612 87.0842 91.3355C87.6679 90.4757 88.4184 89.8322 89.3214 89.3226C89.885 89.0037 90.4112 88.6137 90.9288 88.2208C91.9295 87.4577 92.6685 86.5182 92.8957 85.2427C92.9561 84.9067 93.1056 84.585 93.2149 84.2576C93.2724 84.2747 93.3328 84.2974 93.3903 84.3202Z" fill="white"/>
<path d="M94.7393 134.521C94.5725 134.669 94.4058 134.82 94.2361 134.965C93.0801 135.97 91.9242 136.975 90.7711 137.983C89.6094 138.999 88.9652 140.297 88.7122 141.798C88.5655 142.663 88.623 143.498 89.1953 144.232C89.247 144.3 89.2585 144.4 89.3247 144.579C88.8013 144.429 88.6288 144.101 88.5051 143.737C88.2463 142.982 88.2837 142.202 88.3987 141.436C88.5972 140.129 89.1349 138.962 90.0551 137.994C91.3117 136.67 92.7437 135.554 94.2936 134.586C94.4115 134.512 94.5524 134.478 94.6818 134.424C94.6991 134.455 94.7192 134.489 94.7393 134.521Z" fill="white"/>
<path d="M95.4862 68.2881C95.4948 68.4105 95.5035 68.4447 95.4948 68.4532C94.2037 69.4013 93.9075 70.8078 93.7034 72.2627C93.4676 73.9538 93.2922 75.645 93.5021 77.3561C93.5941 78.0992 93.5941 78.8509 93.6286 79.5997C93.6315 79.6879 93.5941 79.779 93.4561 79.8787C93.4101 79.6196 93.3497 79.3605 93.318 79.1014C92.9586 76.2913 92.9126 73.4898 93.5366 70.6996C93.7293 69.8341 94.1117 69.0938 94.8622 68.5813C95.0405 68.4618 95.2562 68.3963 95.4862 68.2881Z" fill="white"/>
<path d="M80.7347 101.187C80.4615 101.369 80.197 101.565 79.9094 101.73C78.995 102.254 78.5579 103.051 78.4745 104.076C78.3911 105.079 78.3106 106.084 78.1726 107.08C78.0518 107.96 77.7297 108.783 77.1633 109.486C76.4473 110.377 75.3804 110.707 74.2877 110.386C74.2015 110.36 74.1296 110.275 73.957 110.149C74.3222 110.149 74.5695 110.135 74.8139 110.152C75.8923 110.229 76.6543 109.753 77.2208 108.865C77.8045 107.951 77.8994 106.926 78 105.896C78.0719 105.175 78.1007 104.452 78.1783 103.732C78.3307 102.288 79.2221 101.337 80.7347 101.187Z" fill="white"/>
<path d="M83.2511 73.4443C82.5495 73.7233 76.0047 73.7774 74.2478 73.5866C74.2449 73.5696 74.2334 73.5496 74.2391 73.5354C74.2478 73.5126 74.2621 73.4728 74.2794 73.4699C74.4318 73.4443 74.5871 73.4044 74.7395 73.4016C77.4224 73.3817 80.1053 73.3646 82.791 73.3503C82.8859 73.3503 82.9837 73.3902 83.2511 73.4443Z" fill="white"/>
<path d="M42.3896 37.394C42.3551 37.5677 42.3637 37.6531 42.3234 37.6987C41.2825 38.9172 40.9949 40.412 40.7189 41.921C40.0949 45.309 39.8361 48.7313 39.7412 52.1677C39.7297 52.6204 39.6607 53.0703 39.6204 53.5201C39.56 53.523 39.4968 53.523 39.4364 53.5258C39.4019 53.3436 39.3444 53.1585 39.3415 52.9763C39.2984 50.1548 39.4709 47.3476 39.8361 44.5517C40.0288 43.094 40.3077 41.6476 40.5607 40.1985C40.7361 39.1963 41.2394 38.3621 41.9611 37.656C42.0531 37.562 42.1912 37.5108 42.3896 37.394Z" fill="white"/>
<path d="M10.5343 67.2432C10.7615 67.1008 10.98 66.9442 11.2158 66.8218C12.8175 65.9762 14.537 65.4666 16.294 65.0509C16.4176 65.0224 16.5614 64.9826 16.6707 65.0196C16.7742 65.0538 16.9324 65.199 16.918 65.2588C16.8864 65.3812 16.757 65.4808 16.6649 65.5862C16.6534 65.6004 16.6132 65.589 16.5873 65.589C14.9195 65.4438 13.499 66.2097 12.0267 66.7877C11.5522 66.9756 11.0835 67.1834 10.6119 67.3827C10.586 67.3343 10.5602 67.2888 10.5343 67.2432Z" fill="white"/>
<path d="M2.35295 78.1704C2.19767 79.0046 2.01363 79.836 1.89861 80.6759C1.79797 81.4161 1.77496 82.1649 2.04526 82.8938C2.09702 83.0304 2.05389 83.2013 2.05389 83.3579C1.9935 83.3778 1.93024 83.4006 1.86985 83.4205C1.77496 83.2696 1.61681 83.1272 1.59668 82.9678C1.38676 81.3279 1.57942 79.7335 2.23505 78.2046C2.24367 78.1818 2.32419 78.1903 2.37308 78.1846C2.3702 78.1846 2.35295 78.1704 2.35295 78.1704Z" fill="white"/>
<path d="M2.3706 78.1847C2.33322 77.6381 2.47412 77.1398 2.93996 76.5106C2.74443 77.063 2.54601 77.6125 2.35048 78.1676C2.35335 78.1705 2.3706 78.1847 2.3706 78.1847Z" fill="white"/>
<path d="M63.6345 112.04C63.6662 112.273 63.7352 112.512 63.7208 112.743C63.6403 114.055 63.5454 115.368 63.439 116.678C63.3872 117.315 63.1601 117.535 62.4987 117.58C62.0357 117.612 61.5699 117.586 61.1041 117.586C61.0954 117.535 61.0897 117.486 61.0811 117.435C61.4462 117.372 61.8114 117.31 62.1795 117.247C62.8898 117.128 62.9415 117.076 63.0019 116.373C63.1026 115.166 63.1946 113.959 63.2981 112.752C63.3182 112.512 63.3786 112.276 63.4217 112.04C63.4936 112.037 63.5626 112.037 63.6345 112.04Z" fill="white"/>
</svg>
