<svg width="540" height="114" viewBox="0 0 540 114" fill="none" xmlns="http://www.w3.org/2000/svg">
<path d="M310.556 73.5928C311.609 72.6035 312.655 71.6054 313.717 70.6162C315.298 69.1366 315.807 67.3331 315.869 65.1794C316.045 58.9898 316.484 52.8089 316.703 46.6192C316.949 39.6767 317.16 32.7341 317.221 25.7916C317.239 23.3139 316.879 20.8276 315.843 18.4813C314.956 16.4764 313.533 15.3121 311.381 14.9881C310.968 14.9268 310.564 14.7955 310.134 14.4803C310.494 14.3578 310.837 14.1564 311.206 14.1214C316.308 13.6224 321.323 14.8393 324.028 19.9521C324.651 21.1252 325.6 22.1408 326.495 23.1388C327.497 24.2595 328.111 25.4589 328.041 26.991C327.734 33.2944 327.444 39.6066 327.154 45.9101C326.987 49.4033 326.812 52.8877 326.653 56.3808C326.39 62.2115 326.135 68.0422 325.881 73.8729C325.863 74.3457 325.881 74.8185 326.162 75.5539C326.715 75.0811 327.365 74.6784 327.795 74.1093C330.895 70.0033 332.748 65.2757 334.505 60.5131C336.665 54.6386 337.798 48.5453 338.316 42.3206C338.36 41.8304 338.272 41.1212 339.054 41.2788C339.353 41.3401 339.713 41.9004 339.765 42.2769C340.503 47.8449 342.47 52.9052 345.667 57.5365C348.1 61.0647 350.409 64.6892 351.613 68.8652C352.245 71.0627 352.605 73.2601 351.613 75.4838C349.926 79.2221 345.772 81.0782 341.741 79.7387C339.555 79.012 337.385 78.5305 335.076 79.0733C332.581 79.6599 330.93 81.1657 330.008 83.5032C329.666 84.3875 329.481 85.3593 328.34 85.6394C328.199 85.6744 328.085 86.0159 328.05 86.226C327.742 88.1433 328.278 89.7542 329.877 90.9536C329.912 90.9798 329.947 90.9886 329.973 91.0236C332.274 93.3261 334.812 93.2036 337.491 91.7678C337.631 91.689 337.781 91.5752 337.921 91.5752C338.457 91.5839 338.984 91.6364 339.519 91.6802C339.203 92.0917 338.984 92.7045 338.571 92.8709C335.638 94.0615 332.643 94.1666 329.798 92.722C327.426 91.5139 326.056 88.047 326.882 85.5256C328.366 80.9643 331.211 77.69 336.103 76.657C337.403 76.3856 338.799 76.622 340.161 76.5869C341.074 76.5694 342.014 76.622 342.892 76.4294C345.404 75.869 346.668 74.337 346.589 71.7718C346.449 67.2718 343.753 63.945 341.285 60.4343C341.092 60.6444 341.021 60.6795 341.004 60.7407C340.925 61.0034 340.854 61.2748 340.784 61.5374C341.127 61.7388 341.557 61.8438 341.75 62.124C343.559 64.6979 345.307 67.3068 345.799 70.5023C346.299 73.8117 345.447 75.1511 342.145 75.8603C340.635 76.1842 339.036 76.1054 337.482 76.2105C337.456 76.0091 337.429 75.8165 337.412 75.6152C338.22 75.5189 339.036 75.4313 339.844 75.3175C340.986 75.1599 342.154 75.0899 343.243 74.7747C344.648 74.3632 345.272 73.5403 345.07 72.1045C344.842 70.4761 344.517 68.8127 343.867 67.3156C343.085 65.5121 341.917 63.8837 340.758 61.8964C340.371 62.9207 340.073 63.6648 339.809 64.4178C337.833 69.8983 334.584 74.4508 329.877 77.9527C327.444 79.7649 324.757 80.8505 321.7 80.8505C319.636 80.8505 317.573 80.6929 315.359 80.6054C315.359 78.5042 315.359 76.5432 315.359 74.5821C315.263 74.5471 315.166 74.5033 315.061 74.4683C314.552 75.0811 314.033 75.6939 313.524 76.3155C312.769 77.2348 312.057 78.2066 311.258 79.0908C309.142 81.4283 305.901 81.6997 303.424 79.7299C302.818 79.2484 302.353 78.977 301.536 79.4323C296.17 82.4614 290.98 81.6297 285.992 78.4955C285.175 77.9877 284.437 77.7776 283.533 77.9439C282.558 78.119 281.557 78.1978 280.599 78.4517C279.502 78.7494 278.395 79.0821 277.385 79.5986C271.694 82.4964 265.986 82.2863 260.198 79.9313C259.074 79.476 257.862 79.2309 256.703 78.8719C255.719 78.5655 254.701 78.3379 253.778 77.8914C252.953 77.4887 252.487 77.6463 252.189 78.4254C251.451 80.3428 250.748 82.2776 250.028 84.2036C249.905 84.5363 249.791 84.8602 249.563 85.4818C248.799 82.3476 248.386 79.3447 246.331 76.8583C245.848 77.4099 245.488 77.9439 245.005 78.3291C243.644 79.406 242.335 80.6229 240.816 81.4021C238.568 82.549 237.118 82.12 235.362 80.2902C235.037 79.9575 234.721 79.6161 234.282 79.1521C232.113 82.6365 228.679 84.2737 225.341 86.0771C222.724 87.4867 220.415 89.3164 218.439 91.5314C217.025 93.1248 216.138 94.9458 216.199 97.1345C216.225 98.2463 216.603 99.1831 217.631 99.6909C218.649 100.207 218.992 100.855 218.228 101.941C220.195 103.123 222.197 103.132 224.182 102.361C225.456 101.871 226.624 101.179 228.055 101.775C228.24 101.853 228.573 101.661 228.793 101.521C230.901 100.181 232.086 98.2463 232.517 95.8213C232.675 94.937 232.508 94.2191 231.849 93.5362C231.568 93.2386 231.621 92.617 231.524 92.1355C232.016 92.2405 232.683 92.188 232.982 92.4857C234.405 93.939 234.291 95.7162 233.746 97.4934C232.683 100.995 228.196 104.427 224.498 104.611C217.358 104.979 212.888 100.566 212.827 93.4224C212.765 86.7513 212.423 80.0889 212.194 73.4265C212.142 71.8156 212.045 70.2134 211.755 68.6113C211.755 74.2582 211.755 79.9138 211.755 85.5606C211.667 85.5694 211.588 85.5781 211.501 85.5781C211.483 85.1054 211.448 84.6238 211.439 84.1511C211.263 78.9157 211.079 73.6716 210.939 68.4362C210.912 67.4031 210.473 66.8253 209.498 66.5364C207.505 65.9498 205.581 65.8448 203.799 67.158C203.632 67.2806 203.395 67.3156 203.131 67.4207C203.667 65.337 205.353 64.908 210.57 65.5034C210.429 62.2028 210.289 58.946 210.148 55.698C209.981 55.6367 209.823 55.5754 209.656 55.5054C209.331 55.9081 208.848 56.2583 208.708 56.7135C208.26 58.1493 208.102 59.6814 207.531 61.0559C207.048 62.2115 206.266 63.3059 205.406 64.2339C204.659 65.0481 203.702 64.7855 202.868 64.0851C202.964 63.9713 203.008 63.875 203.052 63.875C205.836 63.6561 206.697 62.8419 207.101 60.0228C207.241 59.0423 207.382 58.0618 207.531 57.09C207.689 56.0219 208.304 55.304 209.252 54.8137C209.569 54.6474 209.823 54.3497 210.28 53.9558C208.743 53.8419 207.557 54.6036 207.092 56.0832C206.723 57.2738 206.662 58.5608 206.46 59.804C205.941 63.0433 205.16 63.551 201.752 62.658C201.691 64.2339 201.515 65.766 201.612 67.2806C201.717 68.9527 201.102 70.1084 199.724 70.9663C199.293 71.2377 198.907 71.5879 198.178 72.157C199.039 72.2183 199.548 72.2621 200.066 72.2796C201.779 72.3409 203.5 72.3146 205.204 72.4459C207.724 72.6473 208.69 74.2406 207.338 76.3768C205.906 78.6356 204.088 80.6579 202.341 82.9079C200.435 80.2027 197.967 81.5859 195.789 81.262C195.772 81.4196 195.745 81.5859 195.728 81.7435C196.281 81.7435 196.834 81.7172 197.379 81.7523C197.914 81.7785 198.45 81.8661 198.986 81.9186C198.995 82.0499 198.995 82.1725 199.003 82.3038C198.433 82.3476 197.862 82.4089 197.282 82.4351C195.57 82.5052 195.429 82.6015 195.412 84.2474C195.368 88.6948 195.35 93.1423 195.368 97.5985C195.368 98.4564 195.499 99.3582 195.772 100.172C196.422 102.098 196.263 103.946 195.719 105.872C195.341 107.229 195.315 108.682 195.087 110.083C195.016 110.521 194.797 110.932 194.647 111.352C194.489 111.335 194.331 111.317 194.182 111.3C194.094 110.88 193.989 110.459 193.927 110.03C193.629 107.885 193.339 105.732 193.067 103.587C193.005 103.079 192.9 102.536 193.032 102.063C193.989 98.6228 194.191 95.1121 194.156 91.5752C194.129 88.6423 194.147 85.7094 194.147 82.7241C190.098 82.0762 186.032 82.8466 182.089 82.0674C182.098 81.9186 182.106 81.761 182.106 81.6122C185.918 81.6122 189.738 81.6122 193.55 81.6122C193.55 81.4721 193.55 81.332 193.558 81.192C191.574 81.1394 189.589 81.0957 187.604 81.0256C185.584 80.9556 183.564 80.8593 181.263 80.763C181.5 81.5334 181.702 82.3388 182.001 83.1093C182.256 83.7659 182.695 84.37 182.897 85.0353C182.993 85.368 182.721 85.8057 182.616 86.191C182.194 86.0684 181.597 86.0771 181.386 85.797C179.735 83.547 178.918 80.6142 180.772 77.9527C182.686 75.2124 184.618 72.4984 186.577 69.7932C188.544 67.0792 190.406 64.3302 191.143 60.9859C192.092 56.6698 191.934 52.6075 188.5 49.2807C188.333 49.1231 188.166 48.9743 187.762 48.983C188.096 49.4908 188.474 49.9636 188.746 50.4976C189.484 51.9334 190.195 53.3779 190.889 54.8312C191.003 55.0676 191.073 55.4353 190.968 55.6279C190.704 56.0919 190.327 56.4859 189.993 56.9149C189.852 56.4509 189.571 55.9869 189.589 55.5404C189.65 54.0696 189.167 52.8089 188.28 51.6883C186.902 49.9373 186.023 47.9412 185.646 45.77C185.479 44.807 185.69 43.7827 185.733 42.7846C185.883 42.7321 186.023 42.6796 186.173 42.6358C186.664 43.0998 187.218 43.52 187.63 44.0366C189.396 46.234 191.126 48.4577 193.084 50.9529C193.137 50.2437 193.181 49.841 193.19 49.4383C193.269 43.7214 193.339 37.9958 193.444 32.2789C193.453 31.7536 193.515 31.0269 193.848 30.7293C195.113 29.6262 194.56 28.2779 194.419 26.8334C193.971 27.2449 193.497 27.6301 193.084 28.0678C192.575 28.6194 192.118 29.2497 191.398 28.3917C189.255 30.2565 188.886 35.203 190.634 37.593C190.704 37.5843 190.801 37.593 190.845 37.5493C191.31 37.1465 191.758 36.4374 192.417 37.1465C193.023 37.7944 192.671 38.4948 192.162 39.0551C191.424 39.8693 190.353 39.808 189.58 38.88C187.727 36.6563 187.639 34.1261 188.289 31.4559C189.036 28.3392 190.862 25.8353 192.944 23.5241C194.287 22.0357 194.911 20.4686 194.832 18.4725C194.744 16.135 194.876 13.7887 194.849 11.4424C194.841 10.5407 194.806 9.58641 194.533 8.73719C194.103 7.41522 194.164 6.18955 194.709 4.93761C195.016 4.21971 195.227 3.44929 195.578 2.40747C196.474 4.44734 197.186 6.34713 196.667 8.25568C195.64 12.029 196.334 15.8286 196.009 19.8821C196.571 19.5406 196.948 19.3568 197.265 19.1029C198.828 17.8422 200.655 17.3257 202.604 17.3782C206.547 17.4832 210.499 17.8072 214.443 17.8072C217.174 17.7984 219.905 17.3957 222.637 17.1593C224.217 17.0192 225.368 16.135 226.316 14.9531C228.108 12.7119 228.986 10.1117 229.293 7.30141C229.39 6.39966 229.03 5.6555 228.117 5.30531C227.01 4.86757 225.939 4.83255 224.999 5.70803C224.779 5.91815 224.613 6.18955 224.402 6.4697C223.559 6.04071 223.515 5.52418 224.059 4.85006C225.306 3.28295 227.379 3.08159 228.916 4.40357C231.559 6.67106 232.113 8.91229 230.874 12.1603C229.847 14.8656 227.897 16.8004 225.614 18.385C226.369 19.4005 227.098 20.3636 227.818 21.3354C227.713 21.4404 227.598 21.5455 227.493 21.6505C227.142 21.5017 226.799 21.3616 226.448 21.2128C225.016 20.6175 224.086 20.7838 223.488 22.2021C222.847 23.6992 222.312 25.3451 222.224 26.9472C222.074 29.6699 222.364 32.4189 222.391 35.1592C222.417 38.3635 221.521 41.1037 218.351 42.6446C217.841 42.8897 217.49 43.45 217.06 43.8615C216.366 44.5181 215.725 45.236 214.961 45.7963C213.398 46.9607 212.906 48.0288 213.319 49.8585C213.371 50.0861 213.608 50.2875 213.784 50.4801C213.889 50.5939 214.047 50.6552 214.179 50.7427C215.154 51.3556 216.129 51.9597 217.165 52.6075C219.247 49.7097 222.54 48.4315 225.289 46.4441C225.939 45.9714 227.045 45.9451 227.906 46.0414C228.345 46.0852 228.907 46.8031 229.048 47.3109C229.25 48.0813 228.512 48.0025 227.967 48.1601C227.493 48.2914 226.905 48.7204 226.764 49.1494C226.193 50.9003 225.385 52.6951 225.359 54.4898C225.218 63.7874 225.28 73.085 225.28 82.3826C225.28 82.6102 225.324 82.8379 225.341 83.0655C225.456 83.083 225.57 83.1093 225.675 83.1268C225.789 82.619 225.991 82.1112 225.991 81.6034C226.018 73.3827 226.009 65.1532 226.026 56.9324C226.026 56.2758 226.149 55.6279 226.211 54.9713C226.343 54.9713 226.483 54.9801 226.615 54.9801C226.615 64.0238 226.615 73.0763 226.615 82.0324C226.878 82.1287 226.931 82.1725 226.949 82.155C228.723 80.8593 230.655 79.7212 232.2 78.1891C232.921 77.4799 233.114 76.0354 233.158 74.906C233.377 68.4362 233.491 61.9577 233.597 55.4879C233.623 53.9032 233.518 52.3186 233.421 50.734C233.342 49.4821 232.631 48.7029 231.41 48.379C231.041 48.2827 230.672 48.1688 230.224 48.0375C231.691 46.9869 234.089 47.127 235.362 48.4928C236.618 49.8498 238.005 50.6465 239.876 50.8215C241.413 50.9616 241.764 51.5745 241.773 53.3079C241.782 61.1785 241.782 69.0403 241.799 76.9109C241.799 77.69 241.896 78.4605 241.949 79.2396C242.072 79.3009 242.195 79.3622 242.318 79.4235C243.468 78.1891 244.654 76.9809 245.734 75.6852C246.024 75.335 246.094 74.7222 246.103 74.2231C246.331 63.2971 246.524 52.3799 246.761 41.4539C246.779 40.5872 246.524 40.1407 245.628 39.9919C242.73 39.5016 239.85 38.9063 236.943 38.4598C234.607 38.1008 232.244 38.0045 229.987 38.8975C229.46 39.1076 228.872 39.6066 228.714 40.0969C228.626 40.3771 229.364 40.9111 229.706 41.3401C229.996 41.7078 230.251 42.1105 230.523 42.487C229.996 42.627 229.346 43.0298 228.977 42.8459C227.906 42.3294 226.817 41.699 225.974 40.8761C225.175 40.1057 225.315 39.0201 225.772 37.987C226.044 37.3742 226.255 36.6563 226.228 35.9997C226.158 34.1086 226.799 33.1193 228.661 32.594C232.139 31.6047 235.529 32.2964 238.901 33.1894C241.123 33.7759 243.336 34.415 245.549 35.0366C246.586 35.3255 246.832 34.8966 246.717 33.9423C246.287 30.274 245.33 29.4598 241.852 30.9044C241.571 31.0182 241.264 31.0795 240.895 31.1933C242.23 28.9345 246.068 28.2341 248.342 29.6787C249.335 30.309 250.397 30.8606 251.477 31.3421C253.014 32.025 253.436 32.5503 253.348 34.2399C253.295 35.1767 253.778 35.6232 254.595 35.6144C258.846 35.5882 262.754 34.6602 265.529 31.097C265.836 30.703 266.074 30.2127 266.205 29.7312C266.39 29.0746 266.284 28.488 265.494 28.2079C264.818 27.9715 264.238 27.56 264.554 26.7108C264.897 25.8091 265.626 25.4676 266.557 25.6252C267.821 25.8353 268.743 27.096 268.893 28.5843C268.98 29.4336 269.13 30.3003 269.411 31.1057C270.034 32.9092 269.411 34.9753 267.619 36.5162C265.081 38.6961 262.034 39.6504 258.767 39.9919C257.265 40.1494 255.746 40.1932 254.226 40.237C253.585 40.2545 253.269 40.4383 253.26 41.1212C253.208 52.6425 253.155 64.1639 253.102 75.6852C253.102 75.7552 253.172 75.8165 253.208 75.8866C253.322 75.8866 253.436 75.8866 253.55 75.8953C253.55 64.3039 253.55 52.7126 253.55 41.1212C253.726 41.1037 253.91 41.0774 254.086 41.0599C254.182 41.4714 254.367 41.8741 254.367 42.2856C254.349 53.3692 254.314 64.4528 254.261 75.5364C254.253 77.1122 254.49 77.3486 256.439 77.0772C256.246 66.7028 256.773 56.2758 255.64 45.805C255.807 45.8226 256.053 45.7963 256.229 45.8926C258.161 46.8819 260.233 47.022 262.367 47.092C264.282 47.1533 264.343 47.3284 264.343 49.2369C264.335 56.591 264.326 63.9362 264.326 71.2903C264.326 74.0393 266.109 75.5626 268.928 75.2562C269.402 75.2037 269.876 75.1074 270.342 75.0023C271.501 74.7397 272.037 74.1093 272.028 72.8224C271.984 64.838 272.019 56.8536 272.028 48.8692C272.028 48.3177 272.028 47.7574 272.081 47.2058C272.177 46.2078 272.836 45.7875 273.591 46.4004C275.031 47.5648 276.718 47.7048 278.413 47.8887C279.888 48.0463 280.195 48.3527 280.169 49.841C280.064 56.1532 279.941 62.4742 279.853 68.7864C279.827 70.8876 279.914 72.9975 279.888 75.0986C279.879 76.0704 280.318 76.4731 281.232 76.5169C281.39 76.5257 281.548 76.5432 281.706 76.5519C283.875 76.7095 283.989 76.5432 283.278 74.4858C280.643 66.8078 281.425 59.5238 286.211 52.9052C289.232 48.7291 293.5 46.5404 298.708 46.1727C299.78 46.0939 300.939 45.7788 301.852 45.2447C302.924 44.6144 303.987 44.413 305.146 44.4831C308.58 44.6932 310.152 43.6601 311.337 40.5171C311.53 40.0181 312.145 39.3265 312.558 39.3265C313.392 39.3265 313.55 40.1845 313.41 40.8673C312.98 42.951 312.47 45.0259 311.987 47.1008C311.601 48.7467 310.96 50.3838 310.872 52.0472C310.512 58.8322 310.318 65.6172 310.073 72.4021C310.064 72.6998 310.125 73.0062 310.16 73.3126C310.292 73.4089 310.424 73.5052 310.556 73.5928ZM300.491 58.1406C300.553 58.1406 300.614 58.1406 300.676 58.1406C300.676 56.7485 300.649 55.3653 300.684 53.9733C300.711 52.949 300.254 52.5813 299.244 52.5813C297.005 52.5813 295.362 53.5618 294.194 55.4266C291.208 60.1979 290.62 65.3633 291.735 70.7562C291.902 71.5704 292.534 72.4284 293.202 72.98C294.985 74.4508 297.031 74.7659 299.253 73.9255C300.122 73.5928 300.509 73.0938 300.5 72.1658C300.474 67.4907 300.491 62.8156 300.491 58.1406ZM202.402 26.4657C202.402 34.1962 202.402 41.8479 202.402 49.307C204.466 47.8362 206.591 46.3829 208.638 44.8245C209.015 44.5356 209.323 43.8265 209.261 43.3624C208.927 40.5872 208.927 37.6718 206.477 35.5619C206.978 35.6582 207.391 35.8246 207.68 36.1135C209.314 37.7244 209.744 39.808 209.946 41.9792C209.99 42.4607 210.087 42.9335 210.166 43.415C210.429 42.8021 210.473 42.2156 210.42 41.6378C210.131 38.6436 209.208 35.9646 206.583 34.1699C205.933 33.7322 205.239 33.2944 204.431 33.9248C204.642 34.4413 204.975 34.9141 204.993 35.3956C205.011 35.8246 204.677 36.2711 204.501 36.7C204.036 36.4987 203.245 36.3849 203.175 36.0872C202.947 35.1592 202.754 34.1086 202.991 33.2244C203.456 31.4121 204.861 30.9656 206.521 31.8674C207.039 32.1475 207.584 32.524 208.146 32.5853C209.85 32.7516 210.649 33.8635 211.149 35.273C211.536 36.3499 211.799 37.4792 212.124 38.5823C212.414 39.5541 212.713 40.5171 213.011 41.4802C213.134 41.4627 213.257 41.4451 213.38 41.4189C214.451 36.5425 212.625 31.6223 213.538 26.4744C209.806 26.4657 206.214 26.4657 202.402 26.4657ZM320.225 78.0928C320.383 78.0752 320.541 78.049 320.699 78.0315C320.769 77.5675 320.875 77.1122 320.901 76.6482C321.217 71.0977 321.49 65.5471 321.858 60.0053C321.92 59.1123 322.429 58.2631 322.666 57.3701C322.789 56.9061 322.868 56.3984 322.807 55.9256C322.693 55.0063 322.298 54.0958 322.324 53.1941C322.614 45.1047 322.947 37.0065 323.307 28.917C323.483 24.8635 321.955 21.4842 319.259 18.5688C318.978 18.2712 318.591 18.0698 318.249 17.8247C318.679 18.779 319.268 19.5319 319.838 20.2935C321.648 22.7011 322.552 25.4239 322.429 28.418C322.078 36.7876 321.683 45.1572 321.244 53.518C321.2 54.306 320.752 55.0589 320.55 55.8468C320.444 56.2758 320.409 56.7485 320.462 57.1863C320.55 57.9567 320.866 58.7271 320.84 59.48C320.603 65.1882 320.304 70.8963 320.04 76.6132C320.005 77.0947 320.155 77.5937 320.225 78.0928ZM216.225 67.0705C215.347 67.5782 214.012 67.2543 214.065 68.7952C214.302 76.0441 214.46 83.3019 214.653 90.5596C214.662 90.9273 214.715 91.2863 214.741 91.6452C216.384 83.5207 216.085 75.3087 216.225 67.0705ZM297.382 49.9723C297.356 49.9023 297.33 49.8322 297.303 49.7622C297.057 49.7885 296.785 49.7535 296.565 49.841C291.182 51.9859 287.722 55.7417 286.563 61.5024C286.378 62.4304 285.781 63.2709 285.491 64.1901C285.315 64.7417 285.263 65.3808 285.342 65.9498C285.456 66.7903 285.851 67.5957 285.904 68.4362C286.071 70.8263 286.615 73.0675 288.152 74.9673C289.83 77.0509 293.272 78.1365 295.547 77.1998C294.449 76.9634 293.536 76.727 292.613 76.5869C290.084 76.1842 288.398 74.7484 287.546 72.4109C287.142 71.3078 286.993 70.1084 286.782 68.944C286.606 67.9547 286.826 67.0792 287.678 66.3963C288.459 65.766 288.53 64.9693 287.854 64.2076C287.16 63.4372 287.186 62.6055 287.37 61.6512C288.266 56.9061 290.989 53.5355 295.152 51.2243C295.898 50.7953 296.636 50.3838 297.382 49.9723ZM197.168 67.2981C197.282 67.3068 197.396 67.3068 197.502 67.3156C197.572 66.7991 197.695 66.2825 197.704 65.7572C197.8 62.1415 197.853 58.5258 197.994 54.9188C198.02 54.2972 198.257 53.5968 198.626 53.089C199.179 52.3186 199.162 51.7145 198.714 50.9091C198.389 50.3225 198.169 49.5871 198.169 48.9217C198.134 44.0803 198.16 39.2302 198.16 34.38C198.16 34.0386 198.046 33.6971 197.994 33.3557C197.871 33.3645 197.748 33.3645 197.625 33.3732C197.581 33.8547 197.519 34.345 197.502 34.8265C197.405 39.4315 197.344 44.0366 197.194 48.6416C197.168 49.5608 196.746 50.4538 196.58 51.3731C196.492 51.8459 196.492 52.3536 196.562 52.8351C196.676 53.6056 197.01 54.3585 197.019 55.1202C197.063 58.6921 197.019 62.2728 197.027 65.8448C197.036 66.3263 197.124 66.8078 197.168 67.2981ZM249.624 76.5169C249.756 76.5257 249.879 76.5257 250.011 76.5344C250.081 76.1229 250.195 75.7027 250.204 75.2912C250.265 70.4498 250.283 65.6084 250.38 60.767C250.397 59.9791 250.784 59.1999 250.942 58.4032C251.021 58.0092 250.994 57.5803 250.924 57.195C250.792 56.5122 250.432 55.8468 250.432 55.1814C250.424 49.5871 250.485 43.984 250.503 38.3897C250.503 37.8119 250.397 37.2341 250.336 36.665C250.195 36.6738 250.055 36.6825 249.914 36.6825C249.861 37.4179 249.774 38.1533 249.774 38.8975C249.73 44.1766 249.73 49.4558 249.642 54.7349C249.624 55.6017 249.22 56.4596 249.045 57.3264C248.974 57.6853 249.001 58.0793 249.071 58.4382C249.229 59.2349 249.616 60.0141 249.616 60.802C249.616 65.5646 249.528 70.3272 249.484 75.0899C249.484 75.5539 249.58 76.0354 249.624 76.5169ZM220.74 85.2542C220.854 85.2629 220.968 85.2717 221.082 85.2717C221.161 84.7989 221.293 84.3262 221.319 83.8534C221.53 79.8612 221.723 75.8603 221.908 71.8681C221.916 71.7105 221.872 71.5617 221.855 71.4041C221.732 70.2747 221.521 69.1366 221.512 68.0072C221.495 64.908 221.574 61.8088 221.591 58.7096C221.591 58.1055 221.495 57.5102 221.442 56.9061C221.328 56.8974 221.214 56.8886 221.108 56.8711C220.985 57.4577 220.775 58.053 220.766 58.6396C220.722 61.5374 220.863 64.444 220.669 67.3331C220.476 70.2309 220.265 73.085 220.564 76.0091C220.819 78.4867 220.564 81.0081 220.564 83.512C220.555 84.0986 220.669 84.6764 220.74 85.2542ZM305.989 51.198C305.883 51.1892 305.778 51.1892 305.664 51.1805C305.602 51.5394 305.506 51.8984 305.488 52.2573C305.33 55.3828 305.216 58.517 305.014 61.6425C304.97 62.3078 304.707 63.0257 304.338 63.586C303.943 64.2076 303.881 64.6541 304.232 65.3195C304.549 65.9148 304.768 66.6502 304.768 67.3156C304.768 69.6531 304.636 71.9907 304.592 74.3282C304.584 74.7834 304.715 75.2387 304.777 75.6939C304.891 75.6852 304.996 75.6764 305.111 75.6677C305.172 75.2124 305.269 74.7572 305.286 74.3019C305.392 72.122 305.427 69.942 305.602 67.7708C305.673 66.9041 306.094 66.0637 306.314 65.2057C306.402 64.8467 306.437 64.444 306.393 64.0763C306.27 63.1571 305.945 62.2466 305.945 61.3273C305.936 58.4295 306.05 55.5404 306.103 52.6425C306.112 52.1698 306.033 51.6795 305.989 51.198ZM338.571 56.4334C338.448 56.4159 338.334 56.3896 338.211 56.3721C338.088 56.696 337.956 57.0199 337.842 57.3526C337.245 59.1999 336.683 61.0559 336.05 62.8944C335.603 64.1989 335.278 65.4421 334.039 66.5014C333.108 67.2981 333.337 69.2942 332.555 70.4236C331.194 72.3934 329.455 74.1006 327.857 75.9041C327.532 76.2718 327.101 76.5519 326.724 76.8758C326.776 76.9634 326.829 77.0422 326.882 77.1297C327.347 76.8934 327.839 76.7007 328.261 76.4031C330.456 74.871 332.063 72.8224 333.416 70.5461C333.925 69.6794 334.68 68.9615 335.278 68.1385C335.497 67.8409 335.62 67.4557 335.726 67.088C335.936 66.2913 336.059 65.4771 336.305 64.6892C336.858 62.9119 337.5 61.161 338.026 59.3837C338.29 58.4207 338.387 57.4139 338.571 56.4334ZM187.955 71.9644C189.431 71.9644 190.66 71.9907 191.89 71.9469C192.171 71.9381 192.68 71.658 192.68 71.4916C192.733 69.1453 192.715 66.7991 192.715 64.4528C192.645 64.4528 192.575 64.444 192.505 64.444C191.029 66.8954 189.545 69.3467 187.955 71.9644ZM237.751 54.8225C237.637 54.8225 237.522 54.8137 237.408 54.8137C237.356 55.0589 237.268 55.304 237.259 55.5579C237.215 57.3439 237.145 59.1299 237.154 60.9158C237.162 63.7699 236.671 66.5977 237.136 69.478C237.452 71.4128 237.189 73.4352 237.215 75.4225C237.224 75.8515 237.329 76.2805 237.382 76.7095C237.505 76.7095 237.619 76.7008 237.742 76.7008C237.812 76.2105 237.909 75.7202 237.935 75.2299C238.111 72.227 238.278 69.2329 238.445 66.23C238.462 65.9586 238.409 65.6872 238.374 65.4158C238.251 64.5666 238.023 63.7174 237.997 62.8594C237.926 60.7583 237.953 58.6483 237.918 56.5472C237.909 55.9694 237.812 55.4003 237.751 54.8225ZM347.459 76.1317C347.573 76.2105 347.678 76.298 347.792 76.3768C348.152 75.6852 348.662 75.0286 348.846 74.2932C349.241 72.7173 349.452 71.0977 349.795 69.5131C349.988 68.6026 349.9 67.9372 348.969 67.4207C348.504 67.158 348.188 66.5539 347.889 66.0549C346.229 63.2621 344.596 60.4431 342.927 57.6503C342.672 57.2126 342.295 56.8536 341.979 56.4509C341.891 56.5209 341.803 56.591 341.724 56.661C342.022 57.16 342.321 57.6503 342.611 58.1581C344.657 61.7475 347.494 64.9606 347.994 69.2942C348.012 69.408 348.065 69.5306 348.135 69.6181C349.039 70.8438 348.776 72.192 348.46 73.4965C348.231 74.3982 347.792 75.2562 347.459 76.1317ZM213.687 63.98C216.937 61.0296 215.716 55.3303 213.046 54.2622C213.257 57.5102 213.468 60.6182 213.687 63.98ZM276.709 53.4567C276.56 53.4567 276.401 53.4567 276.252 53.4567C276.252 53.9908 276.252 54.5248 276.252 55.0676C276.252 57.2913 276.296 59.5151 276.217 61.73C276.182 62.6493 275.848 63.551 275.681 64.4615C275.62 64.7942 275.62 65.1619 275.673 65.4946C275.795 66.3438 276.068 67.1843 276.085 68.0247C276.138 70.406 276.077 72.7786 276.077 75.1599C276.077 75.5976 276.138 76.0354 276.173 76.4731C276.331 76.4731 276.48 76.4731 276.639 76.4819C276.682 75.4138 276.682 74.3457 276.77 73.2864C276.972 70.6249 276.305 67.8934 277.315 65.2845C277.394 65.0919 277.288 64.8205 277.253 64.5929C277.104 63.6298 276.841 62.6668 276.814 61.7038C276.753 59.4013 276.814 57.1075 276.805 54.805C276.805 54.3497 276.744 53.9032 276.709 53.4567ZM218.509 21.6068C218.482 21.4579 218.465 21.3091 218.439 21.1603C217.666 21.2566 216.884 21.3354 216.12 21.4667C212.677 22.0445 209.287 20.7488 205.836 21.2128C204.352 21.4142 202.806 21.1865 201.296 21.2215C199.97 21.2478 198.766 21.633 197.827 22.6661C200.435 21.598 203.193 21.6768 205.845 21.9394C207.654 22.1145 209.428 22.2371 211.246 22.1583C212.879 22.0883 214.522 22.2459 216.155 22.1758C216.946 22.132 217.727 21.8081 218.509 21.6068ZM261.041 53.6581C260.918 53.6493 260.787 53.6493 260.664 53.6406C260.611 54.0083 260.549 54.3848 260.514 54.7525C260.26 58.1318 260.945 61.5724 259.944 64.9168C259.891 65.0831 259.996 65.302 260.023 65.4946C260.146 66.3088 260.356 67.123 260.365 67.9372C260.409 70.3973 260.365 72.8574 260.391 75.3175C260.391 75.764 260.549 76.2105 260.629 76.657C260.734 76.6395 260.848 76.622 260.953 76.6132C260.98 76.1842 261.024 75.7552 261.024 75.3175C261.015 72.98 261.006 70.6337 260.98 68.2961C260.953 66.5277 261.48 64.8467 261.155 62.9645C260.716 60.4693 261.147 57.8341 261.173 55.2515C261.191 54.7262 261.094 54.1921 261.041 53.6581ZM209.814 48.6416C206.302 49.2807 202.323 54.7525 203.421 57.4052C203.72 56.6085 203.974 55.8205 204.299 55.0676C205.133 53.1416 206.345 51.4694 208.488 50.9879C209.981 50.664 210.095 49.8848 209.814 48.6416ZM218.061 39.2915C218.149 39.2915 218.237 39.2827 218.324 39.2827C218.395 39.0288 218.509 38.7749 218.535 38.521C218.746 36.665 218.087 34.7039 219.176 32.9442C219.229 32.8654 219.203 32.6903 219.15 32.6028C218.263 31.0882 218.781 29.416 218.623 27.8227C218.579 27.4199 218.483 27.0172 218.351 26.3168C218.131 26.7546 218.017 26.8772 217.999 27.0172C217.745 28.9258 217.499 30.8343 217.253 32.7429C217.244 32.8129 217.288 32.8917 217.297 32.9705C217.481 34.5989 217.657 36.236 217.85 37.8644C217.894 38.3459 217.991 38.8187 218.061 39.2915ZM267.742 31.9199C267.628 31.8499 267.523 31.7798 267.408 31.7098C266.223 35.6757 262.991 36.4549 259.566 36.9452C258.854 37.0502 258.161 37.2341 257.467 37.3829C259.592 38.0833 264.168 37.1028 265.819 35.6057C266.583 34.9141 267.092 33.9248 267.637 33.023C267.812 32.7254 267.716 32.2876 267.742 31.9199ZM199.355 26.3431C199.32 26.2205 199.276 26.1067 199.241 25.9842C198.222 26.0542 197.194 26.1242 196.167 26.1855C196.167 27.061 196.167 27.7876 196.167 28.7594C197.335 27.8752 198.345 27.1048 199.355 26.3431ZM237.593 35.5269C235.169 34.1874 230.584 34.5551 228.969 36.3148C231.832 34.9053 234.659 35.4218 237.593 35.5269ZM211.378 65.1707C211.527 65.1707 211.676 65.1619 211.817 65.1619C211.606 61.8263 211.386 58.4908 211.176 55.1552C211.088 55.1639 211 55.1639 210.912 55.1727C211.062 58.4995 211.22 61.8351 211.378 65.1707ZM196.263 76.7795C196.272 76.9284 196.272 77.086 196.281 77.2348C198.213 77.6025 200.154 77.8739 202.112 77.5587C202.121 77.4099 202.13 77.2523 202.13 77.1035C200.18 76.9984 198.222 76.8933 196.263 76.7795ZM193.356 77.0509C193.356 76.9546 193.365 76.8583 193.365 76.762C191.626 76.762 189.896 76.762 188.157 76.762C188.157 76.8583 188.157 76.9546 188.157 77.0509C189.887 77.0509 191.626 77.0509 193.356 77.0509Z" fill="white"/>
<path d="M45.3055 81.98C42.1527 81.621 39.4917 82.7767 37.182 84.8165C34.7581 86.9527 33.0104 89.6229 31.5174 92.4332C30.2615 94.7883 28.6544 96.8106 26.5554 98.4653C26.3447 98.6316 26.1251 98.7717 25.7299 98.7804C25.888 98.5616 26.0109 98.2902 26.2129 98.1238C28.2065 96.4604 29.5853 94.3505 30.9202 92.1618C32.2024 90.0607 33.5637 88.0033 35.0479 86.0422C36.9624 83.5296 39.5707 81.9625 42.6796 81.2709C42.987 81.2008 43.2768 81.087 43.8389 80.9119C41.9244 80.2903 40.2733 80.588 38.6222 80.8856C36.98 81.1745 35.8822 82.0675 35.0567 83.5471C32.9226 87.3817 30.4811 91.0062 26.9858 93.7815C25.0625 95.3048 22.9284 96.513 20.4606 96.7844C19.1169 96.9332 17.7117 96.6881 16.368 96.4779C15.7181 96.3729 15.2176 96.154 14.9541 96.977C14.6994 97.7824 15.1122 98.1851 15.7972 98.404C16.5525 98.6491 17.3604 98.7717 18.0542 99.1219C18.4143 99.3057 18.5724 99.8661 18.8271 100.26C18.4319 100.453 18.0103 100.847 17.6415 100.794C16.087 100.593 14.7433 99.8748 13.8651 98.5703C13.0922 97.4235 14.0759 96.583 14.7521 95.4799C14.2603 95.1034 13.8036 94.5519 13.2328 94.3505C7.64725 92.4157 4.74911 88.0733 3.45812 82.7504C2.07052 77.0335 2.41303 71.3079 5.65368 66.0988C9.14902 60.4869 15.6303 58.5609 20.9875 59.8566C24.2106 60.6358 26.5467 62.7544 27.0297 66.1776C27.2053 67.412 26.6872 68.8128 26.2393 70.0472C26.0724 70.4937 25.1766 70.8876 24.5882 70.9227C23.6134 70.9752 23.1831 69.9947 23.7012 69.163C24.8956 67.2281 24.5004 65.8711 22.4366 64.7943C19.0115 63.0083 14.3481 63.9626 12.1701 67.1756C8.15662 73.1026 7.01493 79.4236 9.97455 86.2086C11.8364 90.4721 16.4734 92.4858 20.0654 91.7153C21.2773 91.4527 22.5068 90.6998 23.4377 89.8506C26.7662 86.8039 28.3734 82.8642 28.6456 78.443C29.0496 71.7894 29.2955 65.1182 29.5941 58.4558C29.6292 57.7379 29.5941 57.02 29.5941 56.3109C29.3745 56.3109 29.1462 56.3021 28.9266 56.3021C28.6105 63.0083 28.2943 69.7233 27.9869 76.4294C27.8376 76.4557 27.6883 76.4732 27.5303 76.4995C27.4337 76.1143 27.2317 75.7291 27.2405 75.3526C27.4161 70.4324 27.6269 65.5122 27.8289 60.592C27.8728 59.4801 27.864 58.3683 27.9869 57.2652C28.1011 56.1708 27.6532 55.593 26.7486 54.9714C24.8868 53.702 22.9723 52.4063 21.4529 50.7691C18.4933 47.5824 18.0806 42.916 20.2234 39.1515C21.0841 37.6457 21.7252 36.1223 21.9623 34.4064C22.3487 31.6136 23.8329 29.5475 26.1866 27.9541C34.4243 22.3685 42.6094 16.7042 50.8296 11.1098C52.8846 9.70908 54.2986 7.87057 55.2383 5.62058C55.8091 4.24608 55.8794 2.88033 55.4227 1.44454C55.291 1.03307 55.6335 0.481514 55.7564 0C56.257 0.140077 56.9157 0.122567 57.2055 0.43774C57.6973 0.971783 58.0749 1.68092 58.2857 2.37255C58.6458 3.53694 58.8214 4.75386 59.1112 5.94451C59.5679 7.83555 59.0761 9.49896 57.7939 10.891C57.0474 11.7052 56.6083 12.5106 56.7049 13.6487C56.8279 15.0933 56.1341 16.2577 55.1329 17.2382C54.2459 18.1049 53.8946 19.1205 54.1405 20.46C55.0802 19.9084 55.9584 19.3919 56.9332 18.8228C57.0825 19.672 57.5129 19.8034 58.3296 19.672C63.3794 18.9016 67.5422 20.2674 70.3789 24.7673C70.9673 25.7041 71.6523 26.6058 72.4339 27.385C73.8039 28.7508 74.3133 30.3529 74.2606 32.2352C73.9708 42.4783 73.7073 52.7214 73.4263 62.9646C73.3209 66.8955 73.1892 70.8264 73.0487 74.7573C72.9872 76.6308 73.4087 77.3224 75.1652 78.0141C75.8678 78.2855 76.5616 78.6094 77.2993 78.7582C77.8789 78.8808 78.4937 78.7845 79.2665 78.7845C78.9942 78.2942 78.8801 78.0053 78.6869 77.7602C75.8414 74.0744 75.051 69.7933 75.2354 65.3021C75.3233 63.1747 75.578 61.0122 76.1312 58.9636C77.8965 52.4238 82.1559 48.1339 88.5493 45.9102C89.2783 45.6563 90.0774 45.5775 90.8415 45.4112C90.8415 45.3061 90.8415 45.2011 90.8415 45.096C90.42 45.096 89.9896 45.0347 89.5769 45.1047C84.4568 45.989 80.6102 48.808 77.633 52.9403C77.2554 53.4656 76.8689 53.9909 76.4913 54.5162C76.3684 54.4549 76.2454 54.4024 76.1225 54.3411C76.3244 53.8508 76.4386 53.2992 76.7284 52.8703C79.9252 48.309 84.0792 45.2098 89.7876 44.5882C90.6746 44.4919 90.9381 44.1592 90.9469 43.3275C90.982 40.5435 91.0523 37.7682 91.1664 34.9842C91.2016 34.0825 90.8679 33.636 90.016 33.3295C86.7929 32.1827 85.0979 29.7663 85.1857 26.5971C85.2648 23.6642 87.1003 21.4405 90.2882 20.46C91.0874 20.2148 91.465 19.8559 91.4475 18.9629C91.3948 16.6254 91.4475 14.2791 91.4299 11.9416C91.4299 11.6351 91.386 11.2762 91.2279 11.0223C89.6471 8.49216 91.9481 6.81999 92.3608 4.73635C92.4662 4.7451 92.5716 4.7451 92.677 4.75386C93.0985 5.79568 93.6518 6.80248 93.8977 7.87932C94.0822 8.68477 94.1173 9.69157 93.7923 10.4182C92.5014 13.3511 93.081 16.4328 92.9317 19.4532C92.9141 19.8209 93.6957 20.3724 94.2139 20.5913C97.5599 22.0183 99.1232 24.601 98.5699 28.1642C98.1747 30.7031 96.6114 32.3928 94.1788 33.1544C92.9317 33.5484 92.5277 34.1788 92.5628 35.4745C92.6155 38.0571 92.4574 40.6398 92.4223 43.2225C92.4135 43.5814 92.6067 43.9404 92.7033 44.2906C93.0634 44.1767 93.4937 44.1505 93.7748 43.9316C94.9604 43.0124 96.2777 42.5396 97.7707 42.6446C99.3866 42.7585 100.941 42.6884 102.504 41.3665C101.811 42.7497 101.108 43.1787 99.4042 43.0649C96.8398 42.8898 94.6442 43.6865 92.6331 45.1573C92.6594 45.2623 92.6858 45.3674 92.7121 45.4725C93.1776 45.3499 93.7572 45.3586 94.0822 45.0785C95.3995 43.9229 96.9364 43.5989 98.6226 43.6252C102.188 43.6777 103.216 42.9948 104.612 39.703C105.288 38.1184 105.719 37.7507 107.15 37.6632C106.834 40.5435 106.737 43.5114 105.394 46.0678C103.918 48.8868 103.734 51.8372 103.646 54.8313C103.479 60.9072 103.444 66.983 103.391 73.0588C103.383 73.8468 103.479 74.6522 103.672 75.4139C103.901 76.3156 104.533 76.8759 105.438 76.2806C106.456 75.624 107.537 74.9236 108.274 73.9956C111.568 69.8108 112.797 64.9782 112.332 59.7253C112.191 58.1144 111.831 56.521 111.515 54.9364C111.401 54.3673 111.172 53.7983 110.918 53.273C109.811 51.0055 109.346 50.8742 107.317 52.2574C107.115 50.9004 108.52 49.5172 110.127 49.5872C111.348 49.6397 112.56 49.8323 113.781 49.9549C119.182 43.0649 124.618 41.7166 133.198 45.0172C132.627 44.3168 132.039 43.6339 131.503 42.9073C131.24 42.5396 130.836 41.9968 130.95 41.6991C131.249 40.9112 131.916 41.2964 132.469 41.5153C136.483 43.1349 137.124 47.1709 136.061 50.8479C135.403 53.1242 133.795 54.7963 131.705 56.3109C131.705 55.129 131.495 53.8946 131.749 52.7652C132.32 50.1825 132.039 48.8606 130.274 47.4773C128.324 45.954 126.225 45.6651 124.038 46.8557C121.641 48.1602 120.596 50.3927 120.157 52.9578C120.078 53.4393 120.06 53.9296 120.016 54.3673C121.149 54.0084 122.168 53.5094 123.23 53.4043C124.925 53.238 126.111 54.7963 125.795 56.451C125.47 58.1144 124.495 59.2438 122.967 59.8829C122.598 60.0317 122.08 59.8303 121.632 59.7866C121.729 59.3751 121.808 58.9548 121.939 58.5521C122.054 58.1932 122.361 57.843 122.352 57.5016C122.343 57.1689 122.098 56.6786 121.825 56.5735C121.597 56.486 121 56.7574 120.886 57.0113C120.113 58.8148 119.094 60.6008 118.778 62.5005C118.268 65.5735 118.154 68.7252 118.014 71.8507C117.917 73.9956 118.839 75.1162 120.903 75.8341C123.617 76.7796 126.401 76.6833 129.167 76.1931C130.669 75.9304 133.69 72.3935 133.76 70.8701C133.796 70.1698 133.488 69.4519 133.348 68.7952C135.236 69.4431 136 72.7086 134.744 75.8954C136.175 75.7553 137.519 75.7378 138.793 75.4489C139.205 75.3526 139.697 74.5384 139.732 74.0306C139.969 70.1435 140.092 66.2564 140.268 62.3692C140.514 56.8187 140.76 51.2594 141.041 45.7088C141.076 45.0522 141.383 44.4131 141.489 43.7478C141.603 43.0386 141.629 42.312 141.55 41.5503C140.171 42.7497 138.16 43.1612 137.818 45.3499C137.589 46.8294 137.563 48.1689 138.433 49.4646C139.328 48.9656 139.539 48.1952 139.565 47.2584C139.592 46.4355 139.776 45.6125 140.154 44.8246C139.969 54.5512 139.574 64.2515 138.977 73.9431C138.766 73.9343 138.547 73.9256 138.336 73.9168C138.494 66.3176 139.056 58.7185 139.346 50.9967C137.317 50.7866 137.273 49.3508 137.01 47.7575C136.421 44.1943 137.835 41.4628 140.163 39.0639C141.296 37.8908 141.779 36.6651 141.735 35.028C141.638 30.9395 141.735 26.8422 141.682 22.7537C141.664 21.4142 141.287 20.0835 141.331 18.7528C141.366 17.6584 141.77 16.5728 142.06 15.2859C143.263 16.4328 143.456 17.5621 143.368 18.7878C143.245 20.4862 143.052 22.1759 143.017 23.8744C142.938 27.5251 142.929 31.1846 142.903 34.8354C142.903 35.2556 142.964 35.6671 143.008 36.2274C144.062 35.6671 144.949 35.1505 145.871 34.7303C147.32 34.0649 148.128 34.3976 148.383 35.921C148.541 36.884 148.374 37.9346 148.207 38.9151C147.926 40.5435 147.303 42.1281 147.215 43.7565C146.951 48.5892 146.872 53.4393 146.714 58.5609C147.162 58.2982 147.434 58.1582 147.689 57.9743C148.848 57.1339 149.955 56.2234 151.149 55.4529C152.019 54.9014 152.388 54.2185 152.142 53.2642C151.72 51.6183 151.237 49.9812 150.824 48.5191C151.421 48.6855 152.142 49.5522 152.423 50.9179C152.633 51.9685 152.748 53.0454 153.037 54.0784C153.468 51.5395 152.765 49.3158 150.991 47.4861C150.491 46.9695 149.911 46.2516 149.077 46.6806C148.998 47.381 148.936 47.9851 148.857 48.6767C147.698 48.0901 147.39 47.2147 147.803 46.2254C148.181 45.3149 149.147 44.8596 150.034 45.1835C150.736 45.4374 151.518 45.5863 152.124 45.989C152.739 46.4005 153.38 46.9783 153.643 47.6349C154.109 48.7993 154.293 50.0775 154.609 51.2944C154.724 51.7321 154.908 52.1611 155.356 52.5901C155.435 52.2136 155.558 51.8372 155.575 51.452C155.681 48.9481 155.769 46.453 155.839 43.9491C155.892 42.1194 156.48 40.561 157.876 39.3003C159.29 38.0134 160.634 36.6564 162.022 35.3344C162.276 35.0893 162.54 34.7653 162.856 34.669C166.246 33.6885 166.966 30.7556 167.748 27.9278C167.906 27.3675 167.633 26.4833 167.23 26.028C166.667 25.3802 165.772 25.2751 164.92 25.7129C164.612 25.8704 164.287 26.0105 163.98 26.1594C163.892 26.0543 163.804 25.9492 163.725 25.8442C164.235 25.424 164.691 24.8374 165.28 24.6098C166.132 24.2771 166.913 24.671 167.511 25.3539C169.574 27.7265 169.636 30.2829 167.563 32.7167C166.694 33.7323 165.631 34.5902 164.586 35.5708C165.034 36.1573 165.499 36.7614 165.965 37.3655C165.816 37.4968 165.763 37.5844 165.701 37.5844C163.251 37.5756 162.136 38.8626 162.066 41.8917C162.022 43.9579 162.048 46.024 162.057 48.0901C162.074 50.3489 161.091 51.9072 159.141 53.1679C157.49 54.236 155.698 55.3479 155.022 57.449C154.715 58.4033 154.978 59.0249 155.821 59.5502C157.762 60.7671 157.718 60.7496 159.563 59.4539C161.056 58.4033 162.601 57.414 164.182 56.486C165.605 55.6455 167.985 56.2058 168.951 57.5103C169.434 58.1669 169.601 58.841 168.907 59.6027C168.758 59.2788 168.679 59.0161 168.521 58.8148C168.09 58.2632 167.554 57.2477 167.194 57.3002C166.237 57.4403 164.981 57.5103 164.788 58.9548C164.568 60.557 164.094 62.1504 164.033 63.7525C163.787 69.7057 163.62 75.659 163.541 81.621C163.523 82.9605 163.954 84.3088 164.226 85.9196C163.717 86.1648 162.882 86.5763 162.039 86.979C159.484 88.1871 157.78 90.1132 156.972 92.8272C156.577 94.1404 156.533 95.3311 157.815 96.2241C157.973 96.3291 158.131 96.4867 158.21 96.653C159.097 98.4565 159.633 98.7629 161.591 98.4128C163.058 98.1501 164.639 98.0626 165.93 97.4147C167.019 96.8719 167.879 95.725 168.617 94.6832C169.443 93.5101 169.372 92.2231 168.31 91.1112C168.239 91.0412 168.248 90.8924 168.204 90.6998C169.328 90.586 169.811 91.155 169.978 92.1268C170.259 93.7815 169.706 95.1822 168.635 96.3991C164.077 101.547 158.412 100.085 155.769 96.2853C154.609 94.6219 154.513 92.6258 154.443 90.691C154.232 84.9391 154.1 79.1785 153.933 73.4178C153.924 73.1376 153.837 72.8575 153.696 72.5948C153.696 77.4888 153.696 82.3827 153.696 87.2766C153.608 87.2854 153.512 87.2854 153.424 87.2942C153.362 86.7163 153.275 86.1385 153.248 85.5607C153.081 81.1921 152.906 76.8322 152.8 72.4635C152.774 71.3079 152.3 70.8789 151.202 70.9664C150.139 71.054 149.085 71.1153 148.023 71.1941C148.497 70.3448 148.497 70.3448 152.783 69.9684C152.783 67.7884 152.783 65.591 152.783 63.2885C151.615 63.7 151.378 64.6367 151.105 65.521C150.868 66.3176 150.772 67.1493 150.526 67.9373C150.078 69.3293 149.375 69.6882 147.671 69.3293C150.025 69.0667 150.034 67.1493 150.613 65.591C151.105 64.2603 151.79 62.9908 152.458 61.5463C152.186 61.6688 151.729 61.7214 151.571 61.9665C151.026 62.8245 150.552 63.7262 150.113 64.6455C149.928 65.0307 149.92 65.4947 149.806 65.9149C149.191 68.1386 148.804 68.41 146.486 68.1999C146.416 69.2242 146.258 70.2486 146.31 71.2641C146.38 72.6649 145.968 73.7505 144.712 74.4684C144.51 74.5822 144.308 74.7223 144.106 74.8448C144.15 74.9499 144.194 75.0637 144.238 75.1687C144.765 75.2125 145.283 75.2738 145.81 75.3088C146.925 75.3876 148.04 75.3964 149.147 75.5452C150.772 75.7728 151.413 76.9022 150.534 78.2767C149.437 80.0014 148.093 81.5685 146.793 83.2757C145.291 81.6823 143.614 82.2864 142.06 82.2601C141.875 82.2601 141.506 82.8117 141.506 83.1094C141.506 87.4692 141.05 91.8291 141.84 96.1803C142.297 98.7279 141.322 101.144 140.892 103.604C140.751 103.613 140.611 103.622 140.47 103.639C140.356 103.149 140.198 102.659 140.128 102.16C139.926 100.75 139.662 99.3408 139.609 97.9312C139.565 96.7143 139.785 95.4886 139.855 94.2717C140.084 90.5947 140.286 86.9089 140.514 83.2319C140.584 82.0675 139.759 82.2164 139.065 82.2164C134.235 82.1989 129.404 82.2164 124.574 82.1726C123.389 82.1638 122.177 82.05 121.017 81.8136C117.97 81.2096 115.686 79.4236 113.904 76.946C113.368 76.2018 112.903 75.4226 112.332 74.5472C111.418 75.3176 110.549 76.1055 109.627 76.8234C106.948 78.8983 104.024 80.4566 100.572 80.7718C99.0968 80.9031 97.7971 80.4479 96.752 79.4148C96.225 78.8983 95.7947 78.8983 95.1975 79.2135C94.2841 79.695 93.3093 80.0627 92.4047 80.553C92.1676 80.6843 92.0886 81.087 91.9393 81.3671C92.2203 81.4372 92.5101 81.5948 92.7736 81.5598C93.2039 81.4985 93.6343 81.3671 94.0207 81.1745C95.2502 80.5792 96.3743 80.623 97.6565 81.2446C99.4042 82.1026 101.24 81.6561 103.005 81.0695C103.813 80.7981 104.621 80.5004 105.49 80.2028C105.49 80.4566 105.517 80.5792 105.49 80.5967C103.014 82.3389 100.291 83.0743 97.4018 81.98C96.1987 81.5247 95.2502 81.5335 94.1261 81.9887C91.9042 82.8905 91.8866 82.8467 91.8866 85.2543C91.8866 87.0403 91.79 88.835 91.9042 90.6122C92.0183 92.4157 92.3872 94.2017 92.5453 96.0052C92.6067 96.7406 92.4838 97.5285 92.2906 98.2464C92.0271 99.262 91.6143 100.251 91.1752 101.529C90.7449 100.286 90.5605 99.1919 90.016 98.3077C89.3134 97.1696 89.6823 96.2153 90.0248 95.156C90.1741 94.6744 90.2355 94.1492 90.2443 93.6414C90.3058 90.6998 90.3409 87.7582 90.376 84.8253C90.3848 84.3613 90.3146 83.8973 90.2794 83.302C86.4416 83.9586 82.9375 83.4508 79.8286 81.2358C79.8549 81.1133 79.89 80.9994 79.9164 80.8769C80.5575 81.0695 81.2162 81.2183 81.8309 81.4635C84.1319 82.3915 86.5118 82.7329 88.9709 82.444C89.6032 82.3739 90.42 82.4177 90.2004 81.2533C86.3362 80.9294 82.4808 80.5617 78.6078 80.3253C77.5979 80.264 76.5528 80.5442 75.5516 80.7806C73.0223 81.3847 66.5147 81.7173 63.6956 81.3059C63.6692 80.7543 63.599 80.1677 63.6165 79.5899C63.8449 67.1143 64.082 54.6475 64.3367 42.1719C64.4421 36.9715 64.565 31.7624 63.6517 26.6146C63.1862 23.9882 62.106 21.6506 59.1815 20.8715C58.5404 20.6964 57.8202 20.6263 57.1791 20.7489C56.8103 20.8189 56.3097 21.3355 56.257 21.7032C55.9935 23.4279 55.5456 25.2664 57.7149 26.2031C55.3349 30.8694 55.853 35.6583 56.38 40.4297C56.5205 41.6729 56.3712 42.4433 55.2383 43.3801C53.4116 44.8946 51.9888 46.9082 50.3553 48.7643C51.8659 49.9549 53.2359 50.095 54.6762 49.6397C55.6247 49.3421 56.538 48.9394 57.4514 48.5717C58.9532 47.9676 60.4549 47.8975 62.0269 48.5366C61.5351 47.6612 60.8589 47.311 59.5328 47.5561C58.3296 47.775 57.1791 48.2302 56.0023 48.5804C55.2031 48.8168 54.4215 49.1407 53.6048 49.2545C53.0866 49.3246 52.5333 49.0707 51.9625 48.9569C53.9121 48.3353 55.7301 47.81 57.4953 47.1796C58.7512 46.7331 59.9631 46.6544 61.2278 47.0221C61.5966 47.1359 61.983 47.2059 62.712 47.381C62.712 42.7672 62.712 38.311 62.712 33.8636C62.9052 33.8548 63.0984 33.8373 63.2916 33.8286C63.3882 34.3363 63.5638 34.8354 63.5638 35.3431C63.3706 50.2438 63.1599 65.1357 62.9579 80.0364C62.9579 80.2728 62.993 80.5267 62.9227 80.7456C62.8613 80.9382 62.668 81.087 62.5363 81.2533C62.3607 81.087 62.0972 80.9469 62.0269 80.7368C61.9391 80.4917 62.0006 80.1852 62.0006 79.9138C62.0796 75.1863 61.9918 70.4499 62.308 65.7398C62.51 62.7194 60.0685 61.4412 57.7851 61.2048C57.6797 62.8157 57.5392 64.4178 57.469 66.0287C57.267 70.7126 57.1264 75.3964 56.9069 80.0714C56.8366 81.6648 57.2582 82.9868 58.2857 84.2387C59.9543 86.2611 61.4824 88.406 63.1159 90.4546C65.048 92.8797 65.4608 95.6988 65.2939 98.6491C65.0656 102.781 63.801 106.581 61.3771 109.952C60.692 110.906 59.7875 111.72 58.918 112.534C58.5843 112.841 58.1013 113.06 57.6534 113.147C57.3197 113.208 56.7225 113.103 56.6083 112.884C56.4502 112.587 56.4941 112.009 56.6961 111.72C57.3109 110.845 58.0749 110.074 58.716 109.207C61.5176 105.443 63.2301 101.302 62.9842 96.513C62.8525 93.9828 61.0258 90.6735 58.8565 89.4478C59.0498 89.798 59.2342 90.157 59.445 90.4897C60.1827 91.619 60.9906 92.7046 61.6493 93.8865C62.3431 95.1385 62.1675 96.4342 61.2892 97.3272C61.2365 97.2221 61.1312 97.1258 61.1312 97.0207C61.1663 93.9566 59.5152 91.6278 57.5216 89.6317C55.6862 87.7844 53.6048 86.121 51.4268 84.6765C48.2212 82.549 44.7171 82.8467 42.1176 85.3418C41.3447 86.086 40.9847 87.2504 40.3787 88.3272C39.8781 88.1871 39.72 87.7494 39.8605 87.0578C40.2557 85.0792 41.0286 83.4595 43.1978 82.873C43.874 82.6891 44.5854 82.2864 45.3055 81.98ZM43.3647 29.1097C41.8717 30.3967 41.1428 32.0426 40.6246 33.8198C39.4127 38.0309 39.4126 42.3557 39.4039 46.6806C39.4039 48.1427 39.7639 48.5454 41.2569 48.344C43.9706 47.9851 46.2892 46.8732 47.2464 44.1155C47.7821 42.5659 48.1598 40.9024 48.2476 39.2653C48.4584 35.4657 48.4057 31.6486 48.5813 27.849C48.634 26.7897 48.8624 25.5378 49.4947 24.7673C50.4256 23.638 50.6715 22.5086 50.6276 20.9678C48.5111 22.3948 46.5087 23.743 44.4712 25.1175C44.9455 25.6516 45.4373 26.1243 45.8061 26.6671C46.4384 27.6039 46.377 28.9084 45.7183 29.5387C44.8049 30.4405 44.1551 29.565 43.3647 29.1097ZM38.9033 60.163C38.7979 60.1543 38.7013 60.1367 38.5959 60.128C38.4554 60.7321 38.1831 61.3449 38.2095 61.9402C38.3588 65.1007 38.6047 68.2525 38.7803 71.4129C38.8418 72.5423 39.5268 72.875 40.5192 73.1551C42.7675 73.7855 44.9806 74.5647 47.2025 75.2913C47.5714 75.4139 47.9314 75.554 48.4847 75.7466C49.5737 70.8614 49.7406 66.0988 49.2663 61.2048C48.8536 61.2836 48.5638 61.2574 48.4057 61.3887C47.3342 62.2817 46.1838 62.0365 45.0069 61.6951C43.3383 61.2136 41.6697 60.7583 39.6673 60.1893C39.8254 64.1289 39.9659 67.841 40.1152 71.5443C39.1053 69.767 38.9999 67.841 38.9296 65.9149C38.8506 63.9976 38.9033 62.0803 38.9033 60.163ZM20.8294 47.4773C20.7943 49.631 25.6245 54.3848 28.0923 54.3498C28.1889 52.5026 28.2855 50.6553 28.3734 48.808C28.4524 47.0133 28.4085 45.2011 28.953 43.4413C29.2516 43.8528 29.3482 44.2555 29.3394 44.6583C29.2165 47.7925 29.0496 50.9179 28.9442 54.0522C28.9266 54.5337 29.155 55.0239 29.2691 55.5055C29.3833 55.4792 29.4887 55.4529 29.6029 55.4267C29.6731 55.0415 29.7873 54.6562 29.7961 54.2623C29.9454 50.4977 30.1825 46.7244 30.1825 42.9598C30.1825 41.4452 29.6204 39.9482 29.4184 38.4248C29.357 37.9608 29.4887 37.3568 29.7697 36.989C30.2176 36.3937 30.929 36.0085 31.4032 35.4307C32.1936 34.4502 32.8699 33.3908 33.5988 32.3578C33.4846 32.2615 33.3617 32.1651 33.2475 32.0688C29.8049 34.3801 26.0109 36.2274 23.2445 39.4579C21.251 41.7867 21.1807 44.6758 22.9108 47.2759C23.1743 47.6787 23.429 48.0901 23.7276 48.5629C22.3663 48.738 22.3663 48.738 20.8294 47.4773ZM90.5605 52.6076C90.4814 52.4938 90.4024 52.3712 90.3233 52.2574C89.5417 52.8615 88.5757 53.3255 88.0048 54.0872C84.2285 59.0774 83.8157 64.7505 85.0013 70.6338C85.3702 72.4635 87.5657 73.9256 89.4803 74.0744C90.174 74.1269 90.4112 73.8555 90.4287 73.2077C90.4551 72.1396 90.5517 71.0627 90.5605 69.9947C90.5693 64.199 90.5605 58.4033 90.5605 52.6076ZM49.4332 60.0404C49.4859 59.4714 49.4947 58.9986 49.5913 58.5346C50.0304 56.4247 49.1609 54.9451 47.4396 53.7983C45.2616 52.3362 42.8641 51.8109 40.2909 52.0123C39.8957 52.0473 39.2458 52.4063 39.2107 52.6864C38.9648 54.5512 38.8594 56.4335 38.7013 58.3158C38.7979 58.3245 38.9033 58.3333 38.9999 58.342C39.7464 56.6436 39.0614 54.5775 40.1064 52.9491C40.2118 52.9666 40.326 52.9841 40.4314 53.0103C40.3172 55.094 40.2031 57.1776 40.0889 59.27C43.1715 60.4169 46.2101 60.7058 49.4332 60.0404ZM68.1921 79.0559C68.3414 79.0296 68.4995 78.9946 68.6488 78.9683C68.719 77.4275 68.8068 75.8779 68.8595 74.337C69.0088 70.2485 68.8595 66.125 69.404 62.0891C69.6938 59.9354 69.7026 57.8955 69.6763 55.7506C69.5533 48.0901 69.7026 40.4209 69.8695 32.7517C69.9485 28.9696 67.7617 26.4045 65.5135 23.8131C65.4959 23.7956 65.3905 23.8568 65.3027 23.8919C65.3554 23.9969 65.3905 24.1107 65.452 24.207C65.6364 24.4697 65.8209 24.7323 66.0317 24.9687C68.2711 27.4813 69.1581 30.4492 69.0703 33.7498C68.8771 41.0951 68.7014 48.4403 68.4555 55.7856C68.4292 56.5735 68.0077 57.344 67.8408 58.1407C67.7442 58.6134 67.7091 59.1212 67.7705 59.6027C67.8759 60.4869 68.2184 61.3712 68.2096 62.2467C68.1482 67.412 67.9989 72.5686 67.911 77.7339C67.9023 78.1716 68.0955 78.6094 68.1921 79.0559ZM145.643 78.9683C145.634 78.907 145.616 78.8458 145.608 78.7757C142.578 78.7757 139.548 78.7845 136.518 78.7757C131.934 78.7495 127.332 78.9158 122.765 78.6269C117.645 78.303 114.106 73.1814 115.212 68.1737C116.793 66.7029 115.888 64.9344 115.897 63.2272C115.924 60.5745 116.231 57.9218 116.538 55.2778C117.127 50.2613 120.429 46.5756 125.303 45.3061C125.61 45.2273 125.918 45.1135 126.225 45.0172C124.179 44.5007 122.422 45.131 120.877 46.3217C118.444 48.2127 116.67 50.6553 116.099 53.667C115.546 56.6173 115.423 59.6465 115.142 62.6494C115.054 63.6387 115.124 64.6367 114.264 65.3896C114.079 65.556 114.062 65.985 114.088 66.2739C114.22 67.7097 114.492 69.1454 114.545 70.5812C114.703 74.4771 116.565 77.1736 120.122 78.7407C122.106 79.6162 124.214 79.7212 126.339 79.66C132.32 79.4849 138.301 79.2923 144.281 79.0997C144.756 79.0909 145.195 79.0121 145.643 78.9683ZM62.4134 60.7583C62.4134 57.5278 62.4134 54.3761 62.4134 51.2156C62.4134 49.8586 61.7196 49.2108 60.3495 49.2633C59.0498 49.3158 58.0047 50.2 57.9168 51.5833C57.7675 53.9471 57.7412 56.3284 57.7236 58.701C57.7236 58.9986 58.0047 59.4889 58.2594 59.5764C59.5328 59.9967 60.8326 60.3206 62.4134 60.7583ZM91.2367 32.1301C91.2367 28.5669 91.2367 25.0913 91.2367 21.6069C88.4352 21.7469 86.2572 24.067 86.2835 26.9298C86.3011 29.6963 88.3825 31.9813 91.2367 32.1301ZM92.0798 73.5404C94.0119 73.3215 94.3368 72.98 94.2666 71.2904C94.2139 70.1435 94.0382 68.9966 94.047 67.8497C94.0909 63.0609 94.1875 58.272 94.2666 53.4743C94.2754 52.7302 94.3193 51.9773 93.2654 51.9423C92.1852 51.9072 92.3521 52.7214 92.3433 53.3693C92.2203 59.5502 92.1061 65.7311 92.0008 71.912C91.9832 72.4285 92.0447 72.9363 92.0798 73.5404ZM89.7262 77.2611C89.7174 77.0773 89.7174 76.9022 89.7086 76.7183C89.2344 76.7183 88.7601 76.7359 88.2859 76.7183C83.4381 76.5257 79.8373 72.8312 79.8725 67.9898C79.8725 67.412 80.2325 66.7029 80.6541 66.2826C81.6114 65.3108 81.6377 64.8819 80.8034 63.77C80.4521 63.2972 80.2238 62.5443 80.3204 61.9753C81.2074 56.521 83.9738 52.415 89.1465 50.1037C89.533 49.9286 89.8755 49.6835 90.2355 49.4646C89.9633 49.2195 89.8052 49.1845 89.6647 49.2283C89.3222 49.3246 88.9709 49.4296 88.6459 49.5697C84.9311 51.1718 82.1383 53.7457 80.6804 57.5191C79.7759 59.8653 79.205 62.343 78.4937 64.768C78.4585 64.8819 78.4498 65.0044 78.4761 65.1182C78.8537 67.2106 79.0733 69.3468 79.6441 71.3867C80.6102 74.8623 83.1131 76.8059 86.6348 77.375C87.6448 77.5238 88.6986 77.3049 89.7262 77.2611ZM92.8965 21.7294C92.8965 25.2576 92.8965 28.6895 92.8965 32.1214C95.5839 31.85 97.4809 29.5475 97.4282 26.7022C97.3755 24.0144 95.4258 21.852 92.8965 21.7294ZM35.3816 39.5454C35.2323 39.5279 35.083 39.5192 34.9337 39.5017C34.8547 40.2196 34.7405 40.9462 34.7054 41.6641C34.5034 45.7438 34.3716 49.8236 34.1082 53.9033C34.0555 54.7963 33.5549 55.6543 33.3178 56.5385C33.2124 56.9237 33.1597 57.3527 33.2212 57.7467C33.388 58.8148 33.8184 59.8653 33.8008 60.9247C33.7393 64.8906 33.5373 68.8478 33.4056 72.8137C33.3968 73.1639 33.5022 73.5228 33.5549 73.873C33.6778 73.8818 33.8008 73.8818 33.9237 73.8905C34.0116 73.5141 34.1609 73.1376 34.1696 72.7524C34.3277 68.7865 34.4243 64.8206 34.6351 60.8634C34.6878 59.8741 35.1181 58.9023 35.3201 57.913C35.4079 57.4753 35.4167 57.0025 35.364 56.556C35.285 55.8206 35.0215 55.0852 35.0391 54.3586C35.1533 49.9549 35.3377 45.56 35.4782 41.1563C35.5046 40.6223 35.4255 40.0882 35.3816 39.5454ZM51.0579 15.531C50.9437 15.4347 50.8208 15.3384 50.7066 15.2334C50.1797 15.5048 49.644 15.7586 49.1346 16.0563C46.1311 17.7635 43.1275 19.4707 40.1328 21.1866C39.8693 21.3355 39.641 21.5718 39.4127 21.782C38.9208 22.2284 38.4729 22.7362 37.946 23.1214C34.3365 25.7216 30.7007 28.2955 27.0999 30.9045C26.6784 31.2109 26.4149 31.7187 26.0724 32.1301C26.1778 32.2352 26.2832 32.3315 26.3886 32.4366C26.8277 32.1301 27.2668 31.8412 27.6971 31.526C31.2188 29.0047 34.7317 26.4745 38.271 23.9794C38.7803 23.6205 39.4214 23.4541 39.9835 23.174C40.5016 22.9201 41.0461 22.6925 41.5116 22.351C42.6006 21.5631 43.6106 20.6526 44.7347 19.9172C46.4999 18.7615 48.3442 17.7372 50.1182 16.5991C50.5046 16.3715 50.7505 15.8987 51.0579 15.531ZM156.015 89.7542C156.998 86.8739 157.727 73.6016 157.121 71.2203C155.488 71.6843 155.242 71.9032 155.277 72.9275C155.461 78.1191 155.655 83.3107 155.848 88.5111C155.857 88.835 155.927 89.1502 156.015 89.7542ZM99.5623 50.8567C99.4305 50.8567 99.29 50.8567 99.1583 50.8567C99.1144 51.2331 99.0617 51.6096 99.0353 51.986C98.8685 54.9189 98.7719 57.8517 98.526 60.7758C98.4469 61.6688 97.9288 62.5181 97.718 63.411C97.6038 63.8926 97.6478 64.4441 97.7356 64.9344C97.8673 65.6873 98.2625 66.4315 98.2537 67.1756C98.2274 69.6707 98.0605 72.1658 97.9902 74.661C97.9815 75.0287 98.1395 75.4051 98.2274 75.7728C98.3503 75.7641 98.4733 75.7641 98.5962 75.7553C98.6753 75.3614 98.7982 74.9761 98.8158 74.5822C98.9212 72.1221 98.9651 69.662 99.1319 67.2106C99.1846 66.4139 99.5886 65.6523 99.773 64.8556C99.8784 64.4266 99.9399 63.9538 99.8784 63.5161C99.7731 62.6756 99.4218 61.8439 99.4218 61.0122C99.4042 58.3945 99.5096 55.7769 99.5623 53.1592C99.5711 52.3975 99.5623 51.6271 99.5623 50.8567ZM142.938 71.9995C143.052 71.9995 143.175 71.9908 143.289 71.9908C143.359 71.6756 143.491 71.3604 143.482 71.0452C143.412 65.8186 144.413 60.6358 144.15 55.3916C144.018 52.8177 144.273 50.2351 144.343 47.6524C144.352 47.2672 144.29 46.8732 144.255 46.488C144.132 46.4793 144.009 46.4793 143.878 46.4705C143.807 46.8294 143.693 47.1796 143.667 47.5473C143.359 51.6533 143.79 55.8119 142.718 59.8653C142.674 60.0404 142.745 60.2506 142.771 60.4432C142.868 61.3011 143.07 62.1591 143.052 63.0083C142.991 65.7048 142.85 68.4013 142.753 71.1065C142.745 71.4042 142.876 71.7018 142.938 71.9995ZM52.9373 25.1526C52.7705 25.1526 52.6124 25.1613 52.4455 25.1613C52.3401 25.7654 52.1908 26.3607 52.1557 26.9648C52.0679 28.3918 52.0415 29.8189 51.9625 31.2459C51.9098 32.2965 52.0503 33.3908 51.2248 34.2838C51.0579 34.4677 51.1896 34.9492 51.2423 35.2906C51.3916 36.2011 51.6902 37.0941 51.7254 38.0046C51.7781 39.2653 51.6375 40.5435 51.62 41.8129C51.62 42.1456 51.7781 42.4696 51.8834 42.8723C52.1118 42.7059 52.226 42.6709 52.226 42.6184C52.5597 39.8869 53.0164 37.1641 53.1657 34.4151C53.3062 31.8587 53.1305 29.2848 53.069 26.7109C53.069 26.1856 52.99 25.6691 52.9373 25.1526ZM53.0251 77.1561C53.1393 77.1386 53.2535 77.1298 53.3676 77.1123C53.4116 76.6133 53.4906 76.1143 53.4994 75.6065C53.5345 73.7417 53.4467 71.8682 53.6048 70.0209C53.7014 68.8828 54.36 67.7884 54.3952 66.6591C54.4303 65.521 53.8419 64.3828 53.8155 63.236C53.7541 60.4257 53.8595 57.6066 53.8858 54.7963C53.8858 54.4199 53.8068 54.0522 53.7628 53.6757C53.6399 53.6845 53.5257 53.6932 53.4028 53.702C53.3676 54.1922 53.315 54.6913 53.2974 55.1815C53.2271 57.9918 53.2183 60.8109 53.069 63.6212C53.0251 64.4354 52.5509 65.2233 52.3752 66.0462C52.2699 66.5278 52.2786 67.0618 52.3752 67.5521C52.5158 68.2612 52.9549 68.9353 52.9724 69.6357C53.0164 71.7369 52.9022 73.838 52.8758 75.9392C52.8758 76.3419 52.9724 76.7534 53.0251 77.1561ZM13.1625 92.2144C10.036 89.8243 7.84046 86.8389 6.76903 83.0743C5.68881 79.2835 5.95228 75.5102 6.90076 71.4917C2.9224 76.7446 6.98858 90.3146 13.1625 92.2144ZM15.9816 93.6414C15.9289 93.7727 15.8762 93.8953 15.8323 94.0266C16.4558 94.3068 17.0618 94.7532 17.7029 94.8408C19.4857 95.0684 21.1719 94.6394 22.7439 93.7377C26.2305 91.7328 28.7422 88.8262 30.6041 85.3243C30.806 84.9479 30.9114 84.5276 31.0695 84.1249C30.1298 85.123 29.3921 86.1998 28.6368 87.2679C27.1526 89.3603 25.3962 91.1725 23.1391 92.4682C21.1544 93.6064 19.0817 94.2805 16.7544 93.6501C16.4998 93.5889 16.2363 93.6414 15.9816 93.6414ZM160.3 84.8253C160.397 84.8253 160.494 84.8253 160.59 84.8253C160.643 84.4576 160.775 84.0899 160.739 83.7309C160.362 80.1415 161.539 76.5783 160.906 72.9888C160.862 72.7262 160.941 72.4372 160.941 72.1571C160.95 70.091 160.968 68.0336 160.95 65.9674C160.95 65.626 160.836 65.2933 160.775 64.9519C160.669 64.9606 160.573 64.9782 160.467 64.9869C160.432 65.4422 160.379 65.9062 160.371 66.3614C160.353 67.946 160.423 69.5394 160.335 71.124C160.256 72.5248 159.844 73.9168 159.844 75.3088C159.844 78.1541 160.019 80.9994 160.142 83.8535C160.151 84.1774 160.239 84.5014 160.3 84.8253ZM24.7902 69.5044C24.878 69.5482 24.9658 69.5919 25.0537 69.6445C25.282 69.3293 25.6157 69.0491 25.7211 68.699C26.3622 66.6853 25.7123 64.9344 23.9471 63.7175C20.6099 61.415 15.9992 61.6163 12.0384 64.2515C11.81 64.4003 11.6168 64.6017 11.4061 64.7856C12.618 64.5142 13.6982 64.0414 14.7872 63.5949C17.176 62.6144 19.5999 62.5968 22.0326 63.4023C24.4653 64.2165 25.4313 65.8536 24.9834 68.375C24.9307 68.7427 24.8605 69.1192 24.7902 69.5044ZM154.987 62.2291C155.128 64.6367 155.251 66.7291 155.391 69.0579C157.437 67.1056 157.27 63.8663 154.987 62.2291ZM159.115 41.4452C158.114 44.8771 158.755 48.0113 159.036 51.1456C159.703 48.0113 159.905 44.8771 159.115 41.4452ZM133.26 43.4851C134.094 45.1485 134.823 46.5405 134.384 48.2215C133.997 49.7185 133.76 51.2594 133.471 52.6777C135.64 51.2506 136.044 45.3061 133.26 43.4851ZM153.547 62.4218C153.16 65.1182 152.914 67.8147 153.731 70.4937C154.039 67.7972 154.047 65.1007 153.547 62.4218ZM103.497 44.3693C102.364 45.8489 100.915 46.5931 99.0353 46.4442C98.4821 46.4005 97.9024 46.3654 97.3667 46.488C96.8573 46.6018 96.3919 46.9082 95.9001 47.1359C95.944 47.2322 95.9879 47.3372 96.0318 47.4335C96.7256 47.3022 97.4106 47.1184 98.1132 47.0658C98.8597 47.0045 99.6325 47.1271 100.379 47.0483C102.039 46.882 103.172 45.9452 103.497 44.3693ZM142.13 39.8431C143.755 39.0814 145.379 38.311 147.004 37.5494C145.441 36.8927 142.999 38.0659 142.13 39.8431ZM148.216 62.2642C149.033 60.7496 150.42 59.9441 151.922 59.2788C152.748 58.9111 152.625 58.4033 152.212 57.7379C150.245 58.7622 148.98 60.2943 148.216 62.2642ZM142.797 43.2838C143.816 42.4958 144.712 41.8042 145.766 40.99C143.07 40.2984 142.27 40.9112 142.797 43.2838ZM124.39 57.0463C124.899 56.5035 124.68 55.9607 124.17 55.4879C123.582 54.9364 122.923 54.8313 122.212 55.1465C122.985 55.8119 123.687 56.4247 124.39 57.0463ZM133.989 73.6016C132.979 74.6872 132.092 75.6415 131.082 76.7183C132.786 76.2894 133.743 75.2563 133.989 73.6016Z" fill="white"/>
<path d="M241.413 43.5113C241.43 45.5774 239.648 47.3459 237.531 47.3721C235.643 47.3984 233.965 45.6212 234.001 43.6251C234.036 41.5589 235.722 39.7992 237.654 39.8255C239.683 39.8517 241.395 41.5327 241.413 43.5113Z" fill="white"/>
<path d="M22.9811 59.7602C20.5308 58.2544 17.9488 57.4315 15.0946 57.983C10.4488 58.8935 6.81293 61.3449 4.15191 65.2407C2.06173 68.2874 0.568752 71.5267 1.09569 75.3525C1.2362 76.3856 1.51724 77.4012 1.77192 78.6181C0.603881 77.5588 -0.116263 75.1862 0.0154705 73.2777C0.516059 66.4051 6.88319 58.7885 13.5489 57.125C15.5952 56.6085 17.6414 56.5822 19.6789 57.1863C21.1104 57.5978 22.2082 58.4645 22.9811 59.7602Z" fill="white"/>
<path d="M329.007 30.0205C329.736 30.9835 327.725 72.2274 326.908 73.4531C327.268 58.9639 328.111 44.501 329.007 30.0205Z" fill="white"/>
<path d="M75.7101 32.7079C75.2886 46.9782 74.867 61.2398 74.4279 75.7903C73.699 74.7835 74.6826 33.6884 75.2447 32.6729C75.4027 32.6816 75.552 32.6991 75.7101 32.7079Z" fill="white"/>
<path d="M341.346 45.0264C341.452 45.1752 341.601 45.3153 341.663 45.4816C343.287 50.2442 345.904 54.4991 348.407 58.8239C349.971 61.5379 351.499 64.2782 352.851 67.0885C354.256 70.0038 354.581 73.0855 353.457 76.2022C353.009 77.4367 352.315 78.5223 350.954 79.1351C351.077 78.8462 351.13 78.5047 351.323 78.2771C353.791 75.353 353.712 71.9999 352.535 68.7344C351.56 66.0379 350.058 63.5253 348.715 60.9689C346.598 56.9417 344.368 52.967 342.295 48.9135C341.698 47.7491 341.478 46.4009 341.083 45.1314C341.153 45.0964 341.25 45.0614 341.346 45.0264Z" fill="white"/>
<path d="M281.794 73.8647C281.425 72.5252 280.907 71.2032 280.705 69.8375C279.88 64.2344 280.635 58.8502 283.305 53.8075C285.298 50.0516 288.486 47.6441 292.368 46.077C292.781 45.9106 293.246 45.8756 293.685 45.7793C293.729 45.8844 293.782 45.9894 293.826 46.0945C293.457 46.3396 293.123 46.6635 292.728 46.8299C283.779 50.5682 281.294 58.0098 281.303 66.7821C281.303 68.7344 281.847 70.6867 282.146 72.639C282.207 73.0155 282.286 73.3832 282.348 73.7596C282.163 73.7947 281.979 73.8297 281.794 73.8647Z" fill="white"/>
<path d="M314.209 67.8755C314.701 55.111 315.193 42.3465 315.684 29.582C315.904 29.5908 316.115 29.5995 316.334 29.6083C315.834 42.3728 315.5 55.1373 314.903 67.9018C314.666 67.8931 314.437 67.8843 314.209 67.8755Z" fill="white"/>
<path d="M311.548 81.2709C308.922 82.6454 306.165 83.1445 303.363 81.84C302.142 81.2709 301.168 81.3935 299.982 81.8312C294.906 83.7135 290.005 83.5997 285.526 80.1853C285.079 79.8439 284.727 79.3624 284.332 78.9509C284.402 78.8459 284.473 78.7408 284.543 78.6357C284.885 78.7933 285.272 78.8984 285.579 79.1173C290.111 82.3916 294.994 82.8818 300.166 80.9032C301.396 80.4392 302.546 80.4305 303.714 81.0871C305.655 82.1639 307.64 81.7349 309.634 81.1921C310.24 81.0258 310.872 80.9207 311.487 80.7894C311.504 80.9558 311.522 81.1134 311.548 81.2709Z" fill="white"/>
<path d="M245.365 75.712C244.627 75.0116 244.979 42.1986 245.716 41.2969C245.971 52.7744 245.435 64.2432 245.365 75.712Z" fill="white"/>
<path d="M265.301 73.4442C264.748 72.595 264.414 52.4939 264.845 48.2916C264.88 47.9502 265.108 47.635 265.301 47.1973C265.916 48.1953 265.863 71.6932 265.301 73.4442Z" fill="white"/>
<path d="M327.997 71.6576C332.836 62.7015 335.927 53.22 336.771 43.0645C338.588 47.1442 331.712 69.9242 327.997 71.6576Z" fill="white"/>
<path d="M49.1786 10.6279C41.3975 16.7475 33.23 22.3506 25.0537 27.9449C25.5016 26.5704 45.8676 11.9937 49.1786 10.6279Z" fill="white"/>
<path d="M270.781 73.5492C270.351 64.6543 270.562 55.7594 270.939 46.8733C271.132 46.8733 271.326 46.8733 271.519 46.8733C271.545 55.7857 271.607 64.6893 271.449 73.6017C271.22 73.5842 271.001 73.5667 270.781 73.5492Z" fill="white"/>
<path d="M112.972 77.6465C113.368 78.1192 113.772 78.592 114.158 79.0735C116.002 81.4023 118.435 82.5754 121.377 82.698C126.111 82.8994 130.853 83.0482 135.595 83.232C136.667 83.2758 137.73 83.3459 138.854 83.6785C138.555 83.7486 138.265 83.8974 137.967 83.8887C132.908 83.7661 127.858 83.6348 122.8 83.4772C121.851 83.4509 120.903 83.2846 119.946 83.2145C116.793 83.0044 114.694 81.1572 112.972 78.7583C112.788 78.5045 112.762 78.128 112.665 77.8041C112.77 77.7515 112.876 77.699 112.972 77.6465Z" fill="white"/>
<path d="M108.722 51.8369C109.118 52.2309 109.618 52.5636 109.908 53.0276C111.199 55.1112 111.515 57.4925 111.717 59.8476C112.165 65.0829 110.725 69.8018 107.423 73.9253C107.054 74.3893 106.527 74.7395 106.079 75.1334C105.991 75.0547 105.903 74.9759 105.807 74.8971C106.457 73.934 107.098 72.971 107.756 72.0167C111.164 67.009 111.822 61.5372 110.338 55.7853C110.005 54.4896 109.205 53.3165 108.626 52.0908C108.643 52.012 108.678 51.9245 108.722 51.8369Z" fill="white"/>
<path d="M258.608 80.2116C260.822 80.9645 262.991 81.8487 265.248 82.4528C267.645 83.0919 270.104 82.733 272.458 82.1201C274.777 81.5161 277.016 80.6231 279.229 79.8789C278.729 81.052 277.244 81.8575 273.046 82.8468C267.891 84.0462 262.929 83.9061 258.608 80.2116Z" fill="white"/>
<path d="M232.315 50.9441C233.044 52.2486 232.692 75.5713 232.016 76.8758C231.867 68.2086 231.823 59.7427 232.315 50.9441Z" fill="white"/>
<path d="M197.985 17.7197C198.881 16.3102 200.26 15.9425 201.7 15.995C205.556 16.1088 209.42 16.2664 213.266 16.5378C216.463 16.7654 219.625 16.7654 222.751 16.0038C222.901 15.9688 223.059 15.995 223.278 16.2839C222.066 16.5641 220.854 17.0456 219.642 17.0806C216.305 17.1594 212.968 17.0719 209.631 16.9931C206.847 16.9318 204.063 16.7304 201.279 16.7042C200.523 16.6954 199.768 17.0981 199.013 17.3345C198.662 17.4396 198.328 17.5884 197.985 17.7197Z" fill="white"/>
<path d="M165.025 62.29C165.684 69.9943 163.831 77.6109 165.57 85.394C165.157 84.8424 164.665 84.4309 164.524 83.9319C164.252 82.9076 164.006 81.8308 164.041 80.7802C164.217 74.7219 164.481 68.6635 164.718 62.6052C164.726 62.5614 164.814 62.5089 165.025 62.29Z" fill="white"/>
<path d="M310.775 70.8785C311.056 63.6908 311.329 56.5031 311.61 49.3154C311.785 49.3242 311.961 49.3329 312.128 49.3329C312.339 56.5381 311.891 63.7258 311.197 70.896C311.065 70.8873 310.925 70.8873 310.775 70.8785Z" fill="white"/>
<path d="M62.2197 82.1896C65.0213 82.1896 67.533 82.2772 70.0271 82.1634C72.4247 82.0496 74.8135 81.7169 77.132 81.4893C76.0518 82.9863 64.345 83.7918 62.2197 82.1896Z" fill="white"/>
<path d="M160.327 36.0615C159.062 38.1977 156.296 39.257 155.813 41.8485C155.365 44.2735 155.365 46.7862 155.18 49.2112C154.504 48.4933 154.232 44.72 154.724 42.4525C155.251 40.0712 157.92 36.937 160.327 36.0615Z" fill="white"/>
<path d="M105.578 48.7118C105.244 55.059 104.902 61.4063 104.568 67.7535C104.199 61.3713 104.296 55.0153 105.104 48.6855C105.262 48.7031 105.42 48.7031 105.578 48.7118Z" fill="white"/>
<path d="M114.105 48.1423C116.099 43.5985 124.091 40.3242 128.298 42.2853C122.528 41.7075 117.952 44.0363 114.105 48.1423Z" fill="white"/>
<path d="M316.15 24.9512C315.492 22.8851 315.008 20.9327 314.244 19.103C313.419 17.1507 311.452 16.5028 309.361 15.8462C310.934 15.2946 312.918 15.9775 314.121 17.387C315.966 19.5495 316.563 22.0446 316.15 24.9512Z" fill="white"/>
<path d="M218.307 99.1392C217.165 98.5001 216.682 97.5108 217.209 95.9087C218.351 92.4243 220.836 90.043 224.103 88.4408C224.191 88.3971 224.331 88.4583 224.674 88.5021C223.91 89.1062 223.242 89.5702 222.654 90.113C221.477 91.2249 220.239 92.3017 219.211 93.5536C217.534 95.5848 217.508 96.1976 218.307 99.1392Z" fill="white"/>
<path d="M222.593 38.7224C222.821 40.3421 222.163 41.6027 220.986 42.5833C219.22 44.0628 217.42 45.4986 215.602 46.9082C215.163 47.2496 214.61 47.4422 213.89 47.8274C214.013 47.3809 214.004 47.1796 214.092 47.1008C215.883 45.6212 217.64 44.0803 219.51 42.6971C220.951 41.6553 221.952 40.3683 222.593 38.7224Z" fill="white"/>
<path d="M223.365 33.6271C222.558 29.8538 222.11 26.098 224.156 22.5698C224.375 22.1933 224.902 21.992 225.464 21.8782C224.34 23.2789 223.585 24.7322 223.594 26.5095C223.603 28.1816 223.585 29.845 223.541 31.5172C223.532 32.2264 223.427 32.9267 223.365 33.6271Z" fill="white"/>
<path d="M253.375 31.535C251.794 30.7646 250.108 30.1518 248.668 29.18C247.131 28.1469 245.638 27.8755 243.96 28.5146C242.889 28.9261 241.861 29.4339 240.764 29.8191C241.73 28.6109 243.073 27.9806 244.558 27.6829C246.428 27.3065 248.158 27.6304 249.713 28.8736C250.442 29.4514 251.373 29.7666 252.207 30.2131C252.699 30.4845 253.164 30.7909 253.638 31.0798C253.542 31.2374 253.454 31.3862 253.375 31.535Z" fill="white"/>
<path d="M62.7912 29.6965C62.1764 25.9757 61.2894 22.4651 56.6787 21.7647C56.7402 21.6159 56.8017 21.4583 56.8719 21.3094C57.3901 21.3094 57.9434 21.1956 58.4352 21.327C60.982 22.0098 62.2203 23.9359 62.8438 26.2997C63.1161 27.3503 63.1161 28.4709 63.2303 29.5565C63.081 29.6002 62.9317 29.6528 62.7912 29.6965Z" fill="white"/>
<path d="M246.138 78.8633C244.013 81.3584 241.431 83.1531 238.023 83.3457C237.25 83.3895 236.434 82.7767 235.652 82.4177C235.029 82.1288 234.449 81.7611 233.781 81.4022C234.194 80.7455 234.826 81.0432 235.257 81.4284C237.584 83.4946 239.85 82.8555 242.107 81.3409C243.407 80.4654 244.671 79.5199 245.945 78.6094C246.015 78.6969 246.077 78.7845 246.138 78.8633Z" fill="white"/>
<path d="M265.801 29.0137C265.784 29.3376 265.854 29.7053 265.731 29.9855C264.466 32.857 258.732 35.5885 255.184 34.8269C255.684 34.5992 255.965 34.3716 256.264 34.3453C260.216 34.0127 263.43 32.428 265.801 29.0137Z" fill="white"/>
<path d="M163.752 87.6356C161.02 89.6054 157.341 90.9449 158.14 95.6287C157.868 95.1297 157.332 94.6131 157.358 94.1316C157.56 91.0762 159.835 88.3534 162.794 87.4605C163.067 87.3817 163.357 87.3729 163.638 87.3379C163.681 87.4342 163.717 87.5392 163.752 87.6356Z" fill="white"/>
<path d="M155.628 57.1251C155.927 56.7749 156.181 56.3722 156.533 56.0832C157.903 54.9364 159.369 53.8858 160.669 52.6689C161.398 51.986 161.89 51.0405 162.522 50.1562C162.768 51.2156 162.549 52.2399 161.767 52.9228C159.931 54.5336 157.982 56.022 156.076 57.5541C155.927 57.414 155.777 57.2652 155.628 57.1251Z" fill="white"/>
<path d="M315.685 81.6648C319.452 81.446 323.009 81.2446 326.32 81.052C324.511 82.4615 319.224 82.908 315.685 81.6648Z" fill="white"/>
<path d="M162.891 46.6803C162.329 42.8457 162.399 38.1444 164.683 38.2057C164.226 39.5452 163.638 40.8584 163.348 42.2416C163.049 43.6599 163.041 45.1395 162.891 46.6803Z" fill="white"/>
<path d="M338.079 79.8351C334.944 79.9052 332.573 81.2797 330.825 83.8711C330.509 81.4723 335.287 78.4869 338.079 79.8351Z" fill="white"/>
<path d="M280.854 48.0118C278.404 46.9612 275.409 47.6441 273.17 45.3153C273.565 45.3153 273.89 45.2103 274.039 45.3329C275.576 46.5498 277.473 46.3834 279.23 46.7686C279.862 46.9087 280.433 47.3027 281.03 47.5828C280.977 47.7229 280.916 47.863 280.854 48.0118Z" fill="white"/>
<path d="M301.142 44.7806C301.756 43.3011 303.109 43.196 304.338 43.1873C306.314 43.1698 308.229 43.161 309.81 41.1299C309.186 43.0297 308.15 43.8351 306.385 43.7301C304.532 43.6162 302.766 43.6688 301.142 44.7806Z" fill="white"/>
<path d="M264.239 46.4264C261.314 46.5577 258.407 46.654 255.72 44.833C258.679 45.3933 261.455 45.9098 264.239 46.4264Z" fill="white"/>
<path d="M136.062 43.17C134.498 42.1369 132.83 41.0338 131.179 39.9395C133.559 40.1321 135.693 41.5941 136.062 43.17Z" fill="white"/>
<path d="M134.076 55.6634C134.972 54.1138 135.868 52.5642 136.913 50.7607C136.737 53.0545 135.657 54.499 134.076 55.6634Z" fill="white"/>
<path d="M314.561 77.1123C314.499 78.2329 314.429 79.3535 314.35 80.6492C313.349 79.8526 313.419 78.6181 314.561 77.1123Z" fill="white"/>
<path d="M299.745 55.4967C299.745 58.9373 299.771 62.3779 299.736 65.8273C299.719 67.3944 299.56 68.9528 299.473 70.3623C299.473 65.4859 299.473 60.4694 299.473 55.4529C299.56 55.4704 299.648 55.4879 299.745 55.4967Z" fill="white"/>
<path d="M212.335 27.341C209.402 27.341 206.477 27.341 203.377 27.341C204.211 26.6581 211.088 26.6406 212.335 27.341Z" fill="white"/>
<path d="M43.5227 30.957C41.1076 36.0261 41.3184 41.5591 40.5895 46.9346C38.9735 44.2643 41.1779 31.9989 43.5227 30.957Z" fill="white"/>
<path d="M460.963 88.175C460.419 87.6847 459.839 87.2207 459.321 86.7042C456.528 83.9202 453.252 82.1604 449.292 81.6614C446.859 81.355 446.437 80.8122 446.516 78.4134C446.877 67.216 447.307 56.0273 447.623 44.83C447.746 40.2687 447.641 35.7075 447.641 31.0149C446.903 31.0149 445.928 31.0149 444.857 31.0149C444.769 32.1793 444.646 33.3874 444.602 34.6131C444.338 42.151 444.11 49.6976 443.829 57.2355C443.557 64.3794 443.249 71.5146 442.907 78.6585C442.793 81.0661 443.17 83.3073 444.497 85.3647C444.786 85.8112 444.971 86.3277 444.997 87.0369C444.69 86.8705 444.33 86.748 444.075 86.5116C443.285 85.7762 442.468 85.067 441.8 84.2353C440.184 82.213 438.085 81.0748 435.591 80.5058C433.668 80.068 433.738 80.033 433.782 78.1595C433.844 75.4017 433.8 72.6352 433.8 69.5097C432.948 70.4202 432.359 71.0856 431.736 71.716C429.944 73.5457 427.81 74.6576 425.219 74.8414C423.621 74.9552 422.207 74.57 421.083 73.3969C420.451 72.7403 419.836 72.679 419.063 73.0992C414.294 75.6994 409.49 75.2354 404.704 73.1693C402.315 72.1362 400.708 70.3765 399.883 67.8814C397.169 59.6256 397.898 51.8075 403.185 44.7512C406.61 40.1812 411.344 37.8086 417.131 37.5547C417.957 37.5197 418.765 37.0557 419.581 36.7931C420.468 36.5041 421.338 36.0839 422.251 35.9438C423.507 35.76 424.824 35.9438 426.063 35.6987C427.433 35.4185 428.741 34.8407 430.076 34.3767C430.392 34.2717 430.682 34.0966 431.297 33.8077C431.033 34.6394 430.928 35.1734 430.7 35.6462C428.899 39.2794 428.32 43.1315 428.284 47.1587C428.223 53.4709 427.986 59.7832 427.828 66.0954C427.819 66.4543 427.793 66.8133 427.837 67.1635C427.96 68.1965 428.504 68.5642 429.382 68.0477C431.437 66.8395 433.273 65.4388 433.431 62.7335C433.659 58.61 433.984 54.4953 434.239 50.3805C434.599 44.5936 434.933 38.8154 435.249 33.0285C435.31 31.8991 435.539 30.6384 434.239 29.9643C432.93 29.2902 431.938 30.0956 430.998 30.8223C428.302 32.8884 425.132 33.9127 421.979 34.9633C421.909 34.8758 421.83 34.7882 421.759 34.7007C422.26 34.2542 422.699 33.5713 423.279 33.3874C426.019 32.5382 427.837 30.6122 429.619 28.5373C431.033 26.9001 432.667 25.4556 434.432 23.6959C434.265 22.6015 434.063 21.0782 433.8 19.5548C433.282 16.5432 431.508 14.801 428.478 14.2319C428.03 14.1444 427.591 14.0218 427.108 13.6278C427.512 13.4527 427.907 13.1463 428.328 13.1113C433.405 12.6998 438.226 13.4965 441.642 19.0646C442.529 20.5091 443.61 21.8574 444.76 23.1093C445.155 23.5295 446.033 23.512 446.692 23.6871C446.806 23.1531 447.043 22.619 447.026 22.0937C446.982 19.87 446.042 18.0315 444.391 16.5694C443.135 15.4663 441.95 14.2144 440.527 13.3915C439.385 12.7349 437.927 12.621 436.513 12.2358C436.557 11.5442 437.33 11.5004 437.954 11.4742C442.459 11.2903 446.648 12.1308 450.205 15.1599C452.137 16.8058 454.183 18.3204 456.212 19.8438C457.319 20.6667 458.118 21.691 458.346 23.0305C458.495 23.9235 458.935 23.9498 459.655 23.9235C471.888 23.3807 484.113 22.7153 496.347 22.4089C503.136 22.2426 509.801 23.4507 516.265 25.6657C522.316 27.7406 526.496 31.7941 529.324 37.3534C530.51 39.6909 532.143 41.3193 534.831 41.5031C535.867 41.5732 536.93 41.2405 537.975 41.0566C538.344 40.9866 538.686 40.8027 539.073 40.7677C537.667 42.6325 535.753 42.6938 533.715 42.2648C533.25 42.1685 532.785 42.0284 532.363 41.8183C531.573 41.4243 530.914 41.0741 530.062 41.8883C529.403 42.5274 528.657 42.0284 528.314 41.3193C527.796 40.26 527.304 39.1569 526.988 38.0275C526.277 35.5061 524.793 33.7289 522.457 32.5032C517.091 29.6666 511.382 27.9945 505.393 27.0927C498.762 26.0947 492.114 26.0421 485.475 26.69C481.119 27.1102 476.806 27.8544 472.468 28.4322C468.481 28.9663 464.494 29.4653 460.515 29.9818C460.041 30.0431 459.576 30.1481 459.093 30.1657C458.223 30.2094 457.969 30.6647 457.951 31.4876C457.837 36.0576 457.644 40.6189 457.547 45.1802C457.31 55.861 457.108 66.5419 456.906 77.2315C456.871 78.9649 457.257 80.6108 458.144 82.1254C458.987 83.5612 459.813 85.0145 460.612 86.4766C460.875 86.9668 461.042 87.5096 461.244 88.0262C461.156 88.0437 461.06 88.1137 460.963 88.175ZM414.479 67.8026C415.217 67.6537 415.972 67.5574 416.683 67.3386C418.624 66.7257 418.721 66.4893 418.703 64.4407C418.668 61.1489 418.606 57.8571 418.712 54.5741C418.808 51.7638 419.107 48.9622 419.353 46.1607C419.485 44.6286 419.265 44.366 417.719 44.2521C415.577 44.0946 413.759 44.7862 412.424 46.4408C411.589 47.4739 410.808 48.6295 410.298 49.8465C408.603 53.935 407.971 58.1548 408.516 62.6285C408.911 65.8677 412.029 67.7588 414.479 67.8026ZM453.542 24.8252C453.402 24.834 453.252 24.8427 453.112 24.8515C453.042 25.228 452.936 25.6044 452.91 25.9809C452.761 28.1608 452.559 30.332 452.488 32.512C452.278 38.9818 452.146 45.4516 451.918 51.9126C451.891 52.7005 451.461 53.4709 451.294 54.2676C451.189 54.7754 451.162 55.3182 451.241 55.8347C451.373 56.7102 451.803 57.577 451.777 58.4349C451.584 64.6246 451.303 70.8055 451.092 76.9951C451.074 77.3891 451.47 77.8006 451.672 78.212C451.865 77.8356 452.199 77.4679 452.216 77.0914C452.488 70.823 452.708 64.5545 452.998 58.2948C453.033 57.4982 453.472 56.7365 453.639 55.9398C453.735 55.4758 453.753 54.968 453.674 54.504C453.516 53.6373 453.059 52.7793 453.077 51.9301C453.27 43.3154 453.533 34.7094 453.762 26.0947C453.779 25.6832 453.621 25.2542 453.542 24.8252ZM440.501 25.2805C440.343 25.2892 440.176 25.2892 440.018 25.298C439.939 25.9458 439.816 26.6025 439.789 27.2503C439.376 35.4536 439.087 43.6743 438.498 51.8601C438.375 53.6285 438.226 55.362 438.217 57.1567C438.182 63.3026 437.769 69.4485 437.506 75.5943C437.488 75.9883 437.48 76.391 437.567 76.7675C437.602 76.9426 437.883 77.1877 438.042 77.179C438.217 77.179 438.472 76.9513 438.533 76.7675C438.639 76.4786 438.621 76.1459 438.63 75.822C438.92 69.7549 439.192 63.6878 439.535 57.6295C439.578 56.8853 440.018 56.1762 440.228 55.4408C440.369 54.9418 440.685 54.2676 440.483 53.9262C439.684 52.5517 439.807 51.1159 439.86 49.6451C440.149 41.9496 440.43 34.2542 440.703 26.5587C440.72 26.1385 440.571 25.7095 440.501 25.2805ZM517.442 28.4935C517.477 28.3884 517.512 28.2921 517.547 28.1871C516.142 27.6705 514.763 27.0665 513.332 26.6375C506.517 24.6151 499.544 23.7221 492.448 23.7571C482.023 23.8097 471.686 25.0966 461.341 26.1735C461.034 26.2085 460.744 26.3748 460.445 26.4799C460.463 26.585 460.489 26.69 460.507 26.7951C460.998 26.7951 461.49 26.8301 461.982 26.7863C469.886 26.1384 477.781 25.333 485.694 24.869C493.15 24.4313 500.615 24.6064 507.957 26.1647C511.145 26.8388 514.289 27.7143 517.442 28.4935ZM416.051 41.223C416.007 41.1004 415.963 40.9866 415.919 40.864C415.19 41.0741 414.444 41.2317 413.75 41.5119C408.191 43.7969 404.985 48.008 403.571 53.7424C403.325 54.7404 402.675 55.6421 402.289 56.6139C402.096 57.1042 401.806 57.8221 402.017 58.146C402.956 59.5993 402.719 61.2189 402.851 62.7773C403.413 69.6936 408.481 71.5846 414.075 70.6304C414.25 70.6041 414.391 70.3765 414.769 70.0525C414.119 70.1226 413.776 70.1839 413.434 70.1926C408.033 70.3239 404.239 68.4241 403.694 63.0487C403.615 62.3045 403.659 61.5429 403.606 60.79C403.562 60.0983 403.764 59.6518 404.423 59.2491C405.688 58.4699 405.846 57.3231 404.853 56.2462C404.186 55.5196 404.177 54.7754 404.379 53.935C405.776 48.2356 409.095 44.1471 414.584 41.8621C415.085 41.6695 415.568 41.4419 416.051 41.223ZM424.315 41.9496C424.192 41.9584 424.069 41.9671 423.946 41.9759C423.867 42.5099 423.735 43.0352 423.709 43.578C423.542 46.8698 423.445 50.1616 423.2 53.4447C423.129 54.3377 422.752 55.2657 422.277 56.0361C421.707 56.9729 421.68 57.7258 422.242 58.6713C422.62 59.3016 422.919 60.1071 422.91 60.8337C422.883 63.4076 422.681 65.9903 422.602 68.5642C422.585 69.0107 422.822 69.4572 422.936 69.9037C423.068 69.8774 423.2 69.8512 423.331 69.8249C423.384 69.3259 423.463 68.8269 423.489 68.3279C423.604 65.9466 423.612 63.5652 423.841 61.1927C423.928 60.2297 424.368 59.2579 424.807 58.3649C425.176 57.612 425.219 57.0166 424.851 56.2462C424.499 55.4933 424.201 54.6266 424.21 53.8036C424.253 50.3105 424.429 46.8173 424.526 43.3329C424.543 42.8689 424.394 42.4136 424.315 41.9496Z" fill="white"/>
<path d="M489.471 48.1398C489.339 55.3275 489.216 62.5152 489.084 69.7029C488.926 69.7379 488.768 69.7729 488.61 69.808C488.469 69.379 488.188 68.9412 488.197 68.521C488.294 63.9948 488.443 59.4685 488.548 54.9423C488.592 52.7011 488.557 50.4511 488.311 48.1311C488.188 48.5338 487.96 48.9277 487.942 49.3305C487.679 55.7215 487.433 62.1037 487.205 68.4947C487.152 69.8605 486.572 70.8936 485.51 71.7428C483.13 73.6426 480.337 74.5005 477.395 74.9558C471.643 75.84 466.233 74.9033 461.201 71.9091C459.497 70.8936 458.671 69.5803 458.706 67.5492C458.847 58.5755 458.9 49.5931 458.961 40.6194C458.97 39.3062 459.462 38.2644 460.428 37.3714C463.458 34.5874 467.146 33.1516 471.107 32.4162C475.085 31.6808 479.072 31.8909 482.84 33.4668C484.359 34.0971 485.747 35.0776 487.135 35.9969C488.215 36.7148 488.566 37.8267 488.461 39.1224C488.303 41.0834 488.232 43.0533 488.346 45.0406C489.374 43.3597 488.434 41.3461 489.172 39.6214C489.304 39.6214 489.427 39.6301 489.558 39.6301C489.558 41.3723 489.558 43.1146 489.558 44.8655C489.716 44.883 489.866 44.9005 490.024 44.9093C490.112 44.5328 490.27 44.1651 490.279 43.7887C490.322 42.4754 490.375 41.1622 490.322 39.8578C490.279 38.6846 490.735 37.8091 491.561 37.0212C494.582 34.1496 498.297 32.6876 502.301 31.9347C506.578 31.1292 510.811 31.4181 514.79 33.3179C516.142 33.9658 517.381 34.8588 518.593 35.743C519.796 36.6185 520.261 37.8179 519.796 39.3062C519.664 39.7177 519.664 40.1642 519.84 40.6545C520.033 40.2692 520.235 39.8753 520.516 39.3237C520.727 39.6827 520.981 39.9103 520.955 40.1029C520.814 41.2585 521.587 41.5737 522.457 41.9064C524.16 42.563 525.855 43.2546 527.533 43.9813C529.017 44.6291 530.203 45.5221 530.343 47.3344C530.378 47.8159 530.8 48.2536 530.923 48.7351C531.028 49.1204 530.949 49.5581 530.958 49.9696C530.58 49.8032 530.045 49.7419 529.843 49.4443C527.954 46.6865 525.311 44.9093 522.334 43.5435C521.956 43.3684 521.543 43.2634 521.025 43.0795C520.929 44.4978 520.806 45.7585 520.762 47.0192C520.507 54.0843 520.279 61.1495 520.006 68.2146C519.989 68.6523 519.743 69.0901 519.611 69.5191C519.418 69.4928 519.225 69.4578 519.04 69.4315C519.33 60.6242 519.62 51.8168 519.91 43.0007C519.796 42.9832 519.69 42.9657 519.576 42.9482C519.488 43.3684 519.348 43.7799 519.33 44.2001C519.076 50.6262 518.838 57.061 518.593 63.487C518.522 65.273 518.531 67.0677 518.303 68.8362C518.215 69.5278 517.697 70.2895 517.161 70.7885C514.737 73.0472 511.672 73.9315 508.511 74.4743C502.828 75.4548 497.524 74.3342 492.562 71.4188C490.867 70.4208 489.98 69.2389 490.05 67.129C490.235 61.1319 490.208 55.1349 490.243 49.1379C490.243 48.7877 490.085 48.4287 489.998 48.0785C489.813 48.1223 489.637 48.1311 489.471 48.1398ZM509.301 54.4258C509.31 54.4258 509.31 54.4258 509.318 54.4258C509.45 50.9764 509.564 47.527 509.731 44.0776C509.784 42.9657 509.354 42.7906 508.379 43.097C505.981 43.8412 503.584 44.5503 501.169 45.242C500.282 45.4959 499.851 45.9861 499.842 46.9404C499.746 52.6135 499.614 58.2954 499.491 63.9685C499.465 64.9841 499.913 65.6932 500.782 66.2097C502.793 67.4004 504.892 67.5405 507.114 66.9276C508.326 66.5949 508.879 65.9646 508.906 64.6601C508.967 61.2458 509.16 57.8401 509.301 54.4258ZM468.806 45.3996C468.709 45.9424 468.595 46.3276 468.586 46.7128C468.472 52.7799 468.349 58.8469 468.305 64.914C468.305 65.4743 468.727 66.2448 469.192 66.5687C471.511 68.1358 474.031 68.3109 476.561 67.1377C477.061 66.9014 477.615 66.166 477.641 65.6319C477.931 60.0464 478.133 54.4608 478.291 48.8665C478.3 48.455 477.843 47.7634 477.465 47.6583C474.646 46.8529 471.783 46.1612 468.806 45.3996ZM468.815 40.8208C471.608 42.9219 474.664 44.1914 478.282 44.314C478.352 43.3072 478.563 42.4142 478.414 41.5912C478.3 40.9346 477.904 40.1029 477.377 39.7702C474.892 38.1768 470.993 38.7109 468.815 40.8208ZM500.088 43.2809C500.317 43.2721 500.554 43.2897 500.773 43.2371C503.382 42.6856 505.981 42.1515 508.581 41.5562C509.037 41.4511 509.433 41.0834 509.863 40.8383C509.6 40.4181 509.389 39.9453 509.055 39.5951C508.765 39.2887 508.361 39.0261 507.966 38.9035C506.104 38.3257 504.216 38.2206 502.345 38.8947C499.913 39.7702 499.465 40.6457 500.088 43.2809ZM464.529 40.4268C464.371 40.4268 464.213 40.4268 464.055 40.4181C463.976 40.7683 463.835 41.1097 463.826 41.4599C463.774 44.8393 463.791 48.2099 463.686 51.5892C463.66 52.4559 463.273 53.3139 463.097 54.1806C463.027 54.5133 463.01 54.8723 463.062 55.2049C463.212 56.1242 463.554 57.0259 463.572 57.9364C463.607 61.0356 463.537 64.1348 463.501 67.2341C463.493 67.7681 463.501 68.3021 463.501 68.8362C463.66 68.8712 463.809 68.9062 463.967 68.9325C464.116 68.4422 464.38 67.9519 464.388 67.4529C464.459 64.1961 464.441 60.9393 464.538 57.6826C464.564 56.9296 464.951 56.1855 465.091 55.4238C465.179 54.9598 465.188 54.4608 465.117 53.9968C464.994 53.2351 464.634 52.4822 464.626 51.7293C464.599 48.3149 464.67 44.9005 464.687 41.4862C464.696 41.136 464.582 40.777 464.529 40.4268ZM482.497 68.9062C482.647 68.8799 482.805 68.8537 482.954 68.8362C483.016 68.3722 483.112 67.9169 483.13 67.4529C483.226 64.2749 483.27 61.0969 483.42 57.9277C483.455 57.1748 483.841 56.4394 483.99 55.6777C484.078 55.2487 484.096 54.7847 484.017 54.3557C483.885 53.5941 483.507 52.8586 483.507 52.1057C483.499 48.5688 483.604 45.0406 483.63 41.5037C483.63 41.0747 483.446 40.6545 483.341 40.2255C483.2 40.243 483.06 40.2605 482.919 40.2867C482.866 40.8208 482.787 41.3548 482.779 41.8889C482.717 44.1914 482.752 46.5027 482.603 48.7964C482.48 50.7487 482.146 52.6923 481.927 54.6446C481.892 54.916 481.909 55.1962 481.944 55.4676C482.085 56.597 482.357 57.7176 482.366 58.8469C482.383 61.7448 482.278 64.6426 482.252 67.5405C482.252 67.987 482.41 68.451 482.497 68.9062ZM514.746 40.7245C514.597 40.7157 514.447 40.707 514.298 40.6982C514.21 41.0834 514.061 41.4599 514.052 41.8451C513.973 45.1369 513.964 48.4375 513.841 51.7293C513.806 52.6485 513.437 53.5503 513.27 54.4608C513.191 54.8723 513.191 55.3012 513.235 55.7127C513.35 56.6407 513.639 57.5687 513.648 58.4967C513.666 61.6747 513.569 64.8527 513.56 68.0307C513.56 68.3196 513.824 68.5998 513.973 68.8887C514.149 68.6261 514.465 68.3634 514.465 68.092C514.535 65.5531 514.746 62.9967 514.535 60.4753C514.324 57.9627 516.046 55.5376 514.746 53.025C514.667 52.8674 514.728 52.631 514.737 52.4384C514.799 48.9453 514.869 45.4521 514.913 41.9589C514.904 41.5387 514.799 41.1272 514.746 40.7245ZM494.775 68.591C494.924 68.5998 495.082 68.6085 495.232 68.6085C495.311 68.2146 495.434 67.8294 495.451 67.4354C495.583 64.3012 495.653 61.167 495.829 58.0415C495.873 57.201 496.233 56.3781 496.391 55.5464C496.47 55.1086 496.479 54.6446 496.417 54.2069C496.303 53.4452 495.969 52.6923 495.978 51.9394C496.022 48.525 496.171 45.1194 496.233 41.705C496.242 41.241 495.978 40.777 495.838 40.313C495.697 40.348 495.565 40.3918 495.425 40.4268C495.399 40.812 495.355 41.206 495.346 41.5912C495.258 44.9618 495.469 48.3762 494.986 51.6855C494.643 54.0318 494.837 56.2818 494.845 58.5755C494.854 61.5084 494.705 64.4413 494.643 67.3829C494.635 67.7944 494.731 68.1883 494.775 68.591Z" fill="white"/>
<path d="M395.614 33.1864C395.57 33.8868 395.482 34.631 395.482 35.3751C395.394 53.2874 395.307 71.2085 395.245 89.1209C395.236 91.2745 394.797 93.2969 393.743 95.1617C391.153 99.7667 389.396 104.652 388.535 109.861C388.456 110.342 388.246 110.798 388.088 111.262C387.973 111.262 387.859 111.271 387.754 111.271C387.613 110.903 387.403 110.535 387.35 110.15C386.797 106.552 386.551 102.875 385.005 99.5216C384.1 97.5605 382.959 95.687 381.764 93.8747C381.114 92.8942 380.763 91.9487 380.789 90.7843C381.079 78.3174 381.352 65.8506 381.624 53.3837C381.738 47.982 381.843 42.5803 381.94 37.1786C381.949 36.4695 381.878 35.7603 381.843 34.9724C381.483 34.9724 381.15 34.8936 380.886 34.9811C375.88 36.7233 371.322 39.1747 368.099 43.5346C366.799 45.2943 365.649 47.1678 365.763 49.5054C365.833 50.9499 366.167 51.3789 367.59 51.7028C369.276 52.088 369.697 52.4908 369.627 53.6727C369.566 54.8195 368.547 55.8001 367.23 55.9226C365.614 56.0802 364.253 55.5812 363.207 54.303C361.372 52.0618 361.179 49.4966 361.609 46.7651C361.732 45.9422 361.811 44.9354 361.451 44.2612C359.431 40.5492 360.037 36.9335 361.881 33.4753C363.989 29.5094 367.581 27.1368 371.638 25.4472C374.809 24.1252 378.111 23.3022 381.659 23.2497C381.738 21.131 381.439 19.1875 380.175 17.4803C378.805 15.6418 376.881 15.4054 374.914 16.027C373.149 16.5873 371.489 17.4715 369.803 18.2595C369.214 18.5309 368.679 18.9336 367.862 19.4326C368.029 18.9161 368.038 18.6534 368.169 18.5221C370.857 15.8519 373.79 13.5756 377.698 13.0241C380.912 12.5688 383.661 13.742 386.05 15.7643C387.49 16.9813 389.036 17.7867 390.915 18.0844C393.857 18.5571 394.964 19.9491 394.885 22.8908C394.797 26.0425 394.797 26.1213 397.941 26.3226C405.784 26.8304 412.687 24.6592 418.193 18.9073C419.273 17.7779 420.152 16.4035 420.916 15.0202C421.311 14.3111 421.363 13.348 421.346 12.5076C421.328 11.3344 420.283 11.1506 419.396 10.9405C418.395 10.7041 417.736 10.2313 417.736 9.10194C417.736 7.81498 418.536 6.93951 419.835 6.83445C422.76 6.60682 425.386 8.82178 425.676 11.7546C425.719 12.2274 425.755 12.7089 425.702 13.1817C425.561 14.3023 425.842 15.2391 426.466 16.1933C428.389 19.1437 428.249 22.5931 426.071 25.4121C423.067 29.2905 418.922 31.4004 414.259 32.5561C410.386 33.5191 406.416 33.2477 402.473 33.1952C400.207 33.1689 397.976 33.1864 395.614 33.1864ZM388.052 86.7921C388.21 86.8096 388.36 86.8184 388.518 86.8359C388.597 86.2493 388.729 85.6627 388.746 85.0761C388.878 77.6083 388.992 70.1492 389.106 62.6813C389.124 61.5695 389.282 60.659 390.388 59.9586C391.644 59.1707 391.574 57.0257 390.292 56.1503C389.501 55.6075 389.37 55.0121 389.379 54.1804C389.493 46.0034 389.598 37.8265 389.686 29.6407C389.695 28.9491 389.607 28.2487 389.563 27.5571C389.449 27.5571 389.335 27.5483 389.22 27.5483C389.15 28.0736 389.036 28.5901 389.018 29.1154C388.843 37.3712 388.676 45.627 388.535 53.8828C388.518 54.8458 388.298 55.6162 387.543 56.3078C386.182 57.5598 386.191 58.873 387.552 60.0899C388.184 60.659 388.377 61.2543 388.36 62.0598C388.21 69.764 388.088 77.4595 387.965 85.1637C387.947 85.7065 388.017 86.2493 388.052 86.7921ZM401.814 30.3499C407.523 30.3761 413.152 29.7108 418.43 27.3119C421.53 25.9024 423.296 23.3197 424.235 20.1242C424.288 19.9316 424.385 19.7128 424.332 19.5464C424.253 19.275 424.068 19.0299 423.928 18.7673C423.691 18.9336 423.375 19.0474 423.252 19.275C423.041 19.6427 422.944 20.0892 422.795 20.5007C421.565 23.8363 419.361 26.1738 415.883 27.2156C414.32 27.6796 412.766 28.2049 411.176 28.5464C408.067 29.203 404.932 29.7545 401.814 30.3499ZM374.932 29.9296C374.739 29.9559 374.537 29.9471 374.361 30.0084C369.785 31.5843 366.325 34.4646 364.156 38.7982C363.849 39.4198 363.752 40.164 363.647 40.8644C363.603 41.1533 363.769 41.4685 363.849 41.7749C363.971 41.8274 364.086 41.8712 364.209 41.9237C365.702 36.0317 369.996 32.7487 374.932 29.9296Z" fill="white"/>
<path d="M396.379 89.7335C396.238 89.1907 395.975 88.6479 395.984 88.1139C396.054 82.1956 396.159 76.2774 396.273 70.3591C396.484 59.4769 396.695 48.5947 396.923 37.7125C396.941 37.0208 397.09 36.3205 397.222 35.3574C397.977 36.3292 397.371 87.4923 396.827 89.6284C396.677 89.6635 396.528 89.6985 396.379 89.7335Z" fill="white"/>
<path d="M380.948 37.2226C381.018 37.5815 381.168 37.9405 381.15 38.2994C380.843 49.0066 380.509 59.7224 380.193 70.4296C380.009 76.6192 379.842 82.8089 379.666 88.9985C379.657 89.1561 379.719 89.3487 379.657 89.4713C379.49 89.7689 379.262 90.0403 379.06 90.3292C378.911 90.0403 378.63 89.7602 378.63 89.4713C378.647 87.4839 378.726 85.5053 378.797 83.5267C379.007 76.8643 379.227 70.2019 379.429 63.5395C379.684 55.2137 379.929 46.8791 380.202 38.5533C380.219 38.0981 380.439 37.6516 380.562 37.2051C380.685 37.2051 380.816 37.2138 380.948 37.2226Z" fill="white"/>
<path d="M443.917 79.7801C443.829 79.4036 443.645 79.0184 443.662 78.6419C443.917 71.6644 444.198 64.6868 444.479 57.7092C444.672 52.7978 444.857 47.8776 445.067 42.9661C445.208 39.6393 445.375 36.3125 445.533 32.9856C445.542 32.7668 445.621 32.5567 445.673 32.3465C445.788 32.3378 445.893 32.3203 446.007 32.3115C446.095 32.7142 446.262 33.117 446.253 33.5109C446.077 39.6568 445.902 45.8027 445.682 51.9485C445.498 57.1839 445.261 62.4105 445.067 67.6459C444.936 71.2179 444.839 74.7811 444.707 78.353C444.69 78.8345 444.523 79.2985 444.426 79.7801C444.251 79.7801 444.084 79.7801 443.917 79.7801Z" fill="white"/>
<path d="M379.376 22.2697C378.252 22.5323 377.128 22.8125 375.995 23.0401C369.224 24.3796 363.964 27.8727 360.468 33.8435C359.089 36.2073 358.194 38.7462 358.852 41.539C359.063 42.4232 359.52 43.2549 359.739 44.1829C358.527 43.6226 358.018 42.5633 357.886 41.3464C357.579 38.5098 358.132 35.8746 359.678 33.4058C363.674 27.006 369.33 23.1189 376.812 21.937C377.62 21.8057 378.463 21.8407 379.28 21.8057C379.315 21.9545 379.35 22.1121 379.376 22.2697Z" fill="white"/>
<path d="M486.731 72.7758C483.613 75.6124 479.705 76.7855 475.63 77.3371C469.588 78.1513 461.798 75.6562 459.33 72.1455C459.752 72.3556 460.173 72.557 460.586 72.7846C463.669 74.4655 466.83 75.8751 470.387 76.2865C475.2 76.8381 479.722 76.0151 483.973 73.7039C484.737 73.2836 485.501 72.8634 486.274 72.4519C486.362 72.4081 486.494 72.4694 486.608 72.4782C486.652 72.5745 486.696 72.6708 486.731 72.7758Z" fill="white"/>
<path d="M419.871 12.0957C419.967 12.5159 420.187 12.9362 420.143 13.3389C419.959 15.1599 418.914 16.5957 417.763 17.9089C413.811 22.4089 408.814 24.9302 402.816 25.403C401.437 25.5168 400.049 25.4205 398.662 25.3943C398.468 25.3943 398.284 25.2104 398.108 24.8252C398.75 24.7814 399.399 24.7201 400.041 24.7026C406.513 24.5275 412.239 22.5314 416.709 17.6813C418.123 16.1404 419.555 14.5295 419.449 12.192C419.59 12.1657 419.73 12.1307 419.871 12.0957Z" fill="white"/>
<path d="M517.96 71.7422C514.351 77.853 494.169 77.9844 490.551 72.0048C491.403 72.32 492.079 72.5039 492.711 72.8015C496.795 74.7276 501.028 75.927 505.595 75.7344C509.477 75.568 513.139 74.6926 516.423 72.5301C516.827 72.2675 517.275 72.0924 517.96 71.7422Z" fill="white"/>
<path d="M487.951 35.4279C485.237 33.3618 482.339 31.7596 478.923 31.3832C475.524 31.0067 472.178 31.1993 468.858 32.0836C465.556 32.959 462.675 34.6575 459.953 36.6798C459.874 36.5923 459.795 36.496 459.716 36.4084C460.032 36.067 460.295 35.6643 460.664 35.3841C465.38 31.7334 470.773 30.1925 476.701 30.3851C480.477 30.5077 484.034 31.3131 487.002 33.8345C487.433 34.2022 487.793 34.64 488.188 35.0514C488.118 35.1653 488.03 35.2966 487.951 35.4279Z" fill="white"/>
<path d="M518.566 34.159C508.8 28.6872 499.632 30.1055 490.849 36.4965C490.779 36.3739 490.709 36.2426 490.639 36.12C491.122 35.6998 491.596 35.2533 492.097 34.8506C495.688 31.979 499.886 30.7008 504.4 30.1843C507.694 29.8078 510.917 30.0617 514.043 31.1823C515.765 31.8039 517.363 32.6794 518.566 34.159Z" fill="white"/>
<path d="M434.204 37.0915C433.738 45.9163 433.185 54.7411 432.509 63.5572C432.324 63.566 432.14 63.5747 431.956 63.5923C431.877 63.2246 431.701 62.8569 431.727 62.4979C432.254 54.6624 432.799 46.8268 433.361 39C433.405 38.3259 433.607 37.6693 433.738 37.0039C433.888 37.0302 434.046 37.0652 434.204 37.0915Z" fill="white"/>
<path d="M369.171 15.843C369.285 15.6854 369.373 15.5015 369.522 15.3877C373.228 12.5162 377.321 10.6952 382.107 11.6669C383.521 11.9559 384.909 12.8313 386.068 13.7331C388.149 15.344 390.406 16.4996 392.962 17.0862C393.278 17.1562 393.568 17.2963 393.823 17.5502C391.232 17.3488 388.685 17.0249 386.665 15.1338C384.452 13.0589 381.87 11.7808 378.796 12.1309C377.172 12.3148 375.547 12.8401 374.036 13.4792C372.403 14.1621 370.901 15.1513 369.338 16.0093C369.285 15.9393 369.224 15.8867 369.171 15.843Z" fill="white"/>
<path d="M416.56 36.5136C407.664 36.9163 402.544 42.1605 399.241 49.926C398.802 47.1857 401.288 43.1585 405.477 39.9455C408.682 37.4941 412.09 35.4192 416.56 36.5136Z" fill="white"/>
<path d="M400.146 71.3311C405.837 76.759 412.319 76.5927 419.169 74.2026C416.438 76.4001 413.206 76.8553 409.921 76.5577C406.022 76.2075 402.456 74.9293 400.146 71.3311Z" fill="white"/>
<path d="M433.229 72.4785C431.911 75.9629 423.717 78.5543 420.723 74.7197C422.874 75.4376 425.079 76.3657 427.301 75.4814C429.356 74.6585 431.279 73.4853 433.229 72.4785Z" fill="white"/>
<path d="M418.29 45.9509C417.991 51.9917 417.693 58.0238 417.394 64.0384C416.288 57.98 416.613 51.948 418.29 45.9509Z" fill="white"/>
<path d="M509.055 43.7793C508.809 51.3259 508.554 58.5924 507.992 65.8414C507.193 64.1867 508.115 44.6723 509.055 43.7793Z" fill="white"/>
<path d="M500.229 65.0277C499.992 58.8555 500.326 52.6834 500.414 46.5113C500.545 46.4762 500.677 46.4325 500.809 46.3975C500.949 46.8177 501.213 47.2292 501.213 47.6494C501.195 53.1299 501.142 58.6104 501.072 64.0909C501.063 64.4411 500.835 64.7825 500.703 65.124C500.545 65.0802 500.387 65.0539 500.229 65.0277Z" fill="white"/>
<path d="M469.456 46.8701C470.132 53.2699 470.001 59.442 469.614 65.868C468.868 64.9225 468.815 48.3147 469.456 46.8701Z" fill="white"/>
<path d="M476.244 66.0868C476.35 60.3524 476.49 54.618 477.254 48.8398C477.377 49.2163 477.614 49.5928 477.597 49.9605C477.386 55.1083 477.149 60.2561 476.903 65.4039C476.894 65.6491 476.754 65.8854 476.683 66.1306C476.534 66.1131 476.385 66.1043 476.244 66.0868Z" fill="white"/>
</svg>
