<svg width="16" height="16" viewBox="0 0 16 16" fill="none" xmlns="http://www.w3.org/2000/svg">
<path d="M1.375 15.5C1.125 15.5 0.916667 15.4167 0.75 15.25C0.583333 15.0833 0.5 14.875 0.5 14.625V11.25C0.5 11.0556 0.5625 10.8853 0.6875 10.7392C0.8125 10.5936 0.972222 10.5 1.16667 10.4583L4.04167 9.875C4.23611 9.84722 4.43417 9.86444 4.63583 9.92667C4.83694 9.98944 5 10.0833 5.125 10.2083L7.08333 12.1667C8.13889 11.5278 9.10417 10.7708 9.97917 9.89583C10.8542 9.02083 11.5833 8.08333 12.1667 7.08333L10.1667 5.04167C10.0417 4.91667 9.96167 4.77417 9.92667 4.61417C9.89222 4.45472 9.88889 4.27778 9.91667 4.08333L10.4583 1.16667C10.4861 0.972222 10.5764 0.8125 10.7292 0.6875C10.8819 0.5625 11.0556 0.5 11.25 0.5H14.625C14.875 0.5 15.0833 0.583333 15.25 0.75C15.4167 0.916667 15.5 1.125 15.5 1.375C15.5 3.16667 15.1006 4.91306 14.3017 6.61417C13.5033 8.31583 12.4478 9.82278 11.135 11.135C9.82278 12.4478 8.31611 13.5033 6.615 14.3017C4.91333 15.1006 3.16667 15.5 1.375 15.5Z" fill="#D99938"/>
</svg>
